SplineFontDB: 3.0
FontName: Rufscript
FullName: Rufscript
FamilyName: Rufscript
Weight: Regular
Copyright: Copyright (c) 2007 Lithu K Kumar, Hiran Venugopalan <hiran.in |hiran.v@gmail.com>\n\nLicensed under GNU GPL version 3 or more with font exception. 
Version: 0.1.0
ItalicAngle: 0
UnderlinePosition: -150
UnderlineWidth: 30
Ascent: 1639
Descent: 409
LayerCount: 2
Layer: 0 1 "Back"  1
Layer: 1 1 "Fore"  0
NeedsXUIDChange: 1
XUID: [1021 580 279337382 15486633]
FSType: 0
OS2Version: 1
OS2_WeightWidthSlopeOnly: 0
OS2_UseTypoMetrics: 1
CreationTime: 1183273756
ModificationTime: 1224211473
PfmFamily: 17
TTFWeight: 400
TTFWidth: 5
LineGap: 0
VLineGap: 0
Panose: 2 0 6 3 0 0 0 0 0 0
OS2TypoAscent: 0
OS2TypoAOffset: 1
OS2TypoDescent: 0
OS2TypoDOffset: 1
OS2TypoLinegap: 0
OS2WinAscent: 1
OS2WinAOffset: 1
OS2WinDescent: 0
OS2WinDOffset: 1
HheadAscent: 1
HheadAOffset: 1
HheadDescent: 0
HheadDOffset: 1
OS2SubXSize: 1329
OS2SubYSize: 1226
OS2SubXOff: 0
OS2SubYOff: 151
OS2SupXSize: 1329
OS2SupYSize: 1429
OS2SupXOff: 0
OS2SupYOff: 978
OS2StrikeYSize: 100
OS2StrikeYPos: 512
OS2Vendor: 'PfEd'
DEI: 91125
ShortTable: cvt  2
  68
  1079
EndShort
ShortTable: maxp 16
  1
  0
  99
  239
  5
  0
  0
  2
  0
  1
  1
  0
  64
  46
  0
  0
EndShort

StartChar: .notdef
Encoding: 256 -1 0
Width: 1212
VWidth: 2892
Flags: HW
HStem: 199.55 82.55<213.85 860.6> 1347.45 88.4<213.85 856.05>
VStem: 107.25 106.6<282.1 1347.45> 860.6 94.9<284.7 1349.4>
LayerCount: 2
Fore
SplineSet
213.85 1347.45 m 25,0,-1
 213.85 282.1 l 25,1,-1
 860.6 284.7 l 25,2,-1
 856.05 1349.4 l 25,3,-1
 213.85 1347.45 l 25,0,-1
109.2 1435.85 m 25,4,-1
 955.5 1435.85 l 25,5,-1
 955.5 198.25 l 25,6,-1
 107.25 199.55 l 25,7,-1
 109.2 1435.85 l 25,4,-1
EndSplineSet
EndChar

StartChar: exclam
Encoding: 261 33 5
Width: 487
VWidth: 2892
GlyphClass: 2
Flags: HW
HStem: -7.02775 300.338<243.584 439.27>
VStem: 153.096 204.797<771.481 1446.56> 189.54 284.57<43.2722 239.589> 211.054 182.393<556.823 1157.11>
LayerCount: 2
Fore
SplineSet
418.34 29.4453 m 0,0,1
 375.879 -7.02734 375.879 -7.02734 339.636 -7.02734 c 0,2,3
 328.274 -7.02734 328.274 -7.02734 317.525 -3.44434 c 0,4,5
 272.48 11.5703 272.48 11.5703 231.01 62.335 c 128,-1,6
 189.54 113.1 189.54 113.1 189.54 148.85 c 128,-1,7
 189.54 184.6 189.54 184.6 251.03 243.231 c 0,8,9
 303.553 293.31 303.553 293.31 348.771 293.31 c 0,10,11
 356.492 293.31 356.492 293.31 364 291.85 c 0,12,13
 474.11 267.54 474.11 267.54 474.11 143.131 c 0,14,15
 474.11 77.3496 474.11 77.3496 418.34 29.4453 c 0,0,1
321.946 368.64 m 1,16,17
 243.353 378.651 243.353 378.651 227.5 510.25 c 0,18,19
 218.919 578.89 218.919 578.89 211.054 777.661 c 128,-1,20
 203.19 976.432 203.19 976.432 178.165 1149.46 c 0,21,22
 156.397 1299.97 156.397 1299.97 153.14 1414.01 c 0,23,24
 153.096 1415.54 153.096 1415.54 153.096 1417.07 c 0,25,26
 153.096 1464.7 153.096 1464.7 196.754 1484.79 c 0,27,28
 209.896 1490.84 209.896 1490.84 223.206 1490.84 c 0,29,30
 243.393 1490.84 243.393 1490.84 263.965 1476.93 c 0,31,32
 324.199 1435.2 324.199 1435.2 339.107 1379.65 c 0,33,34
 357.893 1314.46 357.893 1314.46 357.893 1237.73 c 0,35,36
 357.893 1215.17 357.893 1215.17 356.268 1191.6 c 0,37,38
 355.274 1177.21 355.274 1177.21 355.274 1160.39 c 0,39,40
 355.274 1056.15 355.274 1056.15 393.446 859.13 c 2,41,42
 393.446 843.401 393.446 843.401 404.171 748.305 c 128,-1,43
 414.896 653.211 414.896 653.211 419.187 579.564 c 0,44,45
 419.863 567.935 419.863 567.935 419.863 556.464 c 0,46,47
 419.863 495.307 419.863 495.307 400.597 438.711 c 0,48,49
 377.718 371.501 377.718 371.501 321.946 368.64 c 1,16,17
EndSplineSet
EndChar

StartChar: quotedbl
Encoding: 262 34 6
Width: 626
VWidth: 2843
GlyphClass: 2
Flags: HW
HStem: 1009.22 533.038
VStem: 27.7944 272.748<1246.14 1418.23> 104.061 196.481<1046.95 1356.89> 278.044 272.748<1263.3 1435.4> 354.311 196.481<1047.97 1374.09>
LayerCount: 2
Fore
SplineSet
388.63 1063.21 m 0,0,1
 365.751 1091.8 365.751 1091.8 354.312 1176.89 c 128,-1,2
 342.871 1261.97 342.871 1261.97 308.551 1342.05 c 0,3,4
 278.044 1413.23 278.044 1413.23 278.044 1460.12 c 0,5,6
 278.044 1465.98 278.044 1465.98 278.521 1471.47 c 0,7,8
 282.812 1520.8 282.812 1520.8 337.151 1542.25 c 0,9,10
 357.171 1550.5 357.171 1550.5 375.675 1550.5 c 0,11,12
 447.049 1550.5 447.049 1550.5 495.88 1427.85 c 0,13,14
 550.792 1291.34 550.792 1291.34 550.792 1197.12 c 0,15,16
 550.792 1114.68 550.792 1114.68 508.751 1064.63 c 0,17,18
 476.27 1026.38 476.27 1026.38 445.974 1026.38 c 0,19,20
 416.25 1026.38 416.25 1026.38 388.63 1063.21 c 0,0,1
136.951 1046.04 m 0,21,22
 115.501 1074.64 115.501 1074.64 104.061 1159.73 c 128,-1,23
 92.6211 1244.81 92.6211 1244.81 58.3008 1324.89 c 0,24,25
 27.7939 1396.07 27.7939 1396.07 27.7939 1442.4 c 0,26,27
 27.7939 1448.19 27.7939 1448.19 28.2715 1453.59 c 0,28,29
 32.5605 1502.21 32.5605 1502.21 86.9004 1525.09 c 0,30,31
 106.921 1533.34 106.921 1533.34 125.425 1533.34 c 0,32,33
 196.799 1533.34 196.799 1533.34 245.63 1410.7 c 0,34,35
 300.542 1274.18 300.542 1274.18 300.542 1179.96 c 0,36,37
 300.542 1097.52 300.542 1097.52 258.501 1047.47 c 0,38,39
 226.02 1009.22 226.02 1009.22 195.36 1009.22 c 0,40,41
 165.278 1009.22 165.278 1009.22 136.951 1046.04 c 0,21,22
EndSplineSet
EndChar

StartChar: numbersign
Encoding: 263 35 7
Width: 1179
VWidth: 2895
GlyphClass: 2
Flags: HW
HStem: 440.605 144.609<986.137 1106.16> 538.551 108.073<417.247 549.126> 538.551 74.4679<523.836 637.577> 542.954 148.141<73.3014 202.572> 808.419 115.231<420.897 661.194> 932.976 26G<-0.540835 266.926>
VStem: 302.527 114.205<660.011 808.245 963.479 1358.28> 652.311 158.298<652.21 745.983> 675.906 204.736<924.494 1275.17>
LayerCount: 2
Fore
SplineSet
430.661 800.349 m 0,0,1
 416.731 762.93 416.731 762.93 416.731 708.779 c 0,2,3
 416.731 680.056 416.731 680.056 420.651 646.624 c 8,4,-1
 652.312 613.019 l 24,5,-1
 666.198 753.874 l 16,6,7
 505.221 808.419 505.221 808.419 453.909 808.419 c 0,8,9
 434.173 808.419 434.173 808.419 430.661 800.349 c 0,0,1
203.254 534.391 m 24,10,11
 181.533 534.395 181.533 534.395 148.951 542.954 c 0,12,13
 53.626 567.999 53.626 567.999 53.626 601.023 c 0,14,15
 53.626 616.511 53.626 616.511 74.5908 633.754 c 0,16,17
 163.54 706.911 163.54 706.911 205.087 691.096 c 0,18,19
 246.423 675.36 246.423 675.36 290.522 659.393 c 0,20,21
 301.835 655.296 301.835 655.296 302.527 713.996 c 0,22,23
 302.527 765.912 302.527 765.912 256.201 811.074 c 8,24,-1
 95.3262 849.686 l 16,25,26
 -0.597656 904.956 -0.597656 904.956 -0.597656 955.493 c 0,27,28
 -0.597656 957.238 -0.597656 957.238 -0.483398 958.977 c 8,29,-1
 266.927 958.46 l 0,30,31
 274.77 1119.1 274.77 1119.1 286.231 1275.82 c 16,32,33
 293.214 1371.3 293.214 1371.3 344.15 1371.3 c 0,34,35
 378.068 1371.3 378.068 1371.3 384.901 1359.75 c 8,36,37
 412.253 1313.49 412.253 1313.49 448.8 1194.31 c 16,38,39
 456.783 1168.28 456.783 1168.28 449.626 1148.69 c 0,40,41
 393.423 994.89 393.423 994.89 399.201 945.494 c 0,42,43
 401.316 923.65 401.316 923.65 559.65 923.65 c 4,44,45
 675.33 923.65 675.33 923.65 675.906 924.413 c 8,46,-1
 698.072 1341.6 l 16,47,48
 712.742 1427.46 712.742 1427.46 744.531 1427.46 c 0,49,50
 757.556 1427.46 757.556 1427.46 760.991 1422.39 c 8,51,52
 854.621 1284.23 854.621 1284.23 870.554 1241.5 c 16,53,54
 880.642 1214.45 880.642 1214.45 880.642 1101.51 c 0,55,56
 880.642 959.116 880.642 959.116 825.342 917.354 c 8,57,-1
 1075.59 848.254 l 16,58,59
 1100.1 832.111 1100.1 832.111 1100.1 816.697 c 0,60,61
 1100.1 793.705 1100.1 793.705 1045.56 772.33 c 0,62,63
 924.328 724.817 924.328 724.817 895.972 735.819 c 0,64,65
 847.925 754.461 847.925 754.461 834.771 753.874 c 0,66,67
 810.609 752.794 810.609 752.794 810.609 695.408 c 0,68,69
 810.609 670.179 810.609 670.179 833.794 651.629 c 8,70,-1
 1045.56 585.215 l 16,71,72
 1111.37 539.297 1111.37 539.297 1111.37 508.841 c 0,73,74
 1111.37 489.521 1111.37 489.521 1084.89 476.422 c 0,75,76
 1012.48 440.605 1012.48 440.605 956.379 440.605 c 0,77,78
 891.875 440.605 891.875 440.605 848.937 487.959 c 8,79,-1
 771.717 206.186 l 24,80,81
 763.471 186.085 763.471 186.085 683.772 85.3496 c 16,82,83
 681.958 83.0547 681.958 83.0547 674.301 83.0547 c 0,84,85
 650.683 83.0547 650.683 83.0547 644.447 148.269 c 0,86,87
 623.781 364.413 623.781 364.413 629.245 394.361 c 0,88,89
 647.478 494.293 647.478 494.293 644.447 496.661 c 0,90,91
 590.845 538.551 590.845 538.551 493.791 538.551 c 0,92,93
 436.199 538.551 436.199 538.551 400.632 502.871 c 8,94,-1
 356.302 207.614 l 16,95,96
 327.442 131.204 327.442 131.204 270.907 131.204 c 0,97,98
 260.691 131.204 260.691 131.204 260.491 131.824 c 0,99,100
 202.426 312.17 202.426 312.17 202.426 446.191 c 0,101,102
 202.426 534.391 202.426 534.391 203.254 534.391 c 24,10,11
EndSplineSet
EndChar

StartChar: dollar
Encoding: 264 36 8
Width: 833
VWidth: 2898
GlyphClass: 2
Flags: HW
HStem: 20.6007 185.335<224.212 344.507> 113.614 135.252<558.028 654.618> 1088.95 27.3G<678.675 694.095> 1169.83 148.303<317.472 391.26>
VStem: 19.993 163.886<812.672 1024.13> 374.304 150.7<1332.15 1559.18> 391.869 148.516<265.899 536.779 746.327 1167.56> 406.687 154.886<-124.893 55.124> 418.536 121.849<248.871 529.74> 542.59 185.327<1115.95 1187.05> 691.826 145.239<277.347 500.215>
LayerCount: 2
Fore
SplineSet
391.869 1168.89 m 0,0,1
 391.771 1169.83 391.771 1169.83 390.75 1169.83 c 0,2,3
 381.742 1169.83 381.742 1169.83 300.926 1096.68 c 0,4,-1
 236.015 1016.6 l 24,5,6
 209.39 968.654 209.39 968.654 192.527 901.482 c 16,7,8
 183.879 867.029 183.879 867.029 183.879 848.16 c 0,9,10
 183.879 833.916 183.879 833.916 188.807 828.553 c 8,11,12
 200.271 816.076 200.271 816.076 297.486 787.253 c 0,13,14
 399.199 757.097 399.199 757.097 399.675 746.327 c 0,15,16
 391.663 927.463 391.663 927.463 391.663 1110.19 c 0,17,18
 391.663 1139.52 391.663 1139.52 391.869 1168.89 c 0,0,1
674.792 340.922 m 0,19,20
 691.826 373.924 691.826 373.924 691.826 406.059 c 0,21,22
 691.826 446.388 691.826 446.388 664.997 485.353 c 0,23,24
 629.588 536.779 629.588 536.779 557.265 536.779 c 0,25,26
 549.062 536.779 549.062 536.779 540.385 536.117 c 0,27,-1
 540.385 536.111 l 0,28,29
 540.385 535.472 540.385 535.472 542.871 476.058 c 8,30,31
 551.667 265.877 551.667 265.877 551.696 265.848 c 16,32,33
 568.272 248.867 568.272 248.867 586.001 248.867 c 0,34,35
 627.276 248.867 627.276 248.867 674.792 340.922 c 0,19,20
478.4 1554.8 m 0,36,37
 495.806 1552.63 495.806 1552.63 504.332 1527.11 c 24,38,39
 521.616 1461.75 521.616 1461.75 524.856 1379.1 c 16,40,41
 525.004 1375.37 525.004 1375.37 525.004 1371.92 c 0,42,43
 525.004 1339.35 525.004 1339.35 511.986 1331.92 c 8,44,-1
 617.807 1321.28 l 24,45,46
 671.528 1291.82 671.528 1291.82 712.794 1221.8 c 16,47,48
 727.917 1196.14 727.917 1196.14 727.917 1169.87 c 0,49,50
 727.917 1155.88 727.917 1155.88 723.628 1141.72 c 0,51,52
 707.646 1088.95 707.646 1088.95 680.543 1088.95 c 0,53,54
 676.809 1088.95 676.809 1088.95 672.861 1089.95 c 0,55,56
 542.592 1123.04 542.592 1123.04 542.59 1183.64 c 0,57,58
 542.59 1185.64 542.59 1185.64 542.731 1187.66 c 0,59,60
 531.532 1026.98 531.532 1026.98 531.532 861.693 c 0,61,62
 531.532 794.382 531.532 794.382 533.39 726.308 c 8,63,-1
 702.895 632.764 l 24,64,65
 816.897 514.977 816.897 514.977 833.736 415.997 c 16,66,67
 837.064 396.437 837.064 396.437 837.064 377.588 c 0,68,69
 837.064 294.4 837.064 294.4 772.247 225.093 c 0,70,71
 667.99 113.614 667.99 113.614 593.334 113.614 c 0,72,73
 574.512 113.614 574.512 113.614 557.571 120.701 c 8,74,-1
 561.572 15.5977 l 24,75,76
 553.356 -131.259 553.356 -131.259 542.731 -144.562 c 16,77,78
 528.756 -162.063 528.756 -162.063 513.199 -162.063 c 0,79,80
 487.566 -162.063 487.566 -162.063 457.646 -114.532 c 0,81,82
 406.687 -33.5742 406.687 -33.5742 406.687 16.8799 c 0,83,84
 406.687 39.2598 406.687 39.2598 416.713 55.6377 c 8,85,-1
 262.452 20.6006 l 16,86,87
 189.939 118.894 189.939 118.894 189.939 165.057 c 0,88,89
 189.939 205.936 189.939 205.936 246.801 205.936 c 0,90,91
 250.228 205.936 250.228 205.936 253.861 205.787 c 0,92,93
 292.421 204.212 292.421 204.212 323.418 204.212 c 0,94,95
 386.757 204.212 386.757 204.212 418.523 210.792 c 0,96,97
 418.536 210.795 418.536 210.795 418.536 210.955 c 0,98,99
 418.536 218.323 418.536 218.323 391.869 561.143 c 0,100,-1
 187.377 626.207 l 24,101,102
 55.0156 699.323 55.0156 699.323 29.4492 761.343 c 16,103,104
 19.9932 784.281 19.9932 784.281 19.9932 820.224 c 0,105,106
 19.9932 878.686 19.9932 878.686 45.0127 971.553 c 8,107,108
 75.6309 1085.2 75.6309 1085.2 144.064 1186.77 c 24,109,110
 191.584 1257.29 191.584 1257.29 262.452 1294.27 c 16,111,112
 308.212 1318.13 308.212 1318.13 339.031 1318.13 c 0,113,114
 360.188 1318.13 360.188 1318.13 374.304 1306.89 c 8,115,-1
 371.175 1452.04 l 16,116,117
 393.827 1601.31 393.827 1601.31 416.895 1601.31 c 0,118,119
 421.008 1601.31 421.008 1601.31 425.133 1596.57 c 8,120,121
 452.4 1565.2 452.4 1565.2 478.4 1554.8 c 0,36,37
EndSplineSet
EndChar

StartChar: percent
Encoding: 265 37 9
Width: 1181
VWidth: 2892
GlyphClass: 2
Flags: HW
HStem: 230.682 145.87<719.573 849.268> 624.359 131.906<896.433 950.951> 825.383 102.775<307.537 373.45> 1209.61 170.638<266.704 370.725>
VStem: 123.371 142.371<1170.1 1209.15> 389.558 97.9849<939.212 1190.03> 653.971 126.054<306.882 522.938> 950.956 146.706<436.761 624.121>
LayerCount: 2
Fore
SplineSet
427.968 862.832 m 0,0,1
 387.123 825.383 387.123 825.383 333.518 825.383 c 0,2,3
 308.225 825.383 308.225 825.383 280.092 833.72 c 0,4,5
 245.795 844.114 245.795 844.114 185.498 950.286 c 128,-1,6
 125.2 1056.45 125.2 1056.45 123.496 1094.89 c 0,7,8
 123.371 1099.67 123.371 1099.67 123.371 1104.43 c 0,9,10
 123.371 1187.42 123.371 1187.42 161.322 1266.48 c 0,11,12
 215.319 1380.25 215.319 1380.25 293.965 1380.25 c 0,13,14
 303.756 1380.25 303.756 1380.25 313.928 1378.48 c 0,15,16
 343.21 1373.18 343.21 1373.18 347.146 1360 c 128,-1,17
 351.081 1346.83 351.081 1346.83 391.274 1316.15 c 0,18,19
 487.543 1241.72 487.543 1241.72 487.543 1092.64 c 0,20,21
 487.543 1047.22 487.543 1047.22 478.609 994.878 c 0,22,23
 460.591 894.917 460.591 894.917 427.968 862.832 c 0,0,1
353.681 928.164 m 0,24,-1
 353.948 928.152 l 0,25,26
 367.011 928.152 367.011 928.152 385.921 1036.09 c 0,27,28
 389.558 1056.6 389.558 1056.6 389.558 1075.34 c 0,29,30
 389.558 1127.66 389.558 1127.66 361.213 1166.24 c 0,31,32
 329.344 1209.61 329.344 1209.61 305.085 1209.61 c 0,33,34
 300.04 1209.61 300.04 1209.61 295.323 1207.74 c 0,35,36
 265.742 1196.72 265.742 1196.72 265.742 1187.17 c 0,37,38
 265.742 1178.7 265.742 1178.7 288.955 1171.39 c 0,39,40
 289.496 1171.2 289.496 1171.2 289.496 1170.07 c 0,41,42
 289.496 1164.86 289.496 1164.86 278.074 1139.62 c 0,43,44
 264.169 1108.9 264.169 1108.9 262.131 1106.89 c 1,45,46
 266.175 1106.86 266.175 1106.86 288.803 1030.83 c 0,47,48
 320.082 928.158 320.082 928.158 353.209 928.158 c 0,49,-1
 353.681 928.164 l 0,24,-1
778.619 234.4 m 0,50,51
 762.553 230.683 762.553 230.683 748.09 230.683 c 0,52,53
 691.058 230.683 691.058 230.683 658.965 288.505 c 0,54,55
 653.972 297.405 653.972 297.405 653.972 316.359 c 0,56,57
 653.972 357.972 653.972 357.972 678.038 448.045 c 0,58,59
 705.092 552.093 705.092 552.093 737 613.135 c 0,60,61
 777.618 691.792 777.618 691.792 884.4 748.743 c 0,62,63
 898.504 756.265 898.504 756.265 919.938 756.265 c 0,64,65
 941.861 756.265 941.861 756.265 971.453 748.396 c 0,66,67
 1035.14 731.461 1035.14 731.461 1037.35 726.547 c 0,68,69
 1050.8 696.579 1050.8 696.579 1073.07 666.199 c 0,70,71
 1097.66 629.747 1097.66 629.747 1097.66 585.115 c 0,72,73
 1097.66 471.749 1097.66 471.749 939.008 305.614 c 0,74,75
 896.668 261.098 896.668 261.098 778.619 234.4 c 0,50,51
795.076 380.181 m 0,76,77
 801.116 376.553 801.116 376.553 808.592 376.553 c 0,78,79
 833.178 376.553 833.178 376.553 873.303 415.791 c 0,80,81
 936.078 477.18 936.078 477.18 947.521 546.37 c 0,82,83
 950.956 567.129 950.956 567.129 950.956 582.253 c 0,84,85
 950.956 617.539 950.956 617.539 932.263 622.151 c 0,86,87
 921.725 624.358 921.725 624.358 914.285 624.358 c 0,88,89
 896.43 624.358 896.43 624.358 896.43 611.64 c 0,90,91
 896.43 603.849 896.43 603.849 903.13 591.284 c 1,92,93
 903.146 591.225 903.146 591.225 903.146 591.155 c 0,94,95
 903.146 588.084 903.146 588.084 872.608 568.914 c 0,96,97
 841.396 549.319 841.396 549.319 840.007 548.972 c 1,98,99
 842.575 545.976 842.575 545.976 842.575 540.606 c 0,100,101
 842.575 519.788 842.575 519.788 803.937 463.306 c 0,102,103
 780.026 428.353 780.026 428.353 780.026 406.533 c 0,104,105
 780.026 389.224 780.026 389.224 795.076 380.181 c 0,76,77
1045.49 1451.68 m 0,106,107
 1052.49 1452.96 1052.49 1452.96 1058.72 1452.96 c 0,108,109
 1102.34 1452.96 1102.34 1452.96 1108.25 1390.35 c 1,110,111
 1109.76 1378.03 1109.76 1378.03 1109.76 1366.31 c 0,112,113
 1109.76 1301.96 1109.76 1301.96 1064.08 1255.77 c 0,114,115
 1056.17 1250.47 1056.17 1250.47 905.348 1036.98 c 0,116,117
 865.333 980.346 865.333 980.346 799.527 895.413 c 0,118,119
 615.941 658.471 615.941 658.471 444.888 410.643 c 0,120,121
 421.495 378.974 421.495 378.974 301.888 224.743 c 0,122,123
 204.211 98.79 204.211 98.79 184.316 98.79 c 0,124,125
 183.723 98.79 183.723 98.79 183.197 98.9023 c 1,126,127
 187.487 104.622 187.487 104.622 173.188 120.353 c 0,128,129
 104.195 196.736 104.195 196.736 104.195 218.989 c 0,130,131
 104.195 222.565 104.195 222.565 105.977 224.743 c 1,132,133
 105.952 224.827 105.952 224.827 105.952 224.941 c 0,134,135
 105.952 238.443 105.952 238.443 439.167 672.333 c 0,136,137
 526.397 786.732 526.397 786.732 708.723 1046.99 c 128,-1,138
 891.047 1307.25 891.047 1307.25 956.827 1394.48 c 0,139,140
 992.577 1443.1 992.577 1443.1 1045.49 1451.68 c 0,106,107
EndSplineSet
EndChar

StartChar: ampersand
Encoding: 266 38 10
Width: 1082
VWidth: 2906
GlyphClass: 2
Flags: HW
HStem: 84.8042 226.546<132.302 355.932> 1126.33 226.39<468.263 588.88>
VStem: 132.947 230.418<854.564 988.381> 591.475 171.575<883.333 1123.74>
LayerCount: 2
Fore
SplineSet
437.999 1306.93 m 0,0,1
 515.862 1352.71 515.862 1352.71 554.952 1352.71 c 0,2,3
 566.591 1352.71 566.591 1352.71 574.791 1348.66 c 0,4,5
 581.796 1342.33 581.796 1342.33 674.7 1329.9 c 0,6,7
 752.598 1319.45 752.598 1319.45 756.701 1247.06 c 0,8,9
 758.133 1224.18 758.133 1224.18 762.423 1098.34 c 0,10,11
 763.051 1079.69 763.051 1079.69 763.051 1061.69 c 0,12,13
 763.051 975.911 763.051 975.911 748.8 904.8 c 0,14,15
 737.156 846.689 737.156 846.689 656.602 738.106 c 0,16,17
 590.555 649.08 590.555 649.08 565.5 612.3 c 0,18,-1
 265.2 323.7 l 0,19,20
 266.856 311.35 266.856 311.35 281.196 311.35 c 0,21,22
 356.648 311.35 356.648 311.35 783.25 653.25 c 0,23,24
 794.955 662.631 794.955 662.631 1000.19 749.937 c 0,25,26
 1020.2 758.444 1020.2 758.444 1034.12 758.444 c 0,27,28
 1066 758.444 1066 758.444 1066 713.829 c 0,29,30
 1066 656.32 1066 656.32 951.6 569.4 c 0,31,32
 768.045 428.746 768.045 428.746 768.045 355.318 c 0,33,34
 768.045 349.152 768.045 349.152 769.34 343.46 c 0,35,36
 785.071 274.82 785.071 274.82 815.1 97.5 c 1,37,38
 812.299 114.311 812.299 114.311 812.299 124.729 c 0,39,40
 812.299 141.718 812.299 141.718 819.745 141.718 c 0,41,42
 829.859 141.718 829.859 141.718 853.711 110.37 c 0,43,44
 917.309 29.2285 917.309 29.2285 917.309 -13.46 c 0,45,46
 917.309 -39.0957 917.309 -39.0957 894.373 -50.8643 c 0,47,48
 831.337 -80.7871 831.337 -80.7871 809.987 -80.7871 c 0,49,50
 805.498 -80.7871 805.498 -80.7871 802.852 -79.4639 c 0,51,52
 754.672 -56.7119 754.672 -56.7119 709.901 39.2256 c 0,53,54
 595.933 283.447 595.933 283.447 595.933 309.237 c 0,55,56
 595.933 311.354 595.933 311.354 596.7 312 c 0,57,58
 326.521 84.8047 326.521 84.8047 169.939 84.8047 c 0,59,60
 127.621 84.8047 127.621 84.8047 93.5996 101.4 c 1,61,62
 63.9316 159.831 63.9316 159.831 63.9316 205.386 c 0,63,64
 63.9316 218.257 63.9316 218.257 66.2998 230.1 c 0,65,66
 69.0049 243.624 69.0049 243.624 198.9 432.9 c 2,67,-1
 319.8 647.4 l 0,68,69
 316.769 784.273 316.769 784.273 273 787.8 c 0,70,71
 263.012 788.684 263.012 788.684 224.381 792.09 c 0,72,73
 176.194 796.336 176.194 796.336 158.654 816.056 c 0,74,75
 132.947 844.96 132.947 844.96 132.947 864.168 c 0,76,77
 132.947 869.652 132.947 869.652 135.043 874.346 c 0,78,79
 166.297 944.353 166.297 944.353 241.8 1084.2 c 0,80,81
 326.71 1241.47 326.71 1241.47 437.999 1306.93 c 0,0,1
564.043 958.718 m 0,82,83
 591.476 1065.4 591.476 1065.4 591.476 1103.87 c 0,84,85
 591.476 1119.54 591.476 1119.54 586.923 1123.88 c 0,86,87
 584.361 1126.33 584.361 1126.33 579.187 1126.33 c 0,88,89
 552.569 1126.33 552.569 1126.33 456.793 1061.68 c 0,90,91
 363.365 996.849 363.365 996.849 363.365 945.37 c 0,92,93
 363.365 919.629 363.365 919.629 386.723 897.227 c 0,94,95
 438.773 848.034 438.773 848.034 477.555 848.034 c 0,96,97
 535.728 848.034 535.728 848.034 564.043 958.718 c 0,82,83
EndSplineSet
EndChar

StartChar: quotesingle
Encoding: 267 39 11
Width: 366
VWidth: 2844
GlyphClass: 2
Flags: HW
HStem: 1002.48 525.192<219.465 294.206>
VStem: 108.832 272.927<1240.47 1412.57> 184.965 196.794<1041.28 1351.67>
LayerCount: 2
Fore
SplineSet
218.57 1040.37 m 0,0,1
 197.12 1068.97 197.12 1068.97 184.965 1154.06 c 128,-1,2
 172.811 1239.14 172.811 1239.14 139.205 1319.23 c 0,3,4
 108.832 1391.61 108.832 1391.61 108.832 1438.28 c 0,5,6
 108.832 1443.25 108.832 1443.25 109.176 1447.93 c 0,7,8
 112.751 1496.55 112.751 1496.55 167.09 1519.43 c 0,9,10
 187.404 1527.67 187.404 1527.67 206.144 1527.67 c 0,11,12
 278.42 1527.67 278.42 1527.67 327.25 1405.03 c 0,13,14
 381.76 1269.51 381.76 1269.51 381.76 1175.28 c 0,15,16
 381.76 1091.52 381.76 1091.52 338.69 1040.37 c 0,17,18
 307.23 1002.48 307.23 1002.48 277.2 1002.48 c 128,-1,19
 247.17 1002.48 247.17 1002.48 218.57 1040.37 c 0,0,1
EndSplineSet
EndChar

StartChar: parenleft
Encoding: 268 40 12
Width: 903
VWidth: 2897
GlyphClass: 2
Flags: HW
VStem: 46.9067 238.642<447.122 978.637>
LayerCount: 2
Fore
SplineSet
702 1591.2 m 0,0,1
 808.708 1578.11 808.708 1578.11 808.708 1539.36 c 0,2,3
 808.708 1506.75 808.708 1506.75 733.2 1456 c 8,4,5
 469.622 1278.84 469.622 1278.84 374.4 1060.8 c 0,6,7
 285.549 856.046 285.549 856.046 285.549 662.098 c 0,8,9
 285.549 404.736 285.549 404.736 442 166.4 c 0,10,-1
 722.8 -57.2002 l 0,11,12
 750.533 -101.111 750.533 -101.111 750.533 -123.452 c 0,13,14
 750.533 -146.591 750.533 -146.591 720.783 -146.591 c 0,15,16
 714.628 -146.591 714.628 -146.591 707.2 -145.6 c 8,17,18
 415.396 -19.0342 415.396 -19.0342 291.2 130 c 24,19,20
 94.1025 366.517 94.1025 366.517 57.2002 634.4 c 16,21,22
 46.9062 709.121 46.9062 709.121 46.9062 777.57 c 0,23,24
 46.9062 995.035 46.9062 995.035 150.8 1149.2 c 0,25,26
 449.786 1592.85 449.786 1592.85 674.818 1592.85 c 0,27,28
 688.546 1592.85 688.546 1592.85 702 1591.2 c 0,0,1
EndSplineSet
EndChar

StartChar: parenright
Encoding: 269 41 13
Width: 903
VWidth: 2897
GlyphClass: 2
Flags: HW
VStem: 640.051 238.642<431.523 963.037>
LayerCount: 2
Fore
SplineSet
223.6 1575.6 m 0,0,1
 237.054 1577.25 237.054 1577.25 250.781 1577.25 c 0,2,3
 475.814 1577.25 475.814 1577.25 774.8 1133.6 c 0,4,5
 878.693 979.436 878.693 979.436 878.693 761.971 c 0,6,7
 878.693 693.521 878.693 693.521 868.4 618.8 c 8,8,9
 831.497 350.918 831.497 350.918 634.4 114.4 c 24,10,11
 510.206 -34.6338 510.206 -34.6338 218.4 -161.2 c 16,12,13
 210.972 -162.19 210.972 -162.19 204.816 -162.19 c 0,14,15
 175.067 -162.19 175.067 -162.19 175.067 -139.052 c 0,16,17
 175.067 -116.711 175.067 -116.711 202.8 -72.7998 c 0,18,-1
 483.6 150.8 l 0,19,20
 640.051 389.137 640.051 389.137 640.051 646.498 c 0,21,22
 640.051 840.446 640.051 840.446 551.2 1045.2 c 0,23,24
 455.978 1263.24 455.978 1263.24 192.4 1440.4 c 16,25,26
 116.893 1491.15 116.893 1491.15 116.893 1523.76 c 0,27,28
 116.893 1562.5 116.893 1562.5 223.6 1575.6 c 0,0,1
EndSplineSet
EndChar

StartChar: asterisk
Encoding: 270 42 14
Width: 703
VWidth: 2853
GlyphClass: 2
Flags: HW
HStem: 915.883 27.3G<89.6223 117.263> 1128.85 136.581<17.8418 179.63>
VStem: -13.9116 659.55<1157.52 1215.51>
LayerCount: 2
Fore
SplineSet
511.098 1376.97 m 0,0,1
 506.093 1348.37 506.093 1348.37 464.623 1288.31 c 2,2,-1
 447.482 1262.86 l 1,3,4
 458.144 1262.07 458.144 1262.07 467.484 1261.14 c 0,5,6
 567.584 1251.13 567.584 1251.13 604.764 1216.81 c 0,7,8
 645.639 1175.1 645.639 1175.1 645.639 1154.8 c 0,9,10
 645.639 1140.31 645.639 1140.31 624.784 1136.73 c 0,11,12
 593.682 1130.65 593.682 1130.65 562.489 1130.65 c 0,13,14
 497.148 1130.65 497.148 1130.65 431.418 1157.32 c 1,15,16
 455.962 1124.9 455.962 1124.9 471.772 1100.98 c 0,17,18
 523.539 1022.67 523.539 1022.67 523.539 973.672 c 0,19,20
 523.539 970.035 523.539 970.035 523.254 966.561 c 0,21,22
 520.258 930.053 520.258 930.053 507.977 913.453 c 0,23,24
 497.687 899.543 497.687 899.543 480.73 899.543 c 0,25,26
 477.449 899.543 477.449 899.543 473.919 900.064 c 0,27,28
 430.304 906.5 430.304 906.5 383.114 986.58 c 0,29,30
 360.441 1026.89 360.441 1026.89 320.804 1082.75 c 1,31,32
 283.834 1033.2 283.834 1033.2 257.989 1003.74 c 0,33,34
 191.494 927.95 191.494 927.95 141.444 919.37 c 0,35,36
 124.005 915.883 124.005 915.883 110.521 915.883 c 0,37,38
 68.7227 915.883 68.7227 915.883 64.9395 949.4 c 0,39,40
 64.585 952.535 64.585 952.535 64.585 955.777 c 0,41,42
 64.585 998.382 64.585 998.382 125.714 1059.51 c 0,43,44
 161.369 1095.16 161.369 1095.16 208.012 1152.36 c 1,45,-1
 188.634 1141.02 l 2,46,47
 167.944 1128.85 167.944 1128.85 132.755 1128.85 c 0,48,49
 85.248 1128.85 85.248 1128.85 11.3145 1151.03 c 0,50,51
 -13.9111 1159.44 -13.9111 1159.44 -13.9111 1190.04 c 0,52,53
 -13.9111 1195.88 -13.9111 1195.88 -12.9961 1202.51 c 0,54,55
 -8.70605 1238.26 -8.70605 1238.26 17.0332 1251.13 c 0,56,57
 42.5352 1263.88 42.5352 1263.88 115.704 1265.43 c 0,58,59
 149.238 1266.14 149.238 1266.14 179.841 1266.59 c 1,60,61
 107.139 1358.85 107.139 1358.85 96.3984 1384.12 c 0,62,63
 93.3145 1391.38 93.3145 1391.38 93.3145 1398.27 c 0,64,65
 93.3145 1418.53 93.3145 1418.53 119.993 1435.6 c 0,66,67
 139.569 1448.06 139.569 1448.06 156.93 1448.06 c 0,68,69
 167.47 1448.06 167.47 1448.06 177.194 1443.47 c 0,70,71
 202.934 1431.31 202.934 1431.31 251.554 1375.54 c 2,72,-1
 318.606 1297.03 l 1,73,-1
 321.623 1301.18 l 2,74,75
 408.854 1421.3 408.854 1421.3 433.164 1439.89 c 0,76,77
 442.71 1447.2 442.71 1447.2 453.359 1447.2 c 0,78,79
 469.74 1447.2 469.74 1447.2 488.934 1429.88 c 0,80,81
 511.872 1409.2 511.872 1409.2 511.872 1385.72 c 0,82,83
 511.872 1381.41 511.872 1381.41 511.098 1376.97 c 0,0,1
EndSplineSet
EndChar

StartChar: plus
Encoding: 271 43 15
Width: 952
VWidth: 2913
GlyphClass: 2
Flags: HW
HStem: 452.863 186.217<530.414 905.185> 496.111 176.905<-13.4042 300.8> 1062.99 26G<408.65 438.233>
VStem: 307.74 191.814<87.1612 462.216> 327.6 211.675<654.484 1067.88>
LayerCount: 2
Fore
SplineSet
342.399 965.045 m 0,0,1
 352.32 1050.89 352.32 1050.89 378.3 1072.5 c 0,2,3
 396.709 1088.99 396.709 1088.99 420.59 1088.99 c 0,4,5
 455.874 1088.99 455.874 1088.99 503.1 1053 c 0,6,7
 539.275 1027.32 539.275 1027.32 539.275 850.865 c 0,8,9
 539.275 763.467 539.275 763.467 530.4 639.08 c 8,10,-1
 760.5 633.227 l 24,11,12
 921.774 608.187 921.774 608.187 933.233 534.3 c 0,13,14
 933.995 529.389 933.995 529.389 933.995 524.796 c 0,15,16
 933.995 466.482 933.995 466.482 811.2 459.558 c 0,17,18
 692.506 452.862 692.506 452.862 618.341 452.862 c 0,19,20
 526.799 452.862 526.799 452.862 503.1 463.062 c 8,21,-1
 499.554 249.6 l 24,22,23
 485.844 102.559 485.844 102.559 468 86.6318 c 16,24,25
 430.422 53.0889 430.422 53.0889 403.769 53.0889 c 0,26,27
 366.977 53.0889 366.977 53.0889 351 116.999 c 0,28,29
 307.74 290.04 307.74 290.04 307.74 389.995 c 0,30,31
 307.74 434.192 307.74 434.192 316.197 464.1 c 0,32,33
 315.065 460.098 315.065 460.098 302.047 460.098 c 0,34,35
 262.996 460.098 262.996 460.098 117 496.111 c 8,36,37
 27.6328 518.156 27.6328 518.156 -0.000976562 542.1 c 16,38,39
 -42.7725 579.159 -42.7725 579.159 -42.7725 606.491 c 0,40,41
 -42.7725 618.068 -42.7725 618.068 -35.0996 627.9 c 0,42,43
 0.106445 673.017 0.106445 673.017 77.7227 673.017 c 0,44,45
 89.1055 673.017 89.1055 673.017 101.4 672.047 c 0,46,47
 327.6 654.193 327.6 654.193 327.6 650.993 c 0,48,-1
 327.6 650.989 l 8,49,-1
 342.399 965.045 l 0,0,1
EndSplineSet
EndChar

StartChar: comma
Encoding: 272 44 16
Width: 546
VWidth: 2961
GlyphClass: 2
Flags: HW
HStem: -211.419 627.77
VStem: 125.859 123.228<-215.314 -44.6614> 217.259 204.169<74.1753 275.356>
LayerCount: 2
Fore
SplineSet
422.116 416.351 m 0,0,1
 440.708 416.351 440.708 416.351 468.592 387.036 c 128,-1,2
 496.477 357.721 496.477 357.721 497.908 334.841 c 0,3,4
 497.997 333.145 497.997 333.145 497.997 331.419 c 0,5,6
 497.997 305.527 497.997 305.527 477.887 273.351 c 0,7,8
 456.437 239.031 456.437 239.031 456.437 229.021 c 128,-1,9
 456.437 219.011 456.437 219.011 438.562 206.856 c 128,-1,10
 420.687 194.701 420.687 194.701 421.401 185.406 c 0,11,12
 421.428 185.062 421.428 185.062 421.428 184.697 c 0,13,14
 421.428 175.237 421.428 175.237 403.526 152.516 c 0,15,16
 384.937 128.921 384.937 128.921 367.776 86.0205 c 0,17,18
 350.616 41.6914 350.616 41.6914 336.316 28.8213 c 0,19,20
 300.514 -2.84961 300.514 -2.84961 300.514 -39.8262 c 0,21,22
 300.514 -41.25 300.514 -41.25 300.566 -42.6787 c 0,23,24
 300.641 -43.4131 300.641 -43.4131 300.641 -44.2012 c 0,25,26
 300.641 -58.7764 300.641 -58.7764 275.541 -92.0146 c 0,27,28
 249.087 -127.05 249.087 -127.05 249.087 -137.059 c 0,29,30
 249.087 -168.519 249.087 -168.519 196.177 -211.419 c 0,31,32
 183.308 -222.859 183.308 -222.859 166.147 -219.999 c 0,33,34
 125.858 -212.165 125.858 -212.165 125.858 -136.892 c 0,35,36
 125.858 -115.981 125.858 -115.981 128.968 -89.8691 c 0,37,38
 144.698 58.8506 144.698 58.8506 160.427 70.291 c 0,39,40
 169.008 77.4414 169.008 77.4414 181.877 108.9 c 128,-1,41
 194.748 140.361 194.748 140.361 209.048 153.946 c 128,-1,42
 223.348 167.531 223.348 167.531 217.627 174.681 c 0,43,44
 217.259 175.293 217.259 175.293 217.259 176.358 c 0,45,46
 217.259 187.714 217.259 187.714 259.098 250.471 c 0,47,48
 304.857 320.541 304.857 320.541 320.587 344.851 c 0,49,50
 360.627 412.061 360.627 412.061 422.116 416.351 c 0,0,1
EndSplineSet
EndChar

StartChar: hyphen
Encoding: 273 45 17
Width: 703
VWidth: 2917
GlyphClass: 2
Flags: HW
HStem: 470.779 167.862<122.52 548.568>
VStem: 65.5903 603.404<471.095 580.883>
LayerCount: 2
Fore
SplineSet
542.421 435.391 m 4,0,1
 428.165 470.779 428.165 470.779 327.136 470.779 c 4,2,3
 285.281 470.779 285.281 470.779 245.696 464.706 c 4,4,5
 170.331 453.143 170.331 453.143 128.548 453.143 c 4,6,7
 95.4082 453.143 95.4082 453.143 83.3906 460.416 c 4,8,9
 65.5898 471.188 65.5898 471.188 65.5898 493.626 c 4,10,11
 65.5898 505.435 65.5898 505.435 70.5215 520.476 c 4,12,13
 84.8213 564.091 84.8213 564.091 127.722 582.681 c 4,14,15
 230.68 624.15 230.68 624.15 387.981 635.591 c 4,16,17
 429.928 638.642 429.928 638.642 464.146 638.642 c 4,18,19
 558.246 638.642 558.246 638.642 593.901 615.57 c 4,20,21
 668.994 566.289 668.994 566.289 668.994 542.041 c 4,22,23
 668.994 536.737 668.994 536.737 665.401 532.631 c 4,24,25
 588.683 434.747 588.683 434.747 548.669 434.747 c 4,26,27
 545.424 434.747 545.424 434.747 542.421 435.391 c 4,0,1
EndSplineSet
EndChar

StartChar: period
Encoding: 274 46 18
Width: 473
VWidth: 2953
GlyphClass: 2
Flags: HW
HStem: 26.6412 300.338<146.409 342.095>
VStem: 92.3647 284.57<76.9404 273.256>
LayerCount: 2
Fore
SplineSet
321.165 63.1133 m 0,0,1
 278.703 26.6416 278.703 26.6416 242.459 26.6416 c 0,2,3
 231.1 26.6416 231.1 26.6416 220.35 30.2236 c 0,4,5
 175.305 45.2383 175.305 45.2383 133.835 96.0049 c 128,-1,6
 92.3643 146.769 92.3643 146.769 92.3643 182.519 c 128,-1,7
 92.3643 218.269 92.3643 218.269 153.855 276.898 c 0,8,9
 206.376 326.979 206.376 326.979 251.596 326.979 c 0,10,11
 259.316 326.979 259.316 326.979 266.825 325.519 c 0,12,13
 376.935 301.209 376.935 301.209 376.935 176.799 c 0,14,15
 376.935 111.02 376.935 111.02 321.165 63.1133 c 0,0,1
EndSplineSet
EndChar

StartChar: slash
Encoding: 275 47 19
Width: 707
VWidth: 2895
GlyphClass: 2
Flags: HW
VStem: 593.168 139.686<1323.62 1537.3>
LayerCount: 2
Fore
SplineSet
593.168 1537.41 m 1,0,1
 648.938 1553.85 648.938 1553.85 682.9 1553.85 c 128,-1,2
 716.863 1553.85 716.863 1553.85 729.018 1537.41 c 1,3,4
 732.854 1534.16 732.854 1534.16 732.854 1522.94 c 0,5,6
 732.854 1479.78 732.854 1479.78 676.107 1318.62 c 2,7,-1
 583.158 1061.21 l 2,8,9
 515.948 871.021 515.948 871.021 493.068 799.521 c 0,10,11
 454.458 680.831 454.458 680.831 322.897 333.341 c 2,12,13
 225.658 78.8008 l 2,14,15
 181.328 -38.459 181.328 -38.459 161.308 -39.8896 c 1,16,17
 160.138 -41.0596 160.138 -41.0596 157.053 -41.0596 c 0,18,19
 148.828 -41.0596 148.828 -41.0596 126.988 -32.7402 c 1,20,21
 73.584 -0.696289 73.584 -0.696289 73.584 25.4121 c 0,22,23
 73.584 37.7539 73.584 37.7539 85.5186 48.7705 c 1,24,25
 85.2666 49.21 85.2666 49.21 85.2666 50.2588 c 0,26,27
 85.2666 73.0508 85.2666 73.0508 204.208 383.391 c 0,28,29
 328.618 708.001 328.618 708.001 429.433 1009.73 c 128,-1,30
 530.248 1311.47 530.248 1311.47 560.278 1392.26 c 128,-1,31
 590.308 1473.06 590.308 1473.06 593.168 1537.41 c 1,0,1
EndSplineSet
EndChar

StartChar: zero
Encoding: 276 48 20
Width: 924
VWidth: 2902
GlyphClass: 2
Flags: HW
HStem: -18.85 278.075<293.283 478.582> 1112.17 296.383<576.844 762.934>
VStem: 176.276 103.792<263.4 677.209> 790.556 111.675<664.763 1060.61>
LayerCount: 2
Fore
SplineSet
333.607 685.072 m 128,-1,1
 284.059 585.84 284.059 585.84 280.8 499.2 c 0,2,3
 280.068 479.76 280.068 479.76 280.068 460.876 c 0,4,5
 280.068 395.599 280.068 395.599 288.807 336.972 c 0,6,7
 300.072 261.386 300.072 261.386 339.398 259.302 c 0,8,9
 340.85 259.226 340.85 259.226 342.37 259.226 c 0,10,11
 382.121 259.226 382.121 259.226 470.827 311.671 c 0,12,13
 562.93 366.125 562.93 366.125 627.694 453.217 c 128,-1,14
 692.459 540.308 692.459 540.308 741.207 672.372 c 128,-1,15
 789.954 804.437 789.954 804.437 790.556 904.739 c 0,16,-1
 790.567 908.748 l 0,17,18
 790.567 1006.19 790.567 1006.19 761.772 1062.37 c 0,19,20
 736.25 1112.17 736.25 1112.17 686.92 1112.17 c 0,21,22
 679.453 1112.17 679.453 1112.17 671.439 1111.03 c 0,23,24
 610.494 1102.35 610.494 1102.35 565.707 1042.87 c 128,-1,25
 520.919 983.396 520.919 983.396 452.037 883.851 c 128,-1,0
 383.154 784.305 383.154 784.305 333.607 685.072 c 128,-1,1
223.354 694.85 m 0,26,27
 271.648 888.55 271.648 888.55 354.9 1053 c 128,-1,28
 438.152 1217.45 438.152 1217.45 534.775 1313 c 128,-1,29
 631.398 1408.55 631.398 1408.55 717.198 1408.55 c 128,-1,30
 802.998 1408.55 802.998 1408.55 851.976 1313 c 128,-1,31
 900.952 1217.45 900.952 1217.45 902.2 1053 c 0,32,33
 902.231 1048.85 902.231 1048.85 902.231 1044.69 c 0,34,35
 902.231 883.666 902.231 883.666 855.154 694.85 c 0,36,37
 806.859 501.15 806.859 501.15 723.607 336.7 c 128,-1,38
 640.355 172.25 640.355 172.25 543.731 76.7002 c 128,-1,39
 447.109 -18.8496 447.109 -18.8496 361.309 -18.8496 c 128,-1,40
 275.509 -18.8496 275.509 -18.8496 226.531 76.7002 c 128,-1,41
 177.556 172.25 177.556 172.25 176.308 336.7 c 0,42,43
 176.276 340.843 176.276 340.843 176.276 345.003 c 0,44,45
 176.276 506.029 176.276 506.029 223.354 694.85 c 0,26,27
EndSplineSet
EndChar

StartChar: one
Encoding: 277 49 21
Width: 540
VWidth: 2679
GlyphClass: 2
Flags: HW
VStem: 153.457 213.275<399.218 1175.85>
LayerCount: 2
Fore
SplineSet
232.375 260.753 m 0,0,1
 158.015 725.359 158.015 725.359 153.725 914.549 c 0,2,3
 153.457 926.373 153.457 926.373 153.457 937.75 c 0,4,5
 153.457 1108.4 153.457 1108.4 213.785 1178.38 c 0,6,7
 277.413 1254.44 277.413 1254.44 314.553 1254.44 c 0,8,9
 330.834 1254.44 330.834 1254.44 342.024 1239.83 c 0,10,11
 370.878 1202.14 370.878 1202.14 370.878 1079.64 c 0,12,13
 370.878 1046.24 370.878 1046.24 368.734 1006.54 c 0,14,15
 366.732 969.479 366.732 969.479 366.732 926.544 c 0,16,17
 366.732 754.806 366.732 754.806 398.765 489.169 c 0,18,19
 430.346 227.273 430.346 227.273 430.346 137.116 c 0,20,21
 430.346 112.967 430.346 112.967 428.079 101.14 c 0,22,23
 417.354 45.1543 417.354 45.1543 367.765 39.0547 c 0,24,25
 361.85 38.3271 361.85 38.3271 356.183 38.3271 c 0,26,27
 314.338 38.3271 314.338 38.3271 286 78 c 0,28,29
 253.825 123.044 253.825 123.044 232.375 260.753 c 0,0,1
EndSplineSet
EndChar

StartChar: two
Encoding: 278 50 22
Width: 1003
VWidth: 2680
GlyphClass: 2
Flags: HW
HStem: 74.0797 245.042<394.898 845.083> 1078.31 277.066<362.989 585.266>
VStem: 590.398 188.275<781.449 1071.79>
LayerCount: 2
Fore
SplineSet
76.7002 92.9502 m 0,0,1
 32.166 115.595 32.166 115.595 32.166 158.305 c 0,2,3
 32.166 253.072 32.166 253.072 251.423 446.627 c 0,4,5
 400.859 578.544 400.859 578.544 481.652 688.583 c 128,-1,6
 562.447 798.621 562.447 798.621 583.897 915.095 c 0,7,8
 590.397 950.39 590.397 950.39 590.397 978.121 c 0,9,10
 590.397 1041.9 590.397 1041.9 556.013 1065.67 c 0,11,12
 537.729 1078.31 537.729 1078.31 510.9 1078.31 c 0,13,14
 465.339 1078.31 465.339 1078.31 395.138 1041.86 c 0,15,16
 283.598 983.949 283.598 983.949 249.277 799.908 c 128,-1,17
 214.959 615.868 214.959 615.868 144.173 592.058 c 0,18,19
 132.795 588.23 132.795 588.23 122.16 588.23 c 0,20,21
 60.0439 588.23 60.0439 588.23 23.3379 718.827 c 0,22,23
 22.8828 720.445 22.8828 720.445 22.8828 725.404 c 0,24,25
 22.8828 749.69 22.8828 749.69 33.7998 854.1 c 0,26,27
 39.5195 908.798 39.5195 908.798 89.5693 1001.46 c 0,28,29
 191.1 1186.79 191.1 1186.79 340.311 1284.57 c 0,30,31
 448.354 1355.38 448.354 1355.38 545.129 1355.38 c 0,32,33
 582.002 1355.38 582.002 1355.38 617.24 1345.1 c 0,34,35
 778.673 1297.99 778.673 1297.99 778.673 1056.91 c 0,36,37
 778.673 1046.69 778.673 1046.69 778.382 1036.13 c 0,38,39
 771.25 776.262 771.25 776.262 558.159 503.898 c 2,40,-1
 387.987 286.396 l 1,41,-1
 659.688 313.424 l 2,42,43
 716.96 319.121 716.96 319.121 764.982 319.121 c 0,44,45
 866.864 319.121 866.864 319.121 927.098 293.475 c 0,46,47
 973.459 273.735 973.459 273.735 973.459 235.577 c 0,48,49
 973.459 194.037 973.459 194.037 918.518 130.67 c 0,50,51
 888.676 96.252 888.676 96.252 848.9 64.3496 c 1,52,53
 725.932 74.0801 725.932 74.0801 709.285 74.0801 c 0,54,55
 708.223 74.0801 708.223 74.0801 707.594 74.04 c 0,56,57
 520.605 62.2803 520.605 62.2803 481.228 62.2803 c 0,58,59
 476.396 62.2803 476.396 62.2803 473.787 62.457 c 0,60,61
 93.2471 84.8271 93.2471 84.8271 76.7002 92.9502 c 0,0,1
EndSplineSet
EndChar

StartChar: three
Encoding: 279 51 23
Width: 1029
VWidth: 2679
GlyphClass: 2
Flags: HW
HStem: 43.9295 191.162<234.244 678.088> 1122.85 214.742<294.928 675.402>
VStem: 78.7224 150.784<893.996 1058.66> 702.881 263.433<277.972 400.046> 756.479 238.13<838.609 1048.21>
LayerCount: 2
Fore
SplineSet
112.247 215.397 m 0,0,1
 105.146 232.972 105.146 232.972 105.146 244.927 c 0,2,3
 105.146 261.863 105.146 261.863 119.396 267.521 c 0,4,5
 126.027 270.154 126.027 270.154 138.561 270.154 c 0,6,7
 171.982 270.154 171.982 270.154 247.382 251.435 c 0,8,9
 313.208 235.092 313.208 235.092 396.904 235.092 c 0,10,11
 445.029 235.092 445.029 235.092 499.063 240.495 c 0,12,13
 647.067 255.294 647.067 255.294 692.827 304.2 c 0,14,15
 702.881 314.456 702.881 314.456 702.881 326.974 c 0,16,17
 702.881 341.161 702.881 341.161 689.967 358.254 c 0,18,19
 665.657 390.429 665.657 390.429 614.893 420.03 c 0,20,21
 494.079 490.479 494.079 490.479 356.777 498.538 c 0,22,23
 229.987 504.818 229.987 504.818 229.987 560.491 c 0,24,25
 229.987 573.26 229.987 573.26 236.657 588.627 c 0,26,27
 272.407 670.995 272.407 670.995 469.747 713.467 c 0,28,29
 571.277 736.633 571.277 736.633 727.147 860.184 c 0,30,31
 756.479 882.941 756.479 882.941 756.479 926.305 c 0,32,33
 756.479 944.248 756.479 944.248 751.457 965.72 c 0,34,35
 728.577 1066.1 728.577 1066.1 579.857 1103.43 c 0,36,37
 502.691 1122.85 502.691 1122.85 443.243 1122.85 c 0,38,39
 345.148 1122.85 345.148 1122.85 295.288 1069.96 c 0,40,41
 232.367 1004.33 232.367 1004.33 229.507 914.239 c 0,42,43
 228.077 894.935 228.077 894.935 143.707 892.359 c 0,44,45
 143.195 892.321 143.195 892.321 142.681 892.321 c 0,46,47
 125.907 892.321 125.907 892.321 105.097 932.9 c 0,48,49
 83.6465 974.729 83.6465 974.729 79.3574 1027.49 c 0,50,51
 78.7227 1037.46 78.7227 1037.46 78.7227 1047.12 c 0,52,53
 78.7227 1233.46 78.7227 1233.46 314.592 1308.71 c 0,54,55
 405.143 1337.6 405.143 1337.6 491.406 1337.6 c 0,56,57
 641.505 1337.6 641.505 1337.6 778.627 1250.14 c 0,58,59
 928.777 1153.62 928.777 1153.62 978.827 1024.28 c 0,60,61
 994.609 983.494 994.609 983.494 994.609 946.357 c 0,62,63
 994.609 865.716 994.609 865.716 920.197 802.269 c 0,64,65
 701.407 615.654 701.407 615.654 697.117 601.498 c 0,66,67
 697.007 600.933 697.007 600.933 697.007 600.336 c 0,68,69
 697.007 577.889 697.007 577.889 854.417 512.694 c 0,70,71
 947.367 474.084 947.367 474.084 963.098 331.229 c 0,72,73
 966.314 304.845 966.314 304.845 966.314 282.161 c 0,74,75
 966.314 214.111 966.314 214.111 937.357 179.362 c 0,76,77
 898.747 133.029 898.747 133.029 750.027 86.6973 c 0,78,79
 612.75 43.9297 612.75 43.9297 489.483 43.9297 c 0,80,81
 479.21 43.9297 479.21 43.9297 469.032 44.2266 c 0,82,83
 336.757 48.0889 336.757 48.0889 283.848 75.1143 c 0,84,85
 140.848 147.188 140.848 147.188 112.247 215.397 c 0,0,1
EndSplineSet
EndChar

StartChar: four
Encoding: 280 52 24
Width: 1041
VWidth: 2679
GlyphClass: 2
Flags: HW
HStem: 423.402 131.854<421.287 588.874>
VStem: 603.736 170.687<660.087 955.241> 614.748 216.151<104.245 421.512>
LayerCount: 2
Fore
SplineSet
620.688 58.1328 m 4,0,1
 614.748 62.5889 614.748 62.5889 614.748 125.926 c 4,2,3
 614.748 154.048 614.748 154.048 615.919 193.776 c 4,4,5
 616.37 209.079 616.37 209.079 616.37 223.574 c 4,6,7
 616.37 331.478 616.37 331.478 591.374 394.686 c 4,8,9
 580.018 423.402 580.018 423.402 555.57 423.402 c 4,10,11
 547.696 423.402 547.696 423.402 538.465 420.424 c 4,12,13
 500.57 408.196 500.57 408.196 341.125 393.396 c 4,14,15
 244.617 384.439 244.617 384.439 187.139 384.439 c 4,16,17
 149.654 384.439 149.654 384.439 128.77 388.249 c 4,18,19
 75.8594 397.901 75.8594 397.901 46.5449 437.799 c 4,20,21
 33.6211 455.388 33.6211 455.388 33.6211 476.979 c 4,22,23
 33.6211 504.362 33.6211 504.362 54.4092 538.184 c 4,24,25
 91.5889 598.674 91.5889 598.674 308.235 830.332 c 132,-1,26
 524.88 1061.99 524.88 1061.99 570.641 1164.95 c 132,-1,27
 616.398 1267.91 616.398 1267.91 691.474 1273.71 c 4,28,29
 695.425 1274.01 695.425 1274.01 699.232 1274.01 c 4,30,31
 767.79 1274.01 767.79 1274.01 790.144 1175.25 c 4,32,33
 801.11 1126.8 801.11 1126.8 801.11 1090.16 c 4,34,35
 801.11 1047.97 801.11 1047.97 786.568 1021.45 c 4,36,37
 774.423 999.301 774.423 999.301 774.423 952.329 c 4,38,39
 774.423 894.229 774.423 894.229 793.005 798.158 c 4,40,41
 826.61 624.412 826.61 624.412 868.08 624.412 c 4,42,43
 993.936 624.412 993.936 624.412 993.936 536.312 c 4,44,45
 993.936 535.323 993.936 535.323 993.92 534.323 c 4,46,47
 993.92 489.277 993.92 489.277 866.648 435.223 c 4,48,49
 830.898 419.78 830.898 419.78 830.898 119.908 c 5,50,51
 759.398 101.892 759.398 101.892 694.335 76.7949 c 4,52,53
 642.55 56.8193 642.55 56.8193 626.544 56.8193 c 4,54,55
 622.439 56.8193 622.439 56.8193 620.688 58.1328 c 4,0,1
585 578.5 m 4,56,57
 603.735 731.061 603.735 731.061 603.735 821.901 c 4,58,59
 603.735 951.677 603.735 951.677 565.5 955.5 c 4,60,61
 564.977 955.527 564.977 955.527 564.451 955.527 c 4,62,63
 521.342 955.527 521.342 955.527 466.639 772.417 c 4,64,65
 462.563 758.482 462.563 758.482 402.289 635.998 c 4,66,67
 401.841 635.085 401.841 635.085 401.841 634.018 c 4,68,69
 401.841 622.765 401.841 622.765 451.624 594.17 c 4,70,71
 522.708 555.256 522.708 555.256 556.036 555.256 c 4,72,73
 581.794 555.256 581.794 555.256 585 578.5 c 4,56,57
EndSplineSet
EndChar

StartChar: five
Encoding: 281 53 25
Width: 750
VWidth: 2680
GlyphClass: 2
Flags: HW
VStem: 41.294 184.436<747.907 1089.82> 534.347 170.098<481.794 734.44>
LayerCount: 2
Fore
SplineSet
153.967 58.5508 m 4,0,1
 153.942 61.7021 153.942 61.7021 153.942 64.8018 c 4,2,3
 153.942 241.506 153.942 241.506 234.047 252.889 c 4,4,5
 408.506 276.055 408.506 276.055 471.427 367.432 c 132,-1,6
 534.347 458.809 534.347 458.809 534.347 587.509 c 4,7,8
 534.347 599.279 534.347 599.279 451.405 631.267 c 4,9,10
 451.017 631.416 451.017 631.416 450.502 631.416 c 4,11,12
 437.738 631.416 437.738 631.416 347.072 539.474 c 4,13,14
 252.75 443.822 252.75 443.822 161.117 416.337 c 4,15,16
 139.397 409.822 139.397 409.822 128.992 409.822 c 4,17,18
 120.897 409.822 120.897 409.822 119.646 413.763 c 4,19,20
 105.347 453.661 105.347 453.661 95.3369 539.89 c 132,-1,21
 85.3262 626.119 85.3262 626.119 62.4473 768.976 c 4,22,23
 41.2939 901.149 41.2939 901.149 41.2939 999.098 c 4,24,25
 41.2939 1132.91 41.2939 1132.91 80.7715 1202.85 c 4,26,27
 149.147 1323.97 149.147 1323.97 381.337 1332.68 c 4,28,29
 449.977 1335.26 449.977 1335.26 570.097 1372.58 c 4,30,31
 632.352 1391.97 632.352 1391.97 665.79 1391.97 c 4,32,33
 704.591 1391.97 704.591 1391.97 704.591 1365.86 c 4,34,35
 704.591 1360.71 704.591 1360.71 703.087 1354.56 c 5,36,-1
 732.55 1301.56 l 5,37,38
 732.55 1256.51 732.55 1256.51 703.087 1198.83 c 4,39,40
 699.077 1191.48 699.077 1191.48 488.012 1152.04 c 132,-1,41
 276.947 1112.61 276.947 1112.61 247.632 1079.79 c 4,42,43
 225.73 1055.27 225.73 1055.27 225.73 969.669 c 4,44,45
 225.73 940.691 225.73 940.691 228.241 904.713 c 4,46,47
 238.165 762.458 238.165 762.458 262.561 748.343 c 4,48,49
 266.497 746.064 266.497 746.064 272.238 746.064 c 4,50,51
 302.07 746.064 302.07 746.064 380.622 807.586 c 4,52,53
 474.287 880.943 474.287 880.943 566.521 890.598 c 4,54,55
 578.766 891.879 578.766 891.879 589.762 891.879 c 4,56,57
 661.603 891.879 661.603 891.879 680.205 837.187 c 4,58,59
 704.445 761.267 704.445 761.267 704.445 707.614 c 4,60,61
 704.445 679.748 704.445 679.748 697.906 657.889 c 4,62,63
 678.776 593.944 678.776 593.944 674.486 543.751 c 4,64,65
 631.587 121.614 631.587 121.614 412.797 80.4297 c 4,66,67
 225.467 45.6816 225.467 45.6816 208.306 35.3857 c 4,68,69
 187.928 22.3535 187.928 22.3535 175.191 22.3535 c 4,70,71
 153.967 22.3535 153.967 22.3535 153.967 58.5508 c 4,0,1
EndSplineSet
EndChar

StartChar: six
Encoding: 282 54 26
Width: 1144
VWidth: 2680
GlyphClass: 2
Flags: HW
HStem: 28.8424 205.366<288.24 574.223> 529.862 207.501<692.905 930.6>
VStem: 31.167 253.569<257.512 474.662> 932.975 148.781<402.386 517.802>
LayerCount: 2
Fore
SplineSet
430.3 429 m 20,0,1
 284.736 316.114 284.736 316.114 284.736 280.961 c 4,2,3
 284.736 276.297 284.736 276.297 287.3 273 c 4,4,5
 317.471 234.209 317.471 234.209 408.378 234.209 c 4,6,7
 472.486 234.209 472.486 234.209 566.8 253.5 c 12,8,9
 697.557 280.246 697.557 280.246 859.3 390 c 20,10,11
 932.975 439.994 932.975 439.994 932.975 485.133 c 4,12,13
 932.975 492.889 932.975 492.889 930.8 500.5 c 12,14,15
 925.17 520.208 925.17 520.208 820.3 526.5 c 20,16,17
 764.26 529.861 764.26 529.861 720.387 529.861 c 4,18,19
 645.25 529.861 645.25 529.861 605.8 520 c 12,20,21
 519.976 498.544 519.976 498.544 430.3 429 c 20,0,1
703.3 1293.5 m 4,22,23
 736.654 1321.74 736.654 1321.74 768.009 1321.74 c 4,24,25
 826.936 1321.74 826.936 1321.74 878.8 1222 c 4,26,27
 878.996 1221.62 878.996 1221.62 878.996 1221.1 c 4,28,29
 878.996 1209.83 878.996 1209.83 787.8 1131 c 4,30,31
 509.567 890.493 509.567 890.493 495.439 890.493 c 4,32,-1
 495.3 890.5 l 12,33,-1
 261.3 604.5 l 28,34,-1
 261.3 533 l 28,35,-1
 462.8 604.5 l 28,36,-1
 690.3 728 l 20,37,38
 773.812 737.362 773.812 737.362 837.93 737.362 c 4,39,40
 1010.55 737.362 1010.55 737.362 1042.6 669.5 c 4,41,42
 1081.76 586.582 1081.76 586.582 1081.76 514.406 c 4,43,44
 1081.76 363.818 1081.76 363.818 911.3 260 c 4,45,46
 531.771 28.8428 531.771 28.8428 318.928 28.8428 c 4,47,48
 192.422 28.8428 192.422 28.8428 124.8 110.5 c 4,49,50
 31.167 223.566 31.167 223.566 31.167 362.562 c 4,51,52
 31.167 734.967 31.167 734.967 703.3 1293.5 c 4,22,23
EndSplineSet
EndChar

StartChar: seven
Encoding: 283 55 27
Width: 984
VWidth: 2679
GlyphClass: 2
Flags: HW
HStem: 1255 26G<883.633 917.596>
VStem: 399.151 242.567<66.2311 363.282> 816.178 147.837<1207.89 1278.59>
LayerCount: 2
Fore
SplineSet
408.628 34.6963 m 0,0,1
 399.15 52.8555 399.15 52.8555 399.15 88.0166 c 0,2,3
 399.15 217.317 399.15 217.317 527.317 576.522 c 0,4,5
 663.508 957.721 663.508 957.721 663.508 988.712 c 0,6,7
 663.508 990.262 663.508 990.262 663.168 990.937 c 0,8,9
 660.062 997.574 660.062 997.574 644.525 997.574 c 0,10,11
 602.821 997.574 602.821 997.574 471.548 949.753 c 0,12,13
 394.328 927.874 394.328 927.874 285.647 893.126 c 0,14,15
 247.038 881.542 247.038 881.542 149.798 839.07 c 0,16,17
 117.22 825.434 117.22 825.434 94.6768 825.434 c 0,18,19
 44.0352 825.434 44.0352 825.434 44.0352 894.256 c 0,20,21
 44.0352 910.447 44.0352 910.447 46.8379 930.447 c 0,22,23
 53.9883 983.215 53.9883 983.215 138.357 1023.11 c 0,24,25
 224.157 1065.58 224.157 1065.58 424.357 1117.06 c 2,26,-1
 700.348 1189.13 l 2,27,28
 811.888 1218.74 811.888 1218.74 816.178 1250.91 c 0,29,30
 816.178 1257.35 816.178 1257.35 846.208 1268.93 c 0,31,32
 873.021 1281 873.021 1281 894.246 1281 c 0,33,34
 940.945 1281 940.945 1281 960.607 1222.6 c 0,35,36
 964.015 1212.38 964.015 1212.38 964.015 1200.62 c 0,37,38
 964.015 1167.97 964.015 1167.97 937.728 1123.5 c 0,39,40
 819.038 922.726 819.038 922.726 804.737 820.409 c 128,-1,41
 790.438 718.093 790.438 718.093 721.798 473.562 c 128,-1,42
 653.157 229.032 653.157 229.032 641.718 176.267 c 0,43,44
 621.697 81.0273 621.697 81.0273 530.178 20.5381 c 0,45,46
 492.681 -4.62891 492.681 -4.62891 464.504 -4.62891 c 0,47,48
 429.283 -4.62891 429.283 -4.62891 408.628 34.6963 c 0,0,1
EndSplineSet
EndChar

StartChar: eight
Encoding: 284 56 28
Width: 1053
VWidth: 2680
GlyphClass: 2
Flags: HW
HStem: 48.5324 148.502<424.217 720.009> 608.885 186.776<523.994 612.91> 1154.31 161.593<497.376 823.976>
VStem: 88.7468 201.795<839.224 1033.7> 235.524 182.247<197.534 438.068> 697.628 190.48<880.051 1179> 884.1 140.782<329.87 554.733>
LayerCount: 2
Fore
SplineSet
442.031 403 m 16,0,1
 417.771 330.185 417.771 330.185 417.771 284.125 c 0,2,3
 417.771 232.288 417.771 232.288 448.5 214.34 c 0,4,5
 478.128 197.034 478.128 197.034 520.918 197.034 c 0,6,7
 594.511 197.034 594.511 197.034 707.033 248.224 c 8,8,9
 849.177 312.887 849.177 312.887 877.5 409.5 c 16,10,11
 884.1 432.012 884.1 432.012 884.1 452.505 c 0,12,13
 884.1 524.81 884.1 524.81 801.954 572 c 0,14,15
 737.747 608.885 737.747 608.885 674.092 608.885 c 0,16,17
 622.867 608.885 622.867 608.885 572 585 c 8,18,19
 489.814 546.409 489.814 546.409 442.031 403 c 16,0,1
296.578 975 m 16,20,21
 290.542 955.739 290.542 955.739 290.542 937.715 c 0,22,23
 290.542 869.496 290.542 869.496 377 819 c 0,24,25
 416.959 795.661 416.959 795.661 462.443 795.661 c 0,26,27
 509.104 795.661 509.104 795.661 561.579 820.224 c 8,28,29
 653.559 863.278 653.559 863.278 682.5 962 c 16,30,31
 697.628 1013.6 697.628 1013.6 697.628 1052.18 c 0,32,33
 697.628 1115.79 697.628 1115.79 656.5 1144 c 0,34,35
 641.471 1154.31 641.471 1154.31 616.448 1154.31 c 0,36,37
 564.074 1154.31 564.074 1154.31 467.915 1109.15 c 8,38,39
 316.309 1037.97 316.309 1037.97 296.578 975 c 16,20,21
91.1104 927.688 m 8,40,41
 127.516 1051.58 127.516 1051.58 273 1144.75 c 24,42,43
 477.479 1275.69 477.479 1275.69 685.99 1308.63 c 16,44,45
 731.969 1315.9 731.969 1315.9 767.354 1315.9 c 0,46,47
 880.598 1315.9 880.598 1315.9 885.361 1241.5 c 0,48,49
 888.107 1198.6 888.107 1198.6 888.107 1159.41 c 0,50,51
 888.107 853.029 888.107 853.029 720.311 772.605 c 8,52,-1
 877.5 669.5 l 16,53,54
 1024.88 544.669 1024.88 544.669 1024.88 514.78 c 0,55,-1
 1024.88 514.638 l 8,56,57
 1022.61 323.467 1022.61 323.467 871.891 197.316 c 24,58,59
 695.232 49.458 695.232 49.458 468 48.5381 c 16,60,61
 466.535 48.5322 466.535 48.5322 465.079 48.5322 c 0,62,63
 236.476 48.5322 236.476 48.5322 235.54 194.742 c 0,64,65
 235.523 197.503 235.523 197.503 235.523 200.237 c 0,66,67
 235.523 442.652 235.523 442.652 370.5 500.5 c 8,68,-1
 397.104 585 l 24,69,-1
 237.685 691.524 l 24,70,71
 157.385 745.706 157.385 745.706 156.271 747.5 c 16,72,73
 88.7471 856.296 88.7471 856.296 88.7471 909.659 c 0,74,75
 88.7471 919.645 88.7471 919.645 91.1104 927.688 c 8,40,41
EndSplineSet
EndChar

StartChar: nine
Encoding: 285 57 29
Width: 882
VWidth: 2680
GlyphClass: 2
Flags: HW
HStem: 683.445 164.039<163.062 542.304> 1126.37 182.806<363.844 573.667>
VStem: -7.00908 165.006<870.002 991.576> 586.266 249.725<917.045 1122.66> 680.121 196.069<62.3174 787.895> 680.121 155.87<498.814 552.673 560.514 794.802>
LayerCount: 2
Fore
SplineSet
688.701 560.143 m 6,0,1
 687.271 571.727 687.271 571.727 682.98 624.492 c 6,2,-1
 680.121 688.843 l 6,3,4
 678.691 739.037 678.691 739.037 669.396 772.498 c 4,5,6
 663.199 794.807 663.199 794.807 654.142 794.807 c 4,7,8
 649.614 794.807 649.614 794.807 644.371 789.229 c 4,9,10
 592.891 737.75 592.891 737.75 388.401 690.131 c 4,11,12
 358.687 683.445 358.687 683.445 325.789 683.445 c 4,13,14
 232.029 683.445 232.029 683.445 112.41 737.75 c 4,15,16
 33.7607 773.786 33.7607 773.786 5.16113 854.224 c 4,17,18
 -7.00879 888.452 -7.00879 888.452 -7.00879 922.564 c 4,19,20
 -7.00879 968.615 -7.00879 968.615 15.1709 1014.46 c 4,21,22
 46.6309 1078.8 46.6309 1078.8 253.266 1193.99 c 132,-1,23
 459.901 1309.18 459.901 1309.18 545.701 1309.18 c 260,24,25
 631.501 1309.18 631.501 1309.18 733.031 1286.01 c 4,26,27
 804.531 1270.57 804.531 1270.57 819.546 1242.9 c 132,-1,28
 834.561 1215.23 834.561 1215.23 835.991 1098.11 c 4,29,30
 837.421 832.986 837.421 832.986 860.301 602.615 c 4,31,32
 876.189 427.678 876.189 427.678 876.189 309.412 c 4,33,34
 876.189 108.359 876.189 108.359 830.271 71.084 c 4,35,36
 788.363 37.5576 788.363 37.5576 757.124 37.5576 c 4,37,38
 702.023 37.5576 702.023 37.5576 680.121 141.868 c 4,39,40
 676.617 158.984 676.617 158.984 676.617 215.359 c 4,41,42
 676.617 320.054 676.617 320.054 688.701 560.143 c 6,0,1
475.631 875.459 m 4,43,44
 525.681 890.903 525.681 890.903 558.915 916.383 c 4,45,46
 586.267 937.352 586.267 937.352 586.267 985.517 c 4,47,48
 586.267 995.879 586.267 995.879 585 1007.5 c 4,49,50
 574.99 1109.17 574.99 1109.17 538.896 1121.66 c 4,51,52
 525.271 1126.37 525.271 1126.37 504.97 1126.37 c 4,53,54
 471.492 1126.37 471.492 1126.37 419.861 1113.55 c 4,55,56
 328.341 1091.67 328.341 1091.67 233.961 1008.02 c 4,57,58
 157.997 940.688 157.997 940.688 157.997 901.702 c 4,59,60
 157.997 892.251 157.997 892.251 162.461 884.467 c 4,61,62
 181.051 851.006 181.051 851.006 279.006 847.788 c 4,63,64
 288.248 847.484 288.248 847.484 297.494 847.484 c 4,65,66
 386.269 847.484 386.269 847.484 475.631 875.459 c 4,43,44
EndSplineSet
EndChar

StartChar: colon
Encoding: 286 58 30
Width: 465
VWidth: 2914
GlyphClass: 2
Flags: HW
HStem: 6.68619 300.338<195.809 391.495> 817.496 300.338<195.809 391.495>
VStem: 141.765 284.57<56.9856 253.301 867.795 1064.11>
LayerCount: 2
Fore
SplineSet
370.565 853.969 m 0,0,1
 328.104 817.496 328.104 817.496 291.86 817.496 c 0,2,3
 280.5 817.496 280.5 817.496 269.75 821.08 c 0,4,5
 224.705 836.094 224.705 836.094 183.235 886.858 c 128,-1,6
 141.765 937.624 141.765 937.624 141.765 973.374 c 128,-1,7
 141.765 1009.12 141.765 1009.12 203.255 1067.75 c 0,8,9
 255.777 1117.83 255.777 1117.83 300.997 1117.83 c 0,10,11
 308.718 1117.83 308.718 1117.83 316.225 1116.37 c 0,12,13
 426.335 1092.06 426.335 1092.06 426.335 967.655 c 0,14,15
 426.335 901.874 426.335 901.874 370.565 853.969 c 0,0,1
370.565 43.1592 m 0,16,17
 328.104 6.68652 328.104 6.68652 291.859 6.68652 c 0,18,19
 280.5 6.68652 280.5 6.68652 269.75 10.2695 c 0,20,21
 224.705 25.2842 224.705 25.2842 183.235 76.0488 c 128,-1,22
 141.765 126.813 141.765 126.813 141.765 162.563 c 128,-1,23
 141.765 198.313 141.765 198.313 203.255 256.943 c 0,24,25
 255.777 307.023 255.777 307.023 300.997 307.023 c 0,26,27
 308.718 307.023 308.718 307.023 316.225 305.563 c 0,28,29
 426.335 281.255 426.335 281.255 426.335 156.844 c 0,30,31
 426.335 91.0635 426.335 91.0635 370.565 43.1592 c 0,16,17
EndSplineSet
EndChar

StartChar: semicolon
Encoding: 287 59 31
Width: 542
VWidth: 2930
GlyphClass: 2
Flags: HW
HStem: 778.644 298.766<195.712 393.507>
VStem: 16.2072 123.229<-246.792 -76.1409> 107.609 204.169<42.696 243.877> 142.297 284.569<826.985 1023.97>
LayerCount: 2
Fore
SplineSet
312.466 384.873 m 0,0,1
 331.056 384.873 331.056 384.873 358.94 355.557 c 128,-1,2
 386.826 326.241 386.826 326.241 388.256 303.361 c 0,3,4
 388.345 301.662 388.345 301.662 388.345 299.935 c 0,5,6
 388.345 274.045 388.345 274.045 368.236 241.873 c 0,7,8
 346.787 207.552 346.787 207.552 346.787 197.541 c 128,-1,9
 346.787 187.531 346.787 187.531 328.912 175.377 c 128,-1,10
 311.037 163.223 311.037 163.223 311.752 153.927 c 0,11,12
 311.777 153.583 311.777 153.583 311.777 153.22 c 0,13,14
 311.777 143.759 311.777 143.759 293.877 121.037 c 0,15,16
 275.287 97.4414 275.287 97.4414 258.127 54.542 c 0,17,18
 240.966 10.2119 240.966 10.2119 226.665 -2.6582 c 0,19,20
 190.862 -34.3311 190.862 -34.3311 190.862 -71.3086 c 0,21,22
 190.862 -72.7295 190.862 -72.7295 190.915 -74.1582 c 0,23,24
 190.989 -74.8926 190.989 -74.8926 190.989 -75.6807 c 0,25,26
 190.989 -90.2568 190.989 -90.2568 165.891 -123.493 c 0,27,28
 139.437 -158.527 139.437 -158.527 139.437 -168.538 c 0,29,30
 139.437 -199.998 139.437 -199.998 86.5264 -242.898 c 0,31,32
 73.6572 -254.339 73.6572 -254.339 56.4971 -251.478 c 0,33,34
 16.207 -243.645 16.207 -243.645 16.207 -168.369 c 0,35,36
 16.207 -147.46 16.207 -147.46 19.3164 -121.348 c 0,37,38
 35.0469 27.3721 35.0469 27.3721 50.7764 38.8125 c 0,39,40
 59.3574 45.9619 59.3574 45.9619 72.2266 77.4229 c 128,-1,41
 85.0967 108.882 85.0967 108.882 99.3965 122.467 c 128,-1,42
 113.696 136.052 113.696 136.052 107.977 143.201 c 0,43,44
 107.608 143.813 107.608 143.813 107.608 144.879 c 0,45,46
 107.608 156.234 107.608 156.234 149.446 218.991 c 0,47,48
 195.205 289.062 195.205 289.062 210.937 313.373 c 0,49,50
 250.977 380.581 250.977 380.581 312.466 384.873 c 0,0,1
259.556 783.842 m 0,51,52
 223.806 795.283 223.806 795.283 183.052 846.048 c 128,-1,53
 142.297 896.812 142.297 896.812 142.297 928.272 c 0,54,55
 142.297 968.312 142.297 968.312 203.071 1027.66 c 0,56,57
 254.023 1077.41 254.023 1077.41 298.443 1077.41 c 0,58,59
 307.007 1077.41 307.007 1077.41 315.327 1075.56 c 0,60,61
 426.865 1052.68 426.865 1052.68 426.865 926.842 c 0,62,63
 426.865 861.062 426.865 861.062 370.381 813.158 c 0,64,65
 329.688 778.645 329.688 778.645 290.106 778.645 c 0,66,67
 274.747 778.645 274.747 778.645 259.556 783.842 c 0,51,52
EndSplineSet
EndChar

StartChar: less
Encoding: 288 60 32
Width: 1063
VWidth: 2919
GlyphClass: 2
Flags: HW
HStem: 78.5031 203.677<584.524 829.99> 915.678 26G<864.343 962.677>
LayerCount: 2
Fore
SplineSet
108.542 659.7 m 0,0,1
 212.933 695.45 212.933 695.45 334.482 746.931 c 0,2,3
 576.152 848.461 576.152 848.461 617.623 864.19 c 0,4,5
 812.103 941.679 812.103 941.679 916.583 941.679 c 0,6,7
 1008.77 941.679 1008.77 941.679 1030.89 881.351 c 0,8,9
 1040.72 854.867 1040.72 854.867 1040.72 832.467 c 0,10,11
 1040.72 779.877 1040.72 779.877 986.563 749.791 c 0,12,13
 946.523 728.341 946.523 728.341 683.402 675.431 c 0,14,15
 566.143 652.551 566.143 652.551 466.042 621.092 c 0,16,17
 300.163 571.042 300.163 571.042 274.424 536.721 c 0,18,19
 271.949 533.319 271.949 533.319 271.949 529.115 c 0,20,21
 271.949 513.88 271.949 513.88 304.452 488.101 c 0,22,23
 335.913 463.792 335.913 463.792 370.232 439.48 c 0,24,25
 550.413 313.642 550.413 313.642 654.802 282.181 c 0,26,27
 974.148 187.15 974.148 187.15 974.148 130.545 c 0,28,29
 974.148 113.896 974.148 113.896 946.523 100.571 c 0,30,31
 897.974 78.5029 897.974 78.5029 833.486 78.5029 c 0,32,33
 689.035 78.5029 689.035 78.5029 464.613 189.23 c 0,34,35
 -8.36816 423.136 -8.36816 423.136 -8.36816 519.235 c 0,36,37
 -8.36816 529.476 -8.36816 529.476 -2.99707 538.15 c 0,38,39
 64.2129 643.971 64.2129 643.971 108.542 659.7 c 0,0,1
EndSplineSet
EndChar

StartChar: equal
Encoding: 289 61 33
Width: 985
VWidth: 2924
GlyphClass: 2
Flags: HW
HStem: 249.453 139.194<178.354 844.142> 588.341 139.216<163.855 828.412>
VStem: 69.5665 879.858
LayerCount: 2
Fore
SplineSet
772.73 248.177 m 0,0,1
 770.943 249.453 770.943 249.453 759.715 249.453 c 0,2,3
 708.073 249.453 708.073 249.453 456.7 222.437 c 0,4,5
 252.688 200.51 252.688 200.51 167.205 200.51 c 0,6,7
 124.464 200.51 124.464 200.51 111.355 205.991 c 0,8,9
 85.2959 216.89 85.2959 216.89 85.2959 240.346 c 0,10,11
 85.2959 252.286 85.2959 252.286 92.0498 267.481 c 0,12,13
 112.07 312.526 112.07 312.526 176.42 331.116 c 0,14,15
 325.141 375.446 325.141 375.446 541.07 386.172 c 0,16,17
 590.9 388.646 590.9 388.646 635.096 388.646 c 0,18,19
 782.41 388.646 782.41 388.646 867.11 361.146 c 0,20,21
 949.425 334.421 949.425 334.421 949.425 302.9 c 0,22,23
 949.425 292.257 949.425 292.257 940.04 281.066 c 0,24,25
 895.908 219.111 895.908 219.111 845.228 219.111 c 0,26,27
 810.515 219.111 810.515 219.111 772.73 248.177 c 0,0,1
757 587.087 m 0,28,29
 755.244 588.341 755.244 588.341 744.377 588.341 c 0,30,31
 693.303 588.341 693.303 588.341 440.971 560.632 c 0,32,33
 238.394 538.386 238.394 538.386 152.684 538.386 c 0,34,35
 108.918 538.386 108.918 538.386 95.625 544.187 c 0,36,37
 69.5664 555.558 69.5664 555.558 69.5664 579.172 c 0,38,39
 69.5664 591.195 69.5664 591.195 76.3203 606.392 c 0,40,41
 96.3408 651.437 96.3408 651.437 160.69 670.026 c 0,42,43
 309.41 714.356 309.41 714.356 525.341 725.081 c 0,44,45
 575.171 727.557 575.171 727.557 619.365 727.557 c 0,46,47
 766.681 727.557 766.681 727.557 851.381 700.057 c 0,48,49
 933.695 673.331 933.695 673.331 933.695 641.81 c 0,50,51
 933.695 631.167 933.695 631.167 924.311 619.977 c 0,52,53
 880.178 558.021 880.178 558.021 829.497 558.021 c 0,54,55
 794.785 558.021 794.785 558.021 757 587.087 c 0,28,29
EndSplineSet
EndChar

StartChar: greater
Encoding: 290 62 34
Width: 1029
VWidth: 2928
GlyphClass: 2
Flags: HW
HStem: -8.96163 854.794<67.9565 208.528>
LayerCount: 2
Fore
SplineSet
882.639 594.506 m 0,0,1
 926.971 578.777 926.971 578.777 992.749 472.956 c 0,2,3
 998.37 464.242 998.37 464.242 998.37 453.871 c 0,4,5
 998.37 358.717 998.37 358.717 525.139 124.037 c 0,6,7
 257.016 -8.96191 257.016 -8.96191 116.347 -8.96191 c 0,8,9
 67.9561 -8.96191 67.9561 -8.96191 34.6494 6.77637 c 0,10,11
 -3.96387 25.542 -3.96387 25.542 -3.96387 48.2236 c 0,12,13
 -3.96387 115.42 -3.96387 115.42 334.949 216.987 c 0,14,15
 439.339 248.445 439.339 248.445 620.949 374.287 c 0,16,17
 655.271 398.596 655.271 398.596 686.73 422.905 c 0,18,19
 717.873 448.487 717.873 448.487 717.873 463.688 c 0,20,21
 717.873 468.031 717.873 468.031 715.33 471.527 c 0,22,23
 689.589 505.846 689.589 505.846 525.139 555.896 c 0,24,25
 425.039 587.355 425.039 587.355 306.349 610.237 c 0,26,27
 199.099 631.687 199.099 631.687 41.7988 687.455 c 0,28,29
 -3.37695 704.052 -3.37695 704.052 -3.37695 746.802 c 0,30,31
 -3.37695 770.357 -3.37695 770.357 10.3389 801.855 c 0,32,33
 28.7812 845.832 28.7812 845.832 117.936 845.832 c 0,34,35
 208.527 845.832 208.527 845.832 372.13 800.427 c 0,36,37
 384.999 796.137 384.999 796.137 655.271 681.737 c 0,38,39
 778.249 631.687 778.249 631.687 882.639 594.506 c 0,0,1
EndSplineSet
EndChar

StartChar: question
Encoding: 291 63 35
Width: 1105
VWidth: 2897
GlyphClass: 2
Flags: HW
HStem: -92.388 300.338<428.522 624.383> 1353.66 214.526<507.273 821.678>
VStem: 375.106 284.569<-42.0885 154.227> 406.735 187.885<322.12 538.494> 406.735 162.159<371.518 619.676> 830.905 188.651<1160.31 1424.81>
LayerCount: 2
Fore
SplineSet
751.196 1563.56 m 0,0,1
 1019.56 1509.59 1019.56 1509.59 1019.56 1340.03 c 0,2,3
 1019.56 1190.63 1019.56 1190.63 811.256 951.52 c 0,4,5
 568.895 674.717 568.895 674.717 568.895 539.007 c 0,6,7
 568.895 522.579 568.895 522.579 572.446 508.22 c 0,8,9
 594.62 418.892 594.62 418.892 594.62 369.98 c 0,10,11
 594.62 310.791 594.62 310.791 562.148 310.791 c 0,12,13
 560.887 310.791 560.887 310.791 559.574 310.881 c 0,14,15
 420.864 322.319 420.864 322.319 416.574 339.48 c 0,16,17
 406.734 384.627 406.734 384.627 406.734 427.666 c 0,18,19
 406.734 490.957 406.734 490.957 428.015 549.689 c 0,20,21
 458.046 629.77 458.046 629.77 766.925 1098.81 c 0,22,23
 830.905 1195.73 830.905 1195.73 830.905 1256.45 c 0,24,25
 830.905 1332.8 830.905 1332.8 729.746 1351.92 c 0,26,27
 720.251 1353.66 720.251 1353.66 708.691 1353.66 c 0,28,29
 596.652 1353.66 596.652 1353.66 290.736 1190.33 c 0,30,31
 283.32 1186.36 283.32 1186.36 274.632 1186.36 c 0,32,33
 236.396 1186.36 236.396 1186.36 173.475 1263.26 c 0,34,35
 172.736 1264.37 172.736 1264.37 172.736 1266.09 c 0,36,37
 172.736 1277.74 172.736 1277.74 206.364 1317.6 c 0,38,39
 236.396 1350.49 236.396 1350.49 317.906 1401.97 c 0,40,41
 405.136 1456.31 405.136 1456.31 410.855 1460.6 c 0,42,43
 473.774 1520.66 473.774 1520.66 598.186 1553.55 c 0,44,45
 654.012 1568.19 654.012 1568.19 701.054 1568.19 c 0,46,47
 727.515 1568.19 727.515 1568.19 751.196 1563.56 c 0,0,1
603.189 -55.915 m 0,48,49
 560.185 -92.3877 560.185 -92.3877 523.811 -92.3877 c 0,50,51
 512.41 -92.3877 512.41 -92.3877 501.661 -88.8047 c 0,52,53
 456.614 -73.79 456.614 -73.79 415.861 -23.0254 c 128,-1,54
 375.105 27.7393 375.105 27.7393 375.105 63.4893 c 128,-1,55
 375.105 99.2393 375.105 99.2393 435.881 157.869 c 0,56,57
 487.793 207.949 487.793 207.949 532.923 207.949 c 0,58,59
 540.629 207.949 540.629 207.949 548.136 206.489 c 0,60,61
 659.675 182.181 659.675 182.181 659.675 57.7705 c 0,62,63
 659.675 -8.01074 659.675 -8.01074 603.189 -55.915 c 0,48,49
EndSplineSet
EndChar

StartChar: at
Encoding: 292 64 36
Width: 1998
VWidth: 2910
GlyphClass: 2
Flags: HW
HStem: -287.893 167.755<708.539 1323.46> 51.4536 197.77<1344.92 1604.03> 998.439 26G<1224.97 1251.97> 1376.41 157.651<825.825 1421.28>
VStem: 151.781 179.778<218.088 768.093> 1142.89 110.778<443.347 705.498> 1744.34 135.941<420.043 950.683>
LayerCount: 2
Fore
SplineSet
1140.36 678.08 m 20,0,1
 1142.89 693.089 1142.89 693.089 1142.89 705.498 c 4,2,3
 1142.89 763.62 1142.89 763.62 1087.39 764.731 c 4,4,-1
 1087.17 764.734 l 4,5,6
 1065.63 764.734 1065.63 764.734 990.864 681.076 c 12,7,-1
 895.053 549.517 l 28,8,9
 883.099 548.968 883.099 548.968 776.364 419.385 c 28,10,-1
 701.289 314.281 l 20,11,12
 711.627 312.353 711.627 312.353 723.858 312.353 c 4,13,14
 799.974 312.353 799.974 312.353 949.452 387.075 c 12,15,16
 989.963 407.325 989.963 407.325 1040 483.6 c 28,17,18
 1130.94 622.227 1130.94 622.227 1140.36 678.08 c 20,0,1
1353.87 1344.64 m 16,19,20
 1222.2 1376.41 1222.2 1376.41 1106.7 1376.41 c 0,21,22
 752.43 1376.41 752.43 1376.41 550.217 1077.5 c 0,23,24
 331.56 754.266 331.56 754.266 331.56 452.666 c 0,25,26
 331.56 227.262 331.56 227.262 453.692 13.9424 c 8,27,28
 520.129 -102.099 520.129 -102.099 1235.9 -120.139 c 24,29,-1
 1716.38 -17.8818 l 24,30,-1
 1576.24 -150.752 l 24,31,32
 1518.58 -186.568 1518.58 -186.568 1393.6 -218.4 c 24,33,34
 1182.17 -272.249 1182.17 -272.249 1045.2 -286 c 16,35,36
 1026.35 -287.893 1026.35 -287.893 1005.41 -287.893 c 0,37,38
 943.87 -287.893 943.87 -287.893 864.305 -271.541 c 8,39,40
 744.603 -246.941 744.603 -246.941 619.06 -198.424 c 24,41,42
 423.659 -122.909 423.659 -122.909 370.752 -80.8018 c 24,43,44
 325.15 -44.5098 325.15 -44.5098 265.2 83.2002 c 24,45,46
 199.645 222.846 199.645 222.846 171.59 343.46 c 16,47,48
 151.781 428.618 151.781 428.618 151.781 534.751 c 0,49,50
 151.781 551.459 151.781 551.459 152.272 568.685 c 8,51,52
 156.285 709.492 156.285 709.492 184.281 788.906 c 24,53,54
 253.222 984.456 253.222 984.456 346.365 1119.24 c 24,55,56
 402.234 1200.08 402.234 1200.08 560.495 1333.29 c 24,57,58
 700.833 1451.41 700.833 1451.41 780.35 1484.52 c 24,59,60
 859.079 1517.31 859.079 1517.31 1035.7 1531.17 c 16,61,62
 1072.64 1534.07 1072.64 1534.07 1109 1534.07 c 0,63,64
 1183.66 1534.07 1183.66 1534.07 1255.92 1521.84 c 8,65,66
 1380.42 1500.8 1380.42 1500.8 1456.12 1460.08 c 24,67,68
 1584.54 1391.01 1584.54 1391.01 1671.33 1298.43 c 24,69,70
 1751.2 1213.23 1751.2 1213.23 1812.26 1080.17 c 24,71,72
 1868.87 956.819 1868.87 956.819 1877.13 849.939 c 16,73,74
 1880.28 809.202 1880.28 809.202 1880.28 766.008 c 0,75,76
 1880.28 647.107 1880.28 647.107 1856.4 509.6 c 8,77,78
 1824.08 323.539 1824.08 323.539 1774.55 259.35 c 24,79,80
 1654.45 103.702 1654.45 103.702 1511.17 62.1982 c 16,81,82
 1474.08 51.4531 1474.08 51.4531 1431.62 51.4531 c 0,83,84
 1340.99 51.4531 1340.99 51.4531 1225.89 100.417 c 0,85,-1
 1225.89 100.457 l 0,86,87
 1225.89 105.29 1225.89 105.29 1122.94 227.363 c 0,88,89
 1077.69 281.016 1077.69 281.016 1073.75 281.016 c 0,90,91
 1073.67 281.016 1073.67 281.016 1073.6 280.988 c 8,92,-1
 803.327 97.9482 l 16,93,94
 724.609 67.7725 724.609 67.7725 654.994 67.7734 c 0,95,96
 604.501 67.7734 604.501 67.7734 558.797 83.6484 c 8,97,98
 516.099 98.4795 516.099 98.4795 502.789 202.339 c 16,99,100
 500.837 217.576 500.837 217.576 500.837 232.865 c 0,101,102
 500.837 287.344 500.837 287.344 525.628 342.479 c 8,103,104
 576.094 454.709 576.094 454.709 660.327 552.688 c 24,105,106
 823.518 742.508 823.518 742.508 1015.68 912.5 c 24,107,108
 1094.96 982.628 1094.96 982.628 1180.85 1013.15 c 16,109,110
 1212.62 1024.44 1212.62 1024.44 1237.32 1024.44 c 0,111,112
 1266.62 1024.44 1266.62 1024.44 1285.95 1008.54 c 8,113,114
 1340.96 963.287 1340.96 963.287 1358.16 867.288 c 16,115,116
 1358.7 864.293 1358.7 864.293 1358.7 860.04 c 0,117,118
 1358.7 830.932 1358.7 830.932 1333.55 742.879 c 8,119,120
 1286.15 719.27 1286.15 719.27 1259.75 522.658 c 16,121,122
 1253.66 477.28 1253.66 477.28 1253.66 443.347 c 0,123,124
 1253.66 371.529 1253.66 371.529 1280.95 350.976 c 0,125,126
 1416.01 249.225 1416.01 249.225 1501.27 249.225 c 0,127,128
 1548.77 249.225 1548.77 249.225 1580.8 280.8 c 0,129,130
 1744.34 441.981 1744.34 441.981 1744.34 657.52 c 0,131,132
 1744.34 722.736 1744.34 722.736 1729.36 792.929 c 8,133,134
 1625.68 1279.05 1625.68 1279.05 1353.87 1344.64 c 16,19,20
EndSplineSet
EndChar

StartChar: A
Encoding: 293 65 37
Width: 1348
VWidth: 2914
GlyphClass: 2
Flags: HW
HStem: 983.91 280.843<622.545 744.713>
LayerCount: 2
Fore
SplineSet
1230.02 -130.636 m 4,0,1
 1118.48 -21.9561 1118.48 -21.9561 1102.75 35.958 c 132,-1,2
 1087.02 93.874 1087.02 93.874 1068.43 123.188 c 132,-1,3
 1049.84 152.504 1049.84 152.504 996.926 326.964 c 4,4,5
 984.057 369.864 984.057 369.864 954.741 386.308 c 4,6,7
 947.859 390.168 947.859 390.168 932.865 390.168 c 4,8,9
 883.976 390.168 883.976 390.168 748.822 349.129 c 4,10,11
 572.216 295.504 572.216 295.504 444.232 269.049 c 132,-1,12
 316.247 242.593 316.247 242.593 261.907 151.074 c 4,13,14
 164.112 -14.6328 164.112 -14.6328 96.7061 -14.6328 c 4,15,16
 57.6631 -14.6328 57.6631 -14.6328 28.8154 40.9639 c 4,17,18
 18.2393 62.1172 18.2393 62.1172 18.2393 86.0625 c 4,19,20
 18.2393 107.445 18.2393 107.445 26.6719 131.055 c 4,21,22
 40.2119 168.97 40.2119 168.97 40.2119 208.527 c 4,23,24
 40.2119 221.188 40.2119 221.188 38.8262 234.015 c 6,25,-1
 33.1064 286.924 l 5,26,-1
 91.7363 326.964 l 6,27,28
 176.107 384.164 176.107 384.164 205.422 449.229 c 132,-1,29
 234.735 514.293 234.735 514.293 283.357 599.379 c 132,-1,30
 331.976 684.464 331.976 684.464 373.447 784.564 c 132,-1,31
 414.916 884.664 414.916 884.664 438.511 919.699 c 132,-1,32
 462.107 954.732 462.107 954.732 493.565 1012.65 c 132,-1,33
 525.025 1070.56 525.025 1070.56 562.207 1117.75 c 132,-1,34
 599.386 1164.94 599.386 1164.94 611.541 1202.12 c 132,-1,35
 623.697 1239.3 623.697 1239.3 655.872 1257.18 c 4,36,37
 669.505 1264.75 669.505 1264.75 685.833 1264.75 c 4,38,39
 708.041 1264.75 708.041 1264.75 735.235 1250.74 c 4,40,41
 782.426 1226.43 782.426 1226.43 902.547 977.614 c 6,42,-1
 1024.1 724.504 l 6,43,44
 1082.73 604.383 1082.73 604.383 1115.62 569.35 c 132,-1,45
 1148.51 534.314 1148.51 534.314 1214.29 522.874 c 4,46,47
 1347.28 498.564 1347.28 498.564 1350.14 434.214 c 4,48,49
 1350.23 432.537 1350.23 432.537 1350.23 430.895 c 4,50,51
 1350.23 384.928 1350.23 384.928 1272.92 366.289 c 4,52,53
 1203.92 349.656 1203.92 349.656 1203.92 319.759 c 4,54,55
 1203.92 314.952 1203.92 314.952 1205.71 309.805 c 4,56,57
 1305.19 51.1611 1305.19 51.1611 1305.19 -32.3164 c 4,58,59
 1305.19 -44.8359 1305.19 -44.8359 1302.95 -53.417 c 4,60,61
 1276.88 -139.23 1276.88 -139.23 1248.33 -139.23 c 4,62,63
 1239.3 -139.23 1239.3 -139.23 1230.02 -130.636 c 4,0,1
427.786 428.493 m 4,64,65
 449.235 428.493 449.235 428.493 640.857 462.1 c 132,-1,66
 832.476 495.704 832.476 495.704 864.65 508.574 c 132,-1,67
 896.826 521.443 896.826 521.443 896.826 567.918 c 132,-1,68
 896.826 614.393 896.826 614.393 811.741 795.289 c 132,-1,69
 726.657 976.183 726.657 976.183 699.485 983.333 c 4,70,71
 697.294 983.91 697.294 983.91 694.867 983.91 c 4,72,73
 667.184 983.91 667.184 983.91 608.682 908.975 c 4,74,75
 545.047 827.464 545.047 827.464 529.315 781.704 c 132,-1,76
 513.586 735.943 513.586 735.943 453.525 582.218 c 4,77,78
 415.306 484.393 415.306 484.393 415.306 448.819 c 4,79,80
 415.306 428.493 415.306 428.493 427.786 428.493 c 4,64,65
EndSplineSet
EndChar

StartChar: B
Encoding: 294 66 38
Width: 1155
VWidth: 2904
GlyphClass: 2
Flags: HW
HStem: -8.10215 250.775<268.745 543.427> 1195.67 153.014<405.699 699.973>
VStem: 60.7877 201.709<373.715 434.794 522.359 1021.4> 718.843 181.884<908.077 1177.15> 975.645 176.634<383.283 604.925>
LayerCount: 2
Fore
SplineSet
512.781 742.361 m 4,0,1
 695.821 866.771 695.821 866.771 716.556 1031.22 c 4,2,3
 718.843 1049.35 718.843 1049.35 718.843 1065.49 c 4,4,5
 718.843 1195.67 718.843 1195.67 569.981 1195.67 c 4,6,7
 320.818 1195.67 320.818 1195.67 266.821 823.871 c 4,8,9
 262.497 794.102 262.497 794.102 262.497 770.07 c 4,10,11
 262.497 669.431 262.497 669.431 338.321 669.431 c 4,12,13
 408.39 669.431 408.39 669.431 512.781 742.361 c 4,0,1
148.634 49.4199 m 5,14,15
 110.941 108.528 110.941 108.528 89.501 432.051 c 4,16,17
 60.7881 865.285 60.7881 865.285 60.7881 1011.66 c 4,18,19
 60.7881 1045.59 60.7881 1045.59 62.3311 1064.11 c 4,20,21
 68.0508 1125.6 68.0508 1125.6 275.401 1237.14 c 132,-1,22
 482.752 1348.68 482.752 1348.68 591.431 1348.68 c 4,23,24
 815.939 1348.68 815.939 1348.68 870.281 1238.57 c 4,25,26
 900.727 1176.51 900.727 1176.51 900.727 1107.97 c 4,27,28
 900.727 1009.12 900.727 1009.12 837.39 896.801 c 4,29,30
 832.292 887.761 832.292 887.761 832.292 877.44 c 4,31,32
 832.292 824.565 832.292 824.565 966.09 738.071 c 4,33,34
 1107.57 646.607 1107.57 646.607 1136.26 572.191 c 4,35,36
 1152.28 530.641 1152.28 530.641 1152.28 488.489 c 4,37,38
 1152.28 402.881 1152.28 402.881 1086.21 314.791 c 4,39,40
 1019 226.131 1019 226.131 953.221 208.971 c 5,41,42
 951.79 207.541 951.79 207.541 835.961 127.461 c 4,43,44
 710.384 41.8398 710.384 41.8398 598.581 24.501 c 4,45,46
 435.668 -0.765625 435.668 -0.765625 331.547 -6.4541 c 4,47,48
 301.376 -8.10254 301.376 -8.10254 276.104 -8.10254 c 4,49,50
 214.165 -8.10254 214.165 -8.10254 181.657 1.7998 c 4,51,52
 145.857 12.707 145.857 12.707 145.857 35.6855 c 4,53,54
 145.857 42.085 145.857 42.085 148.634 49.4199 c 5,14,15
266.823 224.655 m 5,55,56
 328.505 242.674 328.505 242.674 367.253 242.674 c 4,57,58
 395.229 242.674 395.229 242.674 411.251 233.281 c 4,59,60
 472.506 199.165 472.506 199.165 545.713 199.165 c 4,61,62
 607.249 199.165 607.249 199.165 677.231 223.271 c 4,63,64
 823.329 273.597 823.329 273.597 924.621 390.581 c 4,65,66
 975.645 451.08 975.645 451.08 975.645 504.637 c 4,67,68
 975.645 555.893 975.645 555.893 928.911 600.791 c 4,69,70
 878.771 648.963 878.771 648.963 794.404 648.963 c 4,71,72
 663.836 648.963 663.836 648.963 451.29 533.581 c 4,73,74
 269.681 434.911 269.681 434.911 269.681 307.641 c 4,75,76
 269.681 262.378 269.681 262.378 266.823 224.655 c 5,55,56
EndSplineSet
EndChar

StartChar: C
Encoding: 295 67 39
Width: 1081
VWidth: 2906
GlyphClass: 2
Flags: HW
HStem: -15.1099 201.672<265.552 731.871> 995.94 292.943<806.636 1047.1>
VStem: 50.0132 193.913<227.334 426.085>
LayerCount: 2
Fore
SplineSet
214.581 22.1113 m 4,0,1
 50.0137 106.644 50.0137 106.644 50.0137 255.079 c 4,2,3
 50.0137 342.682 50.0137 342.682 107.331 452.54 c 4,4,5
 168.82 569.802 168.82 569.802 493.431 938.74 c 4,6,7
 801.766 1288.88 801.766 1288.88 952.004 1288.88 c 4,8,9
 1048.43 1288.88 1048.43 1288.88 1079.73 1144.66 c 4,10,11
 1092.35 1085.49 1092.35 1085.49 1092.35 1052.65 c 4,12,13
 1092.35 1025.97 1092.35 1025.97 1084.02 1016.68 c 4,14,15
 1065.43 995.94 1065.43 995.94 942.452 995.94 c 4,16,17
 769.421 995.94 769.421 995.94 507.73 692.78 c 4,18,19
 243.927 389.603 243.927 389.603 243.927 285.18 c 4,20,21
 243.927 275.829 243.927 275.829 246.042 268.071 c 4,22,23
 270.352 186.562 270.352 186.562 753.691 186.562 c 4,24,25
 925.292 186.562 925.292 186.562 986.78 174.405 c 4,26,27
 1024.55 166.939 1024.55 166.939 1024.55 153.807 c 4,28,29
 1024.55 145.561 1024.55 145.561 1009.66 135.08 c 260,30,31
 971.052 107.911 971.052 107.911 838.062 72.1611 c 260,32,33
 705.07 36.4111 705.07 36.4111 696.492 32.1221 c 4,34,35
 597.862 -15.1104 597.862 -15.1104 431.756 -15.1104 c 4,36,37
 426.873 -15.1104 426.873 -15.1104 421.931 -15.0693 c 4,38,39
 286.081 -13.6387 286.081 -13.6387 214.581 22.1113 c 4,0,1
EndSplineSet
EndChar

StartChar: D
Encoding: 296 68 40
Width: 1136
VWidth: 3205
GlyphClass: 2
Flags: HW
HStem: -4.88262 193.021<374.536 910.199> 1327.09 26G<149.51 224.827>
VStem: 919.994 196.283<198.864 481.974>
LayerCount: 2
Fore
SplineSet
219.7 1103.7 m 0,0,1
 265.114 261.217 265.114 261.217 383.5 241.8 c 16,2,3
 706.382 188.139 706.382 188.139 807.288 188.139 c 0,4,5
 829.229 188.139 829.229 188.139 840.676 190.676 c 0,6,7
 919.994 207.808 919.994 207.808 919.994 298.431 c 0,8,9
 919.994 349.909 919.994 349.909 894.4 425.1 c 8,10,11
 871.266 493.066 871.266 493.066 650 750.871 c 24,12,13
 484.523 943.673 484.523 943.673 420.542 977.206 c 0,14,-1
 219.7 1103.7 l 0,0,1
72.7998 1056.55 m 16,15,16
 70.8262 1098.75 70.8262 1098.75 70.8262 1134.94 c 0,17,18
 70.8262 1345.16 70.8262 1345.16 137.438 1352.25 c 0,19,20
 145.33 1353.09 145.33 1353.09 153.691 1353.09 c 0,21,22
 295.965 1353.09 295.965 1353.09 573.73 1109.87 c 8,23,24
 955.101 775.934 955.101 775.934 1058.2 546 c 16,25,26
 1116.28 416.475 1116.28 416.475 1116.28 295.333 c 0,27,28
 1116.28 166.312 1116.28 166.312 1050.4 46.7998 c 0,29,30
 1021.91 -4.88281 1021.91 -4.88281 850.53 -4.88281 c 0,31,32
 807.85 -4.88281 807.85 -4.88281 756.307 -1.67676 c 8,33,34
 240.932 30.374 240.932 30.374 196.002 99.9336 c 24,35,36
 111.411 230.898 111.411 230.898 72.7998 1056.55 c 16,15,16
EndSplineSet
EndChar

StartChar: E
Encoding: 297 69 41
Width: 1021
VWidth: 2908
GlyphClass: 2
Flags: HW
HStem: -23.7327 151.091<276.602 895.001> -10.8621 163.401<330.589 1021.68> 549.9 168.253<332.023 931.401> 1079.96 190.615<346.836 1004.8>
VStem: 99.1063 149.985<135.955 478.159 725.833 985.692>
LayerCount: 2
Fore
SplineSet
985.54 -10.8623 m 6,0,1
 88.9307 -23.7324 l 5,2,-1
 94.6514 409.559 l 6,3,4
 99.1064 747.007 99.1064 747.007 99.1064 887.228 c 4,5,6
 99.1064 971.126 99.1064 971.126 97.5117 984.417 c 4,7,8
 91.6484 1033.28 91.6484 1033.28 91.6484 1073.48 c 4,9,10
 91.6484 1178.74 91.6484 1178.74 131.83 1224.66 c 4,11,12
 170.998 1270.58 170.998 1270.58 438.48 1270.58 c 4,13,14
 454.216 1270.58 454.216 1270.58 470.74 1270.42 c 4,15,16
 625.157 1268.51 625.157 1268.51 779.573 1268.51 c 4,17,18
 856.817 1268.51 856.817 1268.51 934.062 1268.99 c 5,19,20
 1028.38 1208.65 1028.38 1208.65 1028.38 1166.79 c 4,21,22
 1028.38 1106.47 1028.38 1106.47 832.53 1084.52 c 4,23,24
 776.762 1078.08 776.762 1078.08 722.603 1078.08 c 4,25,26
 704.547 1078.08 704.547 1078.08 686.67 1078.8 c 4,27,28
 656.908 1079.96 656.908 1079.96 629.3 1079.96 c 4,29,30
 317.335 1079.96 317.335 1079.96 280.552 931.509 c 4,31,32
 267.681 880.027 267.681 880.027 253.381 844.277 c 4,33,34
 249.092 832.837 249.092 832.837 249.092 813.891 c 132,-1,35
 249.092 794.943 249.092 794.943 253.381 768.488 c 4,36,37
 262.532 718.152 262.532 718.152 385.167 718.152 c 4,38,39
 415.827 718.152 415.827 718.152 453.58 721.299 c 4,40,41
 571.137 731.096 571.137 731.096 660.186 731.096 c 4,42,43
 938.352 731.096 938.352 731.096 938.352 635.498 c 4,44,45
 938.352 549.894 938.352 549.894 740.622 549.894 c 4,46,-1
 737.1 549.9 l 4,47,48
 261.3 549.9 261.3 549.9 256.24 398.117 c 4,49,50
 255.283 368.654 255.283 368.654 255.283 343.088 c 4,51,52
 255.283 248.472 255.283 248.472 268.396 207.214 c 4,53,54
 293.776 127.358 293.776 127.358 330.41 127.358 c 4,55,56
 336.09 127.358 336.09 127.358 342.04 129.277 c 4,57,58
 380.651 140.717 380.651 140.717 625.181 147.867 c 4,59,60
 802.702 152.539 802.702 152.539 897.998 152.539 c 4,61,62
 1006.9 152.539 1006.9 152.539 1008.42 146.438 c 4,63,64
 1029.31 62.8486 1029.31 62.8486 1041.31 42.0479 c 4,65,66
 1049.02 28.6953 1049.02 28.6953 1049.02 18.71 c 4,67,68
 1049.02 -9.95117 1049.02 -9.95117 985.54 -10.8623 c 6,0,1
EndSplineSet
EndChar

StartChar: F
Encoding: 298 70 42
Width: 872
VWidth: 2908
GlyphClass: 2
Flags: HW
HStem: 476.52 179.257<299.474 676.368> 1082.81 182.628<289.203 785.425>
VStem: 70.6928 188.847<693.372 1054.12>
LayerCount: 2
Fore
SplineSet
282.217 476.513 m 4,0,1
 281.902 476.521 281.902 476.521 281.592 476.521 c 4,2,3
 259.54 476.521 259.54 476.521 259.54 437.824 c 4,4,5
 259.54 375.615 259.54 375.615 316.537 213.391 c 4,6,7
 347.436 124.192 347.436 124.192 347.436 68.5068 c 4,8,9
 347.436 -12.3945 347.436 -12.3945 282.217 -22.5586 c 4,10,11
 262.457 -25.6787 262.457 -25.6787 245.392 -25.6787 c 4,12,13
 168.597 -25.6787 168.597 -25.6787 146.367 37.502 c 4,14,15
 117.767 116.152 117.767 116.152 87.7373 626.662 c 4,16,17
 70.6924 905.047 70.6924 905.047 70.6924 1033.26 c 4,18,19
 70.6924 1130.95 70.6924 1130.95 80.5869 1141.46 c 4,20,21
 157.807 1228.69 157.807 1228.69 452.198 1257.2 c 4,22,23
 537.329 1265.44 537.329 1265.44 600.712 1265.44 c 4,24,25
 756.515 1265.44 756.515 1265.44 780.91 1215.63 c 5,26,27
 874.865 1107.54 874.865 1107.54 874.865 1072.64 c 4,28,29
 874.865 1056 874.865 1056 853.501 1056 c 4,30,31
 848.528 1056 848.528 1056 842.4 1056.9 c 4,32,33
 651.224 1082.81 651.224 1082.81 521.55 1082.81 c 4,34,35
 381.998 1082.81 381.998 1082.81 313.677 1052.8 c 4,36,37
 271.814 1034.3 271.814 1034.3 271.814 907.171 c 4,38,39
 271.814 853.208 271.814 853.208 279.357 779.672 c 4,40,41
 292.064 655.777 292.064 655.777 429.452 655.777 c 4,42,43
 477.594 655.777 477.594 655.777 541.046 670.99 c 4,44,45
 621.916 690.715 621.916 690.715 678.131 690.715 c 4,46,47
 784.937 690.715 784.937 690.715 802.737 619.513 c 4,48,49
 805.423 609.038 805.423 609.038 805.423 599.326 c 4,50,51
 805.423 475.416 805.423 475.416 368.305 475.416 c 4,52,53
 327.194 475.416 327.194 475.416 282.217 476.513 c 4,0,1
EndSplineSet
EndChar

StartChar: G
Encoding: 299 71 43
Width: 1093
VWidth: 2922
GlyphClass: 2
Flags: HW
HStem: 377.876 210.21<434.03 807.28> 945.522 251.988<657.335 918.979> 988.389 209.122<561.28 878.722>
VStem: 105.963 138.103<297.352 636.473> 898.18 187.234<-208.075 21.379>
LayerCount: 2
Fore
SplineSet
975.464 -244.174 m 0,0,1
 945.071 -249.57 945.071 -249.57 944.004 -249.896 c 0,2,3
 915.404 -209.855 915.404 -209.855 913.976 -208.424 c 0,4,5
 898.181 -197.437 898.181 -197.437 898.181 -168.334 c 0,6,7
 898.181 -143.497 898.181 -143.497 909.686 -105.464 c 0,8,9
 930.576 -36.3984 930.576 -36.3984 930.576 23.2451 c 0,10,11
 930.576 55.9375 930.576 55.9375 924.3 85.7998 c 0,12,13
 916.383 125.503 916.383 125.503 885.821 125.503 c 0,14,15
 864.021 125.503 864.021 125.503 830.7 105.3 c 0,16,17
 793.564 82.8291 793.564 82.8291 636.741 43.1602 c 0,18,19
 535.765 17.6182 535.765 17.6182 456.339 17.6182 c 0,20,21
 360.769 17.6182 360.769 17.6182 296.4 54.5996 c 0,22,23
 105.963 162.153 105.963 162.153 105.963 442.022 c 0,24,25
 105.963 520.403 105.963 520.403 120.9 612.3 c 0,26,27
 178.559 961.481 178.559 961.481 507 1115.4 c 0,28,29
 682.211 1197.51 682.211 1197.51 803.944 1197.51 c 0,30,31
 832.551 1197.51 832.551 1197.51 858.204 1192.98 c 0,32,33
 932.564 1180.1 932.564 1180.1 952.585 1009.93 c 0,34,35
 953.953 998.798 953.953 998.798 953.953 989.439 c 0,36,37
 953.953 940.2 953.953 940.2 916.097 940.2 c 0,38,39
 910.452 940.2 910.452 940.2 903.964 941.295 c 0,40,41
 874.113 946.335 874.113 946.335 854.581 946.335 c 0,42,43
 847.045 946.335 847.045 946.335 841.044 945.585 c 0,44,45
 840.173 945.522 840.173 945.522 839.171 945.522 c 0,46,47
 817.108 945.522 817.108 945.522 730.936 975.616 c 0,48,49
 692.913 988.389 692.913 988.389 656.187 988.389 c 0,50,51
 516.11 988.389 516.11 988.389 394.886 802.585 c 0,52,53
 244.065 571.862 244.065 571.862 244.065 450.468 c 0,54,55
 244.065 418.166 244.065 418.166 254.744 393.604 c 2,56,-1
 297.645 294.937 l 1,57,-1
 463.525 223.437 l 2,58,59
 523.533 197.57 523.533 197.57 579.408 197.57 c 0,60,61
 666.644 197.57 666.644 197.57 743.804 260.616 c 0,62,63
 809.198 314.904 809.198 314.904 809.198 357.666 c 0,64,65
 809.198 368.116 809.198 368.116 805.294 377.876 c 0,66,67
 803.131 383.287 803.131 383.287 559.335 399.326 c 0,68,69
 450.654 406.477 450.654 406.477 405.61 462.245 c 0,70,71
 387.983 484.068 387.983 484.068 387.983 503.702 c 0,72,73
 387.983 534.244 387.983 534.244 430.636 559.486 c 0,74,75
 477.825 588.086 477.825 588.086 692.325 588.086 c 0,76,77
 984.006 588.086 984.006 588.086 1011.21 538.036 c 0,78,79
 1037.84 489.056 1037.84 489.056 1063.92 143.911 c 0,80,81
 1072.5 25.2207 1072.5 25.2207 1078.22 -146.379 c 1,82,-1
 1082.51 -164.97 l 2,83,84
 1085.41 -177.549 1085.41 -177.549 1085.41 -187.971 c 0,85,86
 1085.41 -233.674 1085.41 -233.674 1029.6 -237.9 c 0,87,88
 996.819 -240.382 996.819 -240.382 975.464 -244.174 c 0,0,1
EndSplineSet
EndChar

StartChar: H
Encoding: 300 72 44
Width: 1264
VWidth: 2910
GlyphClass: 2
Flags: HW
HStem: 384.817 211.675<95.9677 218.822>
VStem: 305.048 197.337<665.382 1171.97> 313.993 232.413<-7.53997 429.929> 989.88 173.348<-131.721 83.7022 86.0681 505.97>
LayerCount: 2
Fore
SplineSet
1059.78 -158.763 m 4,0,1
 1008.3 -117.246 1008.3 -117.246 1008.3 17.127 c 4,2,3
 1008.3 21.417 1008.3 21.417 1001.15 25.708 c 4,4,5
 973.661 38.1201 973.661 38.1201 973.661 85.1641 c 4,6,7
 973.661 113.996 973.661 113.996 983.985 155.838 c 4,8,9
 989.88 178.875 989.88 178.875 989.88 217.036 c 4,10,11
 989.88 279.72 989.88 279.72 973.977 383.207 c 4,12,13
 971.871 396.913 971.871 396.913 956.8 452.4 c 4,14,15
 935.725 537.612 935.725 537.612 859.985 537.612 c 4,16,17
 841.397 537.612 841.397 537.612 819.519 532.48 c 4,18,19
 769.469 521.04 769.469 521.04 694.394 510.315 c 4,20,21
 623.584 500.199 623.584 500.199 586.429 482.43 c 6,22,-1
 553.539 466.7 l 5,23,-1
 546.405 304.558 l 6,24,25
 533.745 16.7607 533.745 16.7607 504.4 0 c 4,26,27
 455.117 -26.1729 455.117 -26.1729 414.861 -26.1729 c 4,28,29
 387.786 -26.1729 387.786 -26.1729 364.796 -14.333 c 4,30,31
 313.993 12.7627 313.993 12.7627 313.993 94.2246 c 4,32,33
 313.993 115.947 313.993 115.947 317.605 141.537 c 4,34,35
 324.279 190.155 324.279 190.155 324.279 251.165 c 4,36,37
 324.279 281.675 324.279 281.675 322.61 315.282 c 4,38,39
 317.605 416.098 317.605 416.098 303.306 430.397 c 4,40,41
 286.004 446.128 286.004 446.128 257.546 446.128 c 6,42,-1
 253.256 446.128 l 5,43,44
 159.412 384.816 159.412 384.816 123.595 384.816 c 4,45,46
 118.479 384.816 118.479 384.816 114.546 386.067 c 4,47,48
 -9.18848 425.33 -9.18848 425.33 -9.18848 455.683 c 4,49,50
 -9.18848 461.812 -9.18848 461.812 -4.14355 467.577 c 5,51,52
 164.528 596.492 164.528 596.492 207.332 596.492 c 4,53,54
 215.332 596.492 215.332 596.492 218.936 591.987 c 5,55,56
 220.367 594.848 220.367 594.848 250.396 604.857 c 4,57,58
 321.896 627.737 321.896 627.737 321.896 712.107 c 4,59,60
 321.896 806.487 321.896 806.487 309.027 952.348 c 4,61,62
 305.048 1000.1 305.048 1000.1 305.048 1037.3 c 4,63,64
 305.048 1107.04 305.048 1107.04 319.035 1139.68 c 4,65,66
 337.627 1182.58 337.627 1182.58 421.995 1202.6 c 4,67,68
 431.731 1204.82 431.731 1204.82 440.449 1204.82 c 4,69,70
 473.638 1204.82 473.638 1204.82 492.066 1172.57 c 4,71,72
 502.385 1154.51 502.385 1154.51 502.385 990.347 c 4,73,74
 502.385 972.509 502.385 972.509 502.263 952.948 c 4,75,76
 501.019 753.35 501.019 753.35 491.01 731.9 c 4,77,78
 489.349 728.578 489.349 728.578 489.349 724.828 c 4,79,80
 489.349 709.203 489.349 709.203 518.179 686.14 c 4,81,82
 549.266 661.271 549.266 661.271 580.353 661.271 c 4,83,-1
 589.679 661.83 l 5,84,85
 592.539 663.26 592.539 663.26 781.3 674.7 c 4,86,87
 879.969 680.42 879.969 680.42 915.719 711.88 c 4,88,89
 933.54 727.027 933.54 727.027 960.05 803.4 c 4,90,91
 960.429 804.553 960.429 804.553 960.429 806.852 c 4,92,93
 960.429 843.567 960.429 843.567 863.867 1172.57 c 4,94,95
 852.163 1212.44 852.163 1212.44 852.163 1245.56 c 4,96,97
 852.163 1317.08 852.163 1317.08 906.767 1357.04 c 4,98,99
 925.374 1371.51 925.374 1371.51 943.465 1371.51 c 4,100,101
 965.128 1371.51 965.128 1371.51 986.05 1350.76 c 4,102,103
 1036.1 1303.58 1036.1 1303.58 1089.01 991.835 c 4,104,105
 1106.17 890.305 1106.17 890.305 1128.33 828.814 c 132,-1,106
 1150.5 767.325 1150.5 767.325 1157.65 728 c 4,107,108
 1160.05 714.785 1160.05 714.785 1203.41 648.635 c 4,109,110
 1228.38 610.538 1228.38 610.538 1228.38 586.463 c 4,111,112
 1228.38 564.553 1228.38 564.553 1207.7 554.255 c 4,113,114
 1164.9 533.051 1164.9 533.051 1163.37 507.065 c 4,115,116
 1163.23 496.474 1163.23 496.474 1163.23 484.766 c 4,117,118
 1163.23 379.491 1163.23 379.491 1174.81 183.885 c 4,119,120
 1180.53 88.0752 1180.53 88.0752 1193.4 -23.4658 c 6,121,-1
 1200.55 -145.015 l 5,122,-1
 1161.94 -165.035 l 6,123,124
 1135.76 -178.611 1135.76 -178.611 1112.34 -178.611 c 4,125,126
 1084.04 -178.611 1084.04 -178.611 1059.78 -158.763 c 4,0,1
EndSplineSet
EndChar

StartChar: I
Encoding: 301 73 45
Width: 358
VWidth: 2904
GlyphClass: 2
Flags: HW
HStem: -0.432223 27.3G<296.712 324.288> 1326.08 26G<121.683 176.168>
VStem: 144.3 207.013<69.6225 864.609>
LayerCount: 2
Fore
SplineSet
257.352 21.3857 m 0,0,1
 144.3 102.913 144.3 102.913 144.3 214.5 c 0,2,3
 144.3 486.2 144.3 486.2 105.691 746.459 c 0,4,5
 74.0332 967.889 74.0332 967.889 74.0332 1108.36 c 0,6,7
 74.0332 1352.08 74.0332 1352.08 169.333 1352.08 c 0,8,9
 183.005 1352.08 183.005 1352.08 198.64 1347.06 c 0,10,11
 347.46 1298.89 347.46 1298.89 350.822 524.745 c 0,12,13
 351.313 411.121 351.313 411.121 351.313 325.339 c 0,14,15
 351.313 101.197 351.313 101.197 347.962 67.1455 c 0,16,17
 341.871 -0.432617 341.871 -0.432617 306.704 -0.432617 c 0,18,19
 286.722 -0.432617 286.722 -0.432617 257.352 21.3857 c 0,0,1
EndSplineSet
EndChar

StartChar: J
Encoding: 302 74 46
Width: 826
VWidth: 2902
GlyphClass: 2
Flags: HW
HStem: -10.9207 172.504<353.311 596.199>
VStem: 621.13 198.471<185.929 1017.17>
LayerCount: 2
Fore
SplineSet
514.8 1287 m 0,0,1
 609.383 1433.38 609.383 1433.38 664.881 1433.38 c 0,2,3
 714.938 1433.38 714.938 1433.38 733.2 1314.3 c 0,4,5
 819.601 749.101 819.601 749.101 819.601 431.469 c 0,6,7
 819.601 60.9004 819.601 60.9004 702 27.2998 c 0,8,9
 575.053 -10.9209 575.053 -10.9209 469.766 -10.9209 c 0,10,11
 184.783 -10.9209 184.783 -10.9209 58.5 269.1 c 0,12,-1
 214.5 370.5 l 0,13,14
 300.3 284.7 300.3 284.7 351 222.3 c 16,15,16
 397.662 161.582 397.662 161.582 470.429 161.582 c 0,17,18
 484.337 161.582 484.337 161.582 499.2 163.8 c 8,19,20
 600.322 178.893 600.322 178.893 612.3 261.3 c 16,21,22
 621.13 322.048 621.13 322.048 621.13 417.999 c 0,23,24
 621.13 577.601 621.13 577.601 596.7 834.6 c 8,25,-1
 514.8 1287 l 0,0,1
EndSplineSet
EndChar

StartChar: K
Encoding: 303 75 47
Width: 967
VWidth: 2909
GlyphClass: 2
Flags: HW
VStem: 31.9452 232.835<802.277 1218.14> 81.4061 201.405<41.3637 322.962>
LayerCount: 2
Fore
SplineSet
88.1748 248.755 m 4,0,1
 90.749 263.055 90.749 263.055 90.749 293.37 c 4,2,3
 90.749 414.633 90.749 414.633 49.5654 792.155 c 4,4,5
 31.9453 955.002 31.9453 955.002 31.9453 1060.66 c 4,6,7
 31.9453 1237 31.9453 1237 81.0254 1254.04 c 4,8,9
 110.728 1264.36 110.728 1264.36 134.309 1264.36 c 4,10,11
 191.358 1264.36 191.358 1264.36 212.585 1204 c 4,12,13
 258.345 1073.87 258.345 1073.87 264.78 936.585 c 4,14,15
 271.084 802.106 271.084 802.106 275.33 802.106 c 4,16,17
 275.418 802.106 275.418 802.106 275.505 802.165 c 4,18,19
 434.365 885.049 434.365 885.049 570.085 1032.39 c 4,20,21
 775.844 1254.83 775.844 1254.83 836.012 1254.83 c 4,22,23
 857.344 1254.83 857.344 1254.83 860.375 1226.88 c 4,24,25
 863.504 1198.42 863.504 1198.42 863.504 1172 c 4,26,27
 863.504 1013.82 863.504 1013.82 751.4 928.2 c 4,28,29
 349.68 621.216 349.68 621.216 349.68 566.286 c 4,30,31
 349.68 565.886 349.68 565.886 349.7 565.5 c 4,32,33
 354.074 496.889 354.074 496.889 721.665 278.785 c 4,34,35
 936.165 151.515 936.165 151.515 944.745 102.896 c 4,36,37
 951.884 58.4775 951.884 58.4775 951.884 26.6934 c 4,38,39
 951.884 -53.2666 951.884 -53.2666 906.704 -53.2666 c 4,40,41
 856.442 -53.2666 856.442 -53.2666 750.265 45.6953 c 4,42,43
 452.605 323.417 452.605 323.417 344.485 323.417 c 4,44,45
 282.812 323.417 282.812 323.417 282.812 233.05 c 4,46,47
 282.812 189.774 282.812 189.774 296.955 125.775 c 4,48,49
 306.643 80.7588 306.643 80.7588 306.643 49.6416 c 4,50,51
 306.643 -20.0322 306.643 -20.0322 258.078 -20.0322 c 4,52,53
 246.103 -20.0322 246.103 -20.0322 231.175 -15.7959 c 4,54,55
 81.4062 27.8379 81.4062 27.8379 81.4062 179.422 c 4,56,57
 81.4062 211.649 81.4062 211.649 88.1748 248.755 c 4,0,1
EndSplineSet
EndChar

StartChar: L
Encoding: 304 76 48
Width: 1141
VWidth: 2902
GlyphClass: 2
Flags: HW
VStem: 99.6557 234.003<213.63 897.896>
LayerCount: 2
Fore
SplineSet
70.4424 1295.28 m 20,0,1
 119.217 1354.74 119.217 1354.74 134.51 1354.74 c 4,2,3
 136.312 1354.74 136.312 1354.74 137.651 1353.91 c 12,4,5
 213.298 1307.14 213.298 1307.14 251.201 1183.52 c 28,6,7
 270.697 1119.94 270.697 1119.94 292.5 848.9 c 20,8,9
 333.658 337.229 333.658 337.229 333.658 223.74 c 4,10,11
 333.658 194.788 333.658 194.788 330.98 191.75 c 12,12,13
 341.866 179.688 341.866 179.688 923 150.278 c 28,14,15
 1009.41 140.586 1009.41 140.586 1032.2 113.1 c 20,16,17
 1052.41 88.7266 1052.41 88.7266 1052.41 35.8145 c 4,18,19
 1052.41 18.0078 1052.41 18.0078 1050.12 -3.03027 c 4,20,21
 1047.77 -24.6748 1047.77 -24.6748 1022.27 -24.6748 c 4,22,23
 1019.86 -24.6748 1019.86 -24.6748 1017.23 -24.4805 c 12,24,25
 631.91 4.0791 631.91 4.0791 612.544 29.3975 c 20,26,27
 571.676 32.5625 571.676 32.5625 534.169 32.5625 c 4,28,29
 467.179 32.5625 467.179 32.5625 410.912 22.4668 c 12,30,-1
 312.243 -24.4805 l 20,31,32
 270.848 -34.3281 270.848 -34.3281 246.179 -34.3281 c 132,-1,33
 221.511 -34.3281 221.511 -34.3281 213.572 -24.4805 c 12,34,35
 191.146 3.33887 191.146 3.33887 164.789 158.429 c 28,36,37
 161.18 179.666 161.18 179.666 127.809 480.179 c 28,38,39
 108.43 654.693 108.43 654.693 107.622 673.229 c 20,40,41
 99.6553 856.093 99.6553 856.093 99.6553 940.411 c 4,42,43
 99.6553 1007.07 99.6553 1007.07 104.635 1012.14 c 12,44,-1
 72.5498 1274.55 l 28,45,46
 70.0977 1294.86 70.0977 1294.86 70.4424 1295.28 c 20,0,1
EndSplineSet
EndChar

StartChar: M
Encoding: 305 77 49
Width: 1316
VWidth: 2914
GlyphClass: 2
Flags: HW
HStem: 519.86 211.739<697.432 771.334> 983.97 192.663<186.306 301.67>
VStem: 64.9505 219.352<47.5882 767.088> 87.7462 194.22<-12.8186 104.387> 1061.04 172.658<-135.486 1098.41>
LayerCount: 2
Fore
SplineSet
1094.21 -261.661 m 4,0,1
 1061.04 -212.937 1061.04 -212.937 1061.04 313.023 c 4,2,3
 1061.04 432.383 1061.04 432.383 1062.75 576.318 c 4,4,5
 1064.39 715.417 1064.39 715.417 1064.39 818.423 c 4,6,7
 1064.39 1056.54 1064.39 1056.54 1055.6 1101.78 c 4,8,9
 1055.61 1101.73 1055.61 1101.73 972.656 991.669 c 4,10,11
 909.779 908.238 909.779 908.238 801.056 815.777 c 4,12,13
 712.893 740.803 712.893 740.803 696.665 731.408 c 5,14,15
 696.98 731.599 696.98 731.599 697.485 731.599 c 4,16,17
 708.421 731.599 708.421 731.599 808.206 642.749 c 4,18,19
 844.361 610.611 844.361 610.611 845.386 594.129 c 4,20,-1
 845.393 593.917 l 4,21,22
 845.393 583.969 845.393 583.969 790.27 541.97 c 4,23,24
 761.251 519.859 761.251 519.859 734.122 519.859 c 4,25,26
 700.702 519.859 700.702 519.859 670.15 553.41 c 4,27,28
 643.564 582.603 643.564 582.603 427.05 800.8 c 4,29,30
 245.293 983.97 245.293 983.97 241.239 983.97 c 4,31,32
 241.147 983.97 241.147 983.97 241.147 983.874 c 4,33,-1
 241.15 983.84 l 4,34,35
 243.864 949.357 243.864 949.357 259.086 692.148 c 4,36,37
 284.302 234.978 284.302 234.978 284.302 105.61 c 4,38,39
 284.302 66.2383 284.302 66.2383 281.966 57.2295 c 4,40,41
 262.292 -24.2812 262.292 -24.2812 160.676 -24.2812 c 4,42,43
 109.196 -24.2812 109.196 -24.2812 87.7461 45.7881 c 4,44,45
 72.0166 100.129 72.0166 100.129 67.0107 571.313 c 4,46,47
 64.9502 765.319 64.9502 765.319 64.9502 886.96 c 4,48,49
 64.9502 1060.75 64.9502 1060.75 69.1562 1086.83 c 4,50,51
 81.0518 1164.05 81.0518 1164.05 156.126 1174.06 c 4,52,53
 177.147 1176.63 177.147 1176.63 195.466 1176.63 c 4,54,55
 238.208 1176.63 238.208 1176.63 266.236 1162.62 c 4,56,57
 374.916 1105.42 374.916 1105.42 406.376 1043.93 c 4,58,59
 507.519 846.24 507.519 846.24 555.082 846.24 c 4,60,61
 566.696 846.24 566.696 846.24 575.116 858.027 c 5,62,-1
 863.977 1146.89 l 5,63,64
 864.642 1150.89 864.642 1150.89 968.365 1268.44 c 4,65,66
 991.803 1295 991.803 1295 998.396 1339.94 c 4,67,68
 1005.54 1397.14 1005.54 1397.14 1124.24 1397.14 c 4,69,70
 1167.92 1397.14 1167.92 1397.14 1180.79 1358.53 c 132,-1,71
 1193.66 1319.92 1193.66 1319.92 1202.24 1136.88 c 4,72,73
 1210.81 923.809 1210.81 923.809 1217.25 879.478 c 132,-1,74
 1223.69 835.148 1223.69 835.148 1233.7 441.898 c 4,75,76
 1243.71 60.0879 1243.71 60.0879 1259.44 -25.7119 c 4,77,78
 1278.03 -125.812 1278.03 -125.812 1278.03 -135.821 c 4,79,80
 1276.67 -181.843 1276.67 -181.843 1225.12 -227.342 c 4,81,82
 1164.86 -281.412 1164.86 -281.412 1128.86 -281.412 c 4,83,84
 1107.1 -281.412 1107.1 -281.412 1094.21 -261.661 c 4,0,1
EndSplineSet
EndChar

StartChar: N
Encoding: 306 78 50
Width: 1374
VWidth: 2902
GlyphClass: 2
Flags: HW
HStem: -0.470944 27.3G<1136.41 1194.4> 1092.12 326.919<1086.95 1214.29>
VStem: 39.8849 201.265<-84.7184 402.633> 86.431 154.719<-37.7828 797.515> 1023.2 192.553<663.369 1092.12 1092.79 1386.1>
LayerCount: 2
Fore
SplineSet
59.1504 1023.75 m 0,0,1
 57.8027 1041.88 57.8027 1041.88 57.8027 1057.45 c 0,2,3
 57.8027 1151.64 57.8027 1151.64 107.149 1151.64 c 0,4,5
 131.661 1151.64 131.661 1151.64 168.35 1128.4 c 8,6,7
 226.149 1091.78 226.149 1091.78 791.7 559.65 c 24,8,9
 1169.24 204.417 1169.24 204.417 1169.35 186.55 c 24,10,-1
 1051.05 819 l 24,11,12
 1028.22 976.691 1028.22 976.691 1023.75 1192.1 c 16,13,14
 1023.2 1218.55 1023.2 1218.55 1023.2 1241.39 c 0,15,16
 1023.2 1365.36 1023.2 1365.36 1039.35 1383.2 c 0,17,18
 1071.79 1419.04 1071.79 1419.04 1102.11 1419.04 c 0,19,20
 1140.87 1419.04 1140.87 1419.04 1176.17 1360.48 c 0,21,22
 1215.75 1294.79 1215.75 1294.79 1215.75 1140.63 c 0,23,24
 1215.75 1117.32 1215.75 1117.32 1214.85 1092 c 0,25,26
 1214.47 1092.12 1214.47 1092.12 1214.11 1092.12 c 0,27,28
 1209.04 1092.12 1209.04 1092.12 1209.04 1067.32 c 0,29,30
 1209.04 993.596 1209.04 993.596 1253.85 700.7 c 0,31,32
 1367.6 94.1113 1367.6 94.1113 1367.6 82.0078 c 0,33,-1
 1367.6 81.9004 l 8,34,35
 1362.79 7.76367 1362.79 7.76367 1208.35 0 c 16,36,37
 1198.98 -0.470703 1198.98 -0.470703 1189.83 -0.470703 c 0,38,39
 1082.99 -0.470703 1082.99 -0.470703 1005.55 63.7002 c 8,40,-1
 582.4 518.7 l 16,41,42
 307.152 800.916 307.152 800.916 287.348 800.916 c 0,43,44
 286.946 800.916 286.946 800.916 286.65 800.8 c 8,45,46
 270.256 794.375 270.256 794.375 245.7 386.75 c 24,47,-1
 241.15 45.5 l 16,48,49
 184.527 -115.543 184.527 -115.543 146.843 -115.543 c 0,50,51
 142.866 -115.543 142.866 -115.543 139.1 -113.75 c 0,52,53
 39.8848 -67.8076 39.8848 -67.8076 39.8848 -37.8799 c 0,54,55
 39.8848 -34.7793 39.8848 -34.7793 40.9502 -31.8496 c 0,56,57
 86.4307 93.2236 86.4307 93.2236 86.4307 412.565 c 0,58,59
 86.4307 659.893 86.4307 659.893 59.1504 1023.75 c 0,0,1
EndSplineSet
EndChar

StartChar: O
Encoding: 307 79 51
Width: 1153
VWidth: 2910
GlyphClass: 2
Flags: HW
HStem: -1.18447 123.45<251.736 597.551> 1030.5 188.9<552.469 815.693>
VStem: 45.5876 166.209<160.605 579.566> 951.525 191.314<551.814 884.815>
LayerCount: 2
Fore
SplineSet
461.734 869.536 m 4,0,1
 231.409 539.268 231.409 539.268 227.658 516.761 c 20,2,3
 211.796 421.616 211.796 421.616 211.796 349.614 c 4,4,5
 211.796 146.5 211.796 146.5 338.024 127.533 c 4,6,7
 373.079 122.266 373.079 122.266 407.026 122.266 c 4,8,9
 663.219 122.266 663.219 122.266 856.333 422.292 c 4,10,11
 951.524 570.183 951.524 570.183 951.524 697.985 c 132,-1,12
 951.524 825.609 951.524 825.609 856.599 933.2 c 4,13,14
 770.756 1030.5 770.756 1030.5 684.462 1030.5 c 4,15,16
 573.472 1030.5 573.472 1030.5 461.734 869.536 c 4,0,1
374.4 982.8 m 4,17,18
 537.221 1219.4 537.221 1219.4 718.267 1219.4 c 4,19,20
 840.528 1219.4 840.528 1219.4 971.1 1111.5 c 4,21,22
 1142.84 969.584 1142.84 969.584 1142.84 783.077 c 4,23,24
 1142.84 629.045 1142.84 629.045 1025.7 444.6 c 4,25,26
 742.587 -1.18457 742.587 -1.18457 310.174 -1.18457 c 4,27,28
 287.885 -1.18457 287.885 -1.18457 265.2 0 c 4,29,30
 45.5879 11.4648 45.5879 11.4648 45.5879 346.348 c 4,31,32
 45.5879 414.188 45.5879 414.188 54.5996 495.3 c 12,33,34
 57.9121 525.11 57.9121 525.11 374.4 982.8 c 4,17,18
EndSplineSet
EndChar

StartChar: P
Encoding: 308 80 52
Width: 882
VWidth: 2905
GlyphClass: 2
Flags: HW
HStem: 1157.85 167.02<258.829 738.345>
VStem: 32.3129 190.586<603.353 1122.44> 749.84 177.785<892.252 1129.71>
LayerCount: 2
Fore
SplineSet
191.439 5.58594 m 0,0,1
 172.85 12.7363 172.85 12.7363 159.979 31.3262 c 0,2,3
 117.733 96.7383 117.733 96.7383 89.9082 533.256 c 0,4,5
 67.0283 892.186 67.0283 892.186 47.0078 966.546 c 0,6,7
 32.3125 1022.01 32.3125 1022.01 32.3125 1067.3 c 0,8,9
 32.3125 1156.97 32.3125 1156.97 89.9082 1206.79 c 0,10,11
 140.487 1250.53 140.487 1250.53 280.1 1285.44 c 0,12,13
 437.827 1324.87 437.827 1324.87 535.148 1324.87 c 0,14,15
 564.884 1324.87 564.884 1324.87 588.979 1321.19 c 0,16,17
 651.899 1311.18 651.899 1311.18 696.229 1311.18 c 0,18,19
 736.184 1311.18 736.184 1311.18 804.908 1272.56 c 0,20,21
 921.194 1207.22 921.194 1207.22 927.289 1068.86 c 0,22,23
 927.625 1060.44 927.625 1060.44 927.625 1052.42 c 0,24,25
 927.625 992.31 927.625 992.31 908.7 954.459 c 0,26,27
 887.25 911.559 887.25 911.559 887.25 897.259 c 0,28,29
 887.25 863.229 887.25 863.229 822.9 780 c 0,30,31
 683.406 599.581 683.406 599.581 522.6 526.5 c 0,32,33
 325.13 436.757 325.13 436.757 301.549 414.564 c 0,34,35
 289.025 402.779 289.025 402.779 289.025 373.914 c 0,36,37
 289.025 346.748 289.025 346.748 300.118 304.456 c 0,38,39
 330.51 192.783 330.51 192.783 330.51 120.935 c 0,40,41
 330.51 47.417 330.51 47.417 298.689 15.5967 c 0,42,43
 277.285 -5.80859 277.285 -5.80859 244.779 -5.80859 c 0,44,45
 221.063 -5.80859 221.063 -5.80859 191.439 5.58594 c 0,0,1
331.579 617.626 m 0,46,47
 563.239 732.026 563.239 732.026 666.199 857.865 c 0,48,49
 744.85 952.246 744.85 952.246 749.14 1018.03 c 0,50,51
 749.84 1028.68 749.84 1028.68 749.84 1038.35 c 0,52,53
 749.84 1127.27 749.84 1127.27 690.508 1132.43 c 0,54,55
 624.729 1139.58 624.729 1139.58 534.64 1153.88 c 0,56,57
 507.628 1157.85 507.628 1157.85 477.084 1157.85 c 0,58,59
 452.65 1157.85 452.65 1157.85 425.958 1155.31 c 0,60,61
 360.18 1149.59 360.18 1149.59 307.268 1135.29 c 0,62,63
 278.668 1131 278.668 1131 240.058 1078.09 c 0,64,65
 222.899 1055.21 222.899 1055.21 222.899 973.696 c 0,66,67
 222.899 837.846 222.899 837.846 242.204 717.727 c 128,-1,68
 261.508 597.606 261.508 597.606 284.39 597.606 c 0,69,70
 291.539 597.606 291.539 597.606 331.579 617.626 c 0,46,47
EndSplineSet
EndChar

StartChar: Q
Encoding: 309 81 53
Width: 1335
VWidth: 2914
GlyphClass: 2
Flags: HW
HStem: -151.109 510.845<911.352 1079.39> 1058.94 150.745<661.062 1017.9>
VStem: 14.9467 148.596<253.479 552.288> 1204.6 136.339<571.593 870.004>
LayerCount: 2
Fore
SplineSet
1072.96 958.644 m 0,0,1
 971.412 1058.94 971.412 1058.94 836.172 1058.94 c 0,2,3
 753.874 1058.94 753.874 1058.94 659.1 1021.8 c 1,4,5
 769.512 756.949 769.512 756.949 893.1 382.2 c 0,6,7
 901.523 359.736 901.523 359.736 921.18 359.736 c 0,8,9
 983.424 359.736 983.424 359.736 1158.3 585 c 0,10,11
 1204.6 645.423 1204.6 645.423 1204.6 712.641 c 0,12,13
 1204.6 825.982 1204.6 825.982 1072.96 958.644 c 0,0,1
778.125 191.384 m 0,14,15
 730.145 108.44 730.145 108.44 354.9 62.4004 c 0,16,17
 287.07 54.0771 287.07 54.0771 235.214 54.0771 c 0,18,19
 101.757 54.0771 101.757 54.0771 74.0996 109.2 c 0,20,21
 21.1982 214.638 21.1982 214.638 15.5996 312 c 0,22,23
 14.9463 323.174 14.9463 323.174 14.9463 334.687 c 0,24,25
 14.9463 592.771 14.9463 592.771 343.2 1021.8 c 0,26,27
 436.015 1143.95 436.015 1143.95 600.6 1181.7 c 0,28,29
 722.574 1209.69 722.574 1209.69 820.209 1209.69 c 0,30,31
 928.553 1209.69 928.553 1209.69 1006.93 1175.22 c 0,32,33
 1290.16 1050.67 1290.16 1050.67 1315.81 937.844 c 0,34,35
 1340.94 827.27 1340.94 827.27 1340.94 732.598 c 0,36,37
 1340.94 479.536 1340.94 479.536 1161.36 340.103 c 0,38,39
 1049.83 251.443 1049.83 251.443 1046.96 250.012 c 0,40,41
 1005.87 229.454 1005.87 229.454 1005.87 189.019 c 0,42,43
 1005.87 123.811 1005.87 123.811 1112.75 6.91211 c 0,44,45
 1143.25 -25.4385 1143.25 -25.4385 1143.25 -57.2529 c 0,46,47
 1143.25 -74.585 1143.25 -74.585 1134.2 -91.7568 c 0,48,49
 1102.9 -151.109 1102.9 -151.109 1055.88 -151.109 c 0,50,51
 1012.39 -151.109 1012.39 -151.109 955.445 -100.337 c 0,52,53
 846.83 -2.81641 846.83 -2.81641 821.025 79.8438 c 0,54,55
 785.728 191.997 785.728 191.997 778.969 191.997 c 0,56,57
 778.469 191.997 778.469 191.997 778.125 191.384 c 0,14,15
514.8 971.1 m 1,58,-1
 362.7 815.1 l 0,59,60
 328.771 781.171 328.771 781.171 212.55 541.969 c 0,61,62
 163.543 440.494 163.543 440.494 163.543 369.574 c 0,63,64
 163.543 274.256 163.543 274.256 252.071 234.131 c 0,65,66
 297.658 213.047 297.658 213.047 359.125 213.047 c 0,67,68
 390.096 213.047 390.096 213.047 425.1 218.4 c 0,69,70
 442.091 220.035 442.091 220.035 620.1 292.5 c 1,71,-1
 705.9 339.3 l 1,72,-1
 514.8 971.1 l 1,58,-1
EndSplineSet
EndChar

StartChar: R
Encoding: 310 82 54
Width: 965
VWidth: 2905
GlyphClass: 2
Flags: HW
HStem: 1157.91 156.394<291.934 700.501>
VStem: 87.4593 184.263<624.413 1146.53> 155.957 152.273<61.2295 304.6> 753.082 172.539<889.871 1103.75>
LayerCount: 2
Fore
SplineSet
209.56 2.59961 m 5,0,-1
 146.9 -3.90039 l 5,1,2
 155.957 5.15723 155.957 5.15723 155.957 58.2246 c 4,3,4
 155.957 164.361 155.957 164.361 119.729 446.55 c 4,5,6
 87.459 694.303 87.459 694.303 87.459 1005.81 c 4,7,8
 87.459 1087.9 87.459 1087.9 89.7002 1174.42 c 4,9,10
 93.2061 1306.08 93.2061 1306.08 713.7 1314.3 c 4,11,-1
 714.035 1314.3 l 4,12,13
 756.826 1314.3 756.826 1314.3 865.28 1172.73 c 4,14,15
 925.621 1093.78 925.621 1093.78 925.621 1014.67 c 4,16,17
 925.621 850.869 925.621 850.869 666.9 686.4 c 4,18,19
 502.036 581.596 502.036 581.596 502.036 500.394 c 4,20,21
 502.036 493.87 502.036 493.87 503.1 487.5 c 5,22,23
 517.315 411.251 517.315 411.251 677.82 340.341 c 4,24,25
 850.212 262.013 850.212 262.013 915.2 128.7 c 4,26,27
 940.153 77.5098 940.153 77.5098 940.153 50.042 c 4,28,29
 940.153 19.9775 940.153 19.9775 910.26 18.3291 c 4,30,31
 876.129 16.4482 876.129 16.4482 849.562 16.4482 c 4,32,33
 775.168 16.4482 775.168 16.4482 760.11 31.2002 c 4,34,35
 548.469 238.55 548.469 238.55 547.04 239.98 c 5,36,37
 507 241.41 507 241.41 466.96 300.04 c 4,38,39
 433.81 350.133 433.81 350.133 400.28 350.133 c 4,40,41
 368.723 350.133 368.723 350.133 336.83 305.76 c 4,42,43
 311.09 270.01 311.09 270.01 308.23 61.2295 c 5,44,-1
 209.56 2.59961 l 5,0,-1
308.1 618.8 m 21,45,46
 753.082 857.121 753.082 857.121 753.082 1007.4 c 4,47,48
 753.082 1079.27 753.082 1079.27 651.3 1131 c 4,49,50
 596.163 1157.91 596.163 1157.91 474.421 1157.91 c 4,51,52
 395.504 1157.91 395.504 1157.91 288.6 1146.6 c 4,53,54
 271.722 1144.75 271.722 1144.75 271.722 1090.32 c 4,55,56
 271.722 1029.93 271.722 1029.93 292.5 904.8 c 13,57,-1
 308.1 618.8 l 21,45,46
EndSplineSet
EndChar

StartChar: S
Encoding: 311 83 55
Width: 1004
VWidth: 2906
GlyphClass: 2
Flags: HW
HStem: -11.3979 165.097<218.442 618.127> 1050.31 244.53<406.065 628.323>
VStem: 20.8121 204.546<691.006 886.618> 757.852 228.423<253.14 442.814>
LayerCount: 2
Fore
SplineSet
210.6 54.5996 m 0,0,1
 210.6 153.699 210.6 153.699 348.616 153.699 c 0,2,3
 554.534 153.699 554.534 153.699 677.516 236.639 c 0,4,5
 757.852 290.49 757.852 290.49 757.852 349.854 c 0,6,7
 757.852 384.541 757.852 384.541 730.426 421.109 c 0,8,9
 691.815 472.589 691.815 472.589 440.135 486.889 c 0,10,11
 20.8125 511.299 20.8125 511.299 20.8125 715.874 c 0,12,13
 20.8125 846.869 20.8125 846.869 192.746 1051.74 c 0,14,15
 397.234 1294.84 397.234 1294.84 543.096 1294.84 c 0,16,17
 663.211 1294.84 663.211 1294.84 752.027 1220.13 c 0,18,19
 845.703 1142.65 845.703 1142.65 845.703 1079.33 c 0,20,21
 845.703 1057.52 845.703 1057.52 834.6 1037.4 c 0,22,23
 778.05 934.902 778.05 934.902 747.124 934.902 c 0,24,25
 743.925 934.902 743.925 934.902 741 936 c 0,26,27
 634.559 967.922 634.559 967.922 613.166 1013.13 c 0,28,29
 595.291 1050.31 595.291 1050.31 552.033 1050.31 c 128,-1,30
 508.775 1050.31 508.775 1050.31 440.135 1013.13 c 0,31,32
 225.357 898.216 225.357 898.216 225.357 730.646 c 0,33,34
 225.357 724.632 225.357 724.632 225.635 718.549 c 0,35,36
 227.065 687.089 227.065 687.089 521.646 644.189 c 0,37,38
 850.546 596.999 850.546 596.999 942.065 495.469 c 0,39,40
 986.274 446.775 986.274 446.775 986.274 387.459 c 0,41,42
 986.274 314.388 986.274 314.388 919.186 225.199 c 0,43,44
 813.366 86.4893 813.366 86.4893 511.982 16.2051 c 0,45,46
 393.62 -11.3975 393.62 -11.3975 321.743 -11.3975 c 0,47,48
 210.6 -11.3975 210.6 -11.3975 210.6 54.5996 c 0,0,1
EndSplineSet
EndChar

StartChar: T
Encoding: 312 84 56
Width: 1172
VWidth: 2908
GlyphClass: 2
Flags: HW
HStem: 1013.07 200.738<674.892 1156.78>
VStem: 530.38 198.771<-10.2054 738.578>
LayerCount: 2
Fore
SplineSet
530.381 47.8164 m 4,0,1
 531.278 126.835 531.278 126.835 531.278 191.943 c 4,2,3
 531.278 418.807 531.278 418.807 520.372 476.816 c 4,4,5
 487.668 650.759 487.668 650.759 434.572 958.727 c 4,6,7
 427.422 1000.2 427.422 1000.2 196.477 1015.21 c 132,-1,8
 -34.4688 1030.23 -34.4688 1030.23 -34.4688 1174.66 c 4,9,10
 -34.4688 1192.77 -34.4688 1192.77 442 1209 c 4,11,12
 578.966 1213.8 578.966 1213.8 690.379 1213.8 c 4,13,14
 1142.7 1213.8 1142.7 1213.8 1173.88 1134.62 c 4,15,16
 1181.44 1115.6 1181.44 1115.6 1181.44 1099.63 c 4,17,18
 1181.44 1015.93 1181.44 1015.93 973.681 1015.93 c 4,19,20
 704.842 1015.93 704.842 1015.93 701.98 1013.07 c 4,21,22
 670.459 978.311 670.459 978.311 670.459 906.096 c 4,23,24
 670.459 850.545 670.459 850.545 689.111 772.826 c 4,25,26
 729.151 602.656 729.151 602.656 729.151 291.632 c 132,-1,27
 729.151 -19.3936 729.151 -19.3936 666.23 -19.3936 c 4,28,29
 530.381 -19.3936 530.381 -19.3936 530.381 47.8164 c 4,0,1
EndSplineSet
EndChar

StartChar: U
Encoding: 313 85 57
Width: 1162
VWidth: 2908
GlyphClass: 2
Flags: HW
HStem: -16.1117 205.972<400.105 754.785>
VStem: 67.6064 235.002<567.46 1215.89> 939.189 182.581<454.541 976.771>
LayerCount: 2
Fore
SplineSet
980.2 280.8 m 4,0,1
 806.981 -16.1113 806.981 -16.1113 593.814 -16.1113 c 4,2,3
 409.882 -16.1113 409.882 -16.1113 196.209 204.941 c 4,4,5
 98.0391 306.458 98.0391 306.458 71.7998 831.282 c 4,6,7
 67.6064 913.204 67.6064 913.204 67.6064 980.438 c 4,8,9
 67.6064 1234.68 67.6064 1234.68 127.569 1278.87 c 4,10,11
 143.252 1290.43 143.252 1290.43 159.388 1290.43 c 4,12,13
 207.072 1290.43 207.072 1290.43 258.7 1189.5 c 4,14,15
 302.608 1104.97 302.608 1104.97 302.608 980.865 c 4,16,17
 302.608 899.902 302.608 899.902 283.92 802.1 c 4,18,19
 258.406 668.577 258.406 668.577 258.406 564.191 c 4,20,21
 258.406 312.358 258.406 312.358 406.9 230.1 c 4,22,23
 479.714 189.859 479.714 189.859 560.261 189.859 c 4,24,25
 618.088 189.859 618.088 189.859 679.9 210.6 c 4,26,27
 835.823 262.916 835.823 262.916 886.6 456.3 c 4,28,29
 939.188 656.587 939.188 656.587 939.188 782.669 c 4,30,31
 939.188 882.68 939.188 882.68 906.1 936 c 4,32,33
 840.494 1040.51 840.494 1040.51 840.494 1112.08 c 4,34,35
 840.494 1157.21 840.494 1157.21 866.58 1189.24 c 4,36,37
 935.526 1273.89 935.526 1273.89 983.993 1273.89 c 4,38,39
 1000.89 1273.89 1000.89 1273.89 1015.3 1263.6 c 4,40,41
 1121.77 1187.55 1121.77 1187.55 1121.77 746.979 c 4,42,43
 1121.77 523.465 1121.77 523.465 980.2 280.8 c 4,0,1
EndSplineSet
EndChar

StartChar: V
Encoding: 314 86 58
Width: 1292
VWidth: 2906
GlyphClass: 2
Flags: HW
LayerCount: 2
Fore
SplineSet
635.7 39 m 0,0,1
 602.75 87.8467 602.75 87.8467 538.854 160.99 c 0,2,3
 389.671 519.96 389.671 519.96 284.313 692.951 c 0,4,5
 -74.5967 1282.27 -74.5967 1282.27 134.164 1293.55 c 0,6,7
 219.964 1297.84 219.964 1297.84 270.014 1209.18 c 0,8,9
 602.977 608.824 602.977 608.824 708.402 260.958 c 1,10,11
 806.027 432.521 806.027 432.521 900.646 704.391 c 0,12,13
 1094.12 1260.3 1094.12 1260.3 1185.21 1249.22 c 0,14,15
 1307.5 1235.55 1307.5 1235.55 1251.9 1084.2 c 0,16,17
 1111.5 708.5 1111.5 708.5 780.523 50.8818 c 0,18,19
 775.271 40.5996 775.271 40.5996 756.293 23.3291 c 1,20,21
 748.143 21.2861 748.143 21.2861 709.8 11.7002 c 0,22,23
 659.1 0 659.1 0 635.7 39 c 0,0,1
EndSplineSet
EndChar

StartChar: W
Encoding: 315 87 59
Width: 1757
VWidth: 2908
GlyphClass: 2
Flags: HW
HStem: 1017.27 26G<907.767 958.682>
LayerCount: 2
Fore
SplineSet
1349.1 -20.5098 m 0,0,1
 1231.84 48.1309 1231.84 48.1309 1193.23 139.651 c 0,2,3
 1013.97 580.788 1013.97 580.788 938.688 671.611 c 2,4,-1
 900.564 717.604 l 1,5,6
 766.099 400.809 766.099 400.809 577.146 25.6182 c 1,7,8
 577.16 24.4238 577.16 24.4238 577.16 23.2637 c 0,9,10
 577.16 -0.419922 577.16 -0.419922 571.239 -9.8291 c 0,11,12
 565.029 -19.6992 565.029 -19.6992 552.285 -13.8965 c 1,13,14
 540.996 -24.4951 540.996 -24.4951 527.815 -24.4951 c 0,15,16
 509.199 -24.4951 509.199 -24.4951 486.81 -3.34863 c 0,17,18
 451.076 30.5518 451.076 30.5518 432.809 61.5166 c 1,19,20
 372.437 112.824 372.437 112.824 360.97 168.251 c 0,21,22
 280.98 554.858 280.98 554.858 229.41 671.611 c 0,23,24
 29.8652 1123.36 29.8652 1123.36 29.8652 1252.08 c 0,25,26
 29.8652 1303.38 29.8652 1303.38 61.5479 1303.38 c 0,27,28
 74.2803 1303.38 74.2803 1303.38 92.1289 1295.09 c 1,29,30
 157.183 1293.67 157.183 1293.67 194.667 1204.39 c 0,31,32
 419.769 664.573 419.769 664.573 500.5 313.95 c 1,33,34
 631.818 453.564 631.818 453.564 689.87 663.03 c 0,35,36
 750.75 882.7 750.75 882.7 764.4 937.3 c 1,37,38
 773.249 1026.05 773.249 1026.05 891.8 1041.95 c 0,39,40
 902.651 1043.27 902.651 1043.27 912.884 1043.27 c 0,41,42
 1004.48 1043.27 1004.48 1043.27 1046.5 937.3 c 0,43,44
 1267.59 376.037 1267.59 376.037 1334.01 255.027 c 1,45,46
 1334.1 257.054 1334.1 257.054 1424.15 653.25 c 0,47,48
 1564.54 1266.28 1564.54 1266.28 1642.25 1283.65 c 0,49,50
 1659.15 1287.43 1659.15 1287.43 1673.1 1287.43 c 0,51,52
 1739.09 1287.43 1739.09 1287.43 1739.09 1202.88 c 0,53,54
 1739.09 1169.83 1739.09 1169.83 1729 1123.85 c 0,55,56
 1503.41 117.65 1503.41 117.65 1434.9 29.541 c 0,57,58
 1420.69 11.2686 1420.69 11.2686 1409.36 1.46387 c 1,59,60
 1409.42 -0.442383 1409.42 -0.442383 1409.42 -2.24707 c 0,61,62
 1409.42 -34.3184 1409.42 -34.3184 1387.44 -34.3184 c 0,63,64
 1373.01 -34.3184 1373.01 -34.3184 1349.1 -20.5098 c 0,0,1
EndSplineSet
EndChar

StartChar: X
Encoding: 316 88 60
Width: 1110
VWidth: 2910
GlyphClass: 2
Flags: HW
VStem: 492.973 234.962<591.562 728.368>
LayerCount: 2
Fore
SplineSet
69.248 -61.9473 m 4,0,1
 39.8438 -55.9131 39.8438 -55.9131 39.8438 -24.5557 c 4,2,3
 39.8438 61.9717 39.8438 61.9717 263.728 341.313 c 4,4,5
 492.973 625.987 492.973 625.987 492.973 674.579 c 4,6,7
 492.973 680.019 492.973 680.019 490.1 682.5 c 4,8,9
 225.612 904.194 225.612 904.194 195.087 921.894 c 4,10,11
 39.7871 1011.94 39.7871 1011.94 39.7871 1093.45 c 4,12,13
 39.7871 1149.08 39.7871 1149.08 112.147 1200.74 c 4,14,15
 116.085 1203.36 116.085 1203.36 122.175 1203.36 c 4,16,17
 165.417 1203.36 165.417 1203.36 317.2 1071.2 c 4,18,19
 513.823 900.172 513.823 900.172 603.2 885.3 c 4,20,21
 603.292 885.28 603.292 885.28 603.398 885.28 c 4,22,23
 616.109 885.28 616.109 885.28 840.019 1169.28 c 4,24,25
 918.495 1268.51 918.495 1268.51 964.774 1268.51 c 4,26,27
 987.938 1268.51 987.938 1268.51 1003.04 1243.64 c 4,28,29
 1041.39 1180.48 1041.39 1180.48 1082.9 1123.2 c 5,30,31
 1040.97 1068.66 1040.97 1068.66 891.8 932.1 c 4,32,33
 789.055 838.04 789.055 838.04 728 666.9 c 4,34,35
 727.935 666.718 727.935 666.718 727.935 666.466 c 4,36,37
 727.935 652.842 727.935 652.842 917.237 434.264 c 4,38,39
 1067.39 262.664 1067.39 262.664 1177.5 48.1631 c 5,40,41
 1139.75 -11.5527 1139.75 -11.5527 1086.78 -11.5527 c 4,42,43
 941.367 -11.5527 941.367 -11.5527 681.287 438.554 c 4,44,45
 660.942 473.745 660.942 473.745 629.367 473.745 c 4,46,47
 549.973 473.745 549.973 473.745 399.577 251.224 c 4,48,-1
 279.458 68.1836 l 6,49,-1
 212.248 -36.2061 l 5,50,51
 160.921 -66.1455 160.921 -66.1455 108.586 -66.1455 c 4,52,53
 88.9873 -66.1455 88.9873 -66.1455 69.248 -61.9473 c 4,0,1
EndSplineSet
EndChar

StartChar: Y
Encoding: 317 89 61
Width: 898
VWidth: 2909
GlyphClass: 2
Flags: HW
VStem: 557.344 209.968<-14.1147 129.713 131.452 697.761>
LayerCount: 2
Fore
SplineSet
623.954 -17.5752 m 4,0,1
 557.344 0.830078 557.344 0.830078 557.344 52.541 c 4,2,3
 557.344 85.2012 557.344 85.2012 583.914 131.146 c 5,4,5
 567.367 140.338 567.367 140.338 567.367 231.676 c 4,6,7
 567.367 282.419 567.367 282.419 572.475 358.514 c 6,8,-1
 596.783 703.146 l 5,9,-1
 422.324 743.186 l 6,10,11
 2.24023 841.401 2.24023 841.401 2.24023 1010.12 c 4,12,13
 2.24023 1045.29 2.24023 1045.29 20.4941 1083.52 c 4,14,15
 60.4102 1166.86 60.4102 1166.86 106.328 1166.86 c 4,16,17
 154.176 1166.86 154.176 1166.86 208.539 1076.37 c 4,18,19
 315.074 899.056 315.074 899.056 551.024 887.614 c 4,20,21
 552.273 887.565 552.273 887.565 553.514 887.565 c 4,22,23
 626.08 887.565 626.08 887.565 666.854 1052.06 c 4,24,25
 706.895 1216.52 706.895 1216.52 724.055 1236.54 c 4,26,27
 752.32 1266.06 752.32 1266.06 787.208 1266.06 c 4,28,29
 831.745 1266.06 831.745 1266.06 887.074 1217.95 c 4,30,31
 903.476 1203.37 903.476 1203.37 903.476 1158.46 c 4,32,33
 903.476 1062.39 903.476 1062.39 828.444 827.556 c 4,34,35
 761.188 615.823 761.188 615.823 761.188 409.515 c 4,36,37
 761.188 378.95 761.188 378.95 762.664 348.505 c 4,38,39
 767.312 264.852 767.312 264.852 767.312 200.056 c 4,40,41
 767.312 5.66211 767.312 5.66211 725.483 -19.0049 c 4,42,43
 708.959 -27.9551 708.959 -27.9551 684.811 -27.9551 c 4,44,45
 658.804 -27.9551 658.804 -27.9551 623.954 -17.5752 c 4,0,1
EndSplineSet
EndChar

StartChar: Z
Encoding: 318 90 62
Width: 1170
VWidth: 2909
GlyphClass: 2
Flags: HW
HStem: 19.5 169.777<916.123 1076.4> 1036.55 168.932<187.928 363.103>
LayerCount: 2
Fore
SplineSet
120.003 1169.83 m 30,0,-1
94.9775 1158.1 m 29,1,-1
 187.928 1205.48 l 29,2,-1
 363.103 1214.36 l 29,3,-1
 516.828 1224.96 l 29,4,-1
 784.953 1258.9 l 29,5,-1
 960.128 1269.71 l 29,6,-1
 1074.53 1258.65 l 29,7,-1
 1131.73 1232.68 l 29,8,-1
 1145.31 1186.7 l 29,9,-1
 1103.7 1084.2 l 29,10,-1
 904.8 865.8 l 29,11,-1
 577.2 495.3 l 29,12,-1
 378.3 163.8 l 29,13,-1
 1113.66 189.277 l 29,14,-1
 1145.31 178.553 l 29,15,-1
 1167.48 124.927 l 29,16,-1
 1076.4 19.5 l 29,17,-1
 908.7 0 l 29,18,-1
 177.203 -50.248 l 29,19,-1
 85.7998 -15.5996 l 29,20,-1
 75.6729 64.8672 l 29,21,-1
 359.528 539.627 l 29,22,-1
 764.4 1049.1 l 29,23,-1
 98.5527 1036.55 l 29,24,-1
 64.6768 1086.6 l 29,25,-1
 94.9775 1158.1 l 29,1,-1
EndSplineSet
EndChar

StartChar: bracketleft
Encoding: 319 91 63
Width: 838
VWidth: 2900
GlyphClass: 2
Flags: HW
HStem: -162.12 134.269<284.233 810.414> 1395.56 181.584<236.886 755.434>
VStem: 86.1402 148.979<369.288 1406.44>
LayerCount: 2
Fore
SplineSet
98.2334 1428.61 m 12,0,1
 105.856 1551.9 105.856 1551.9 211.525 1568.75 c 20,2,3
 328.438 1577.15 328.438 1577.15 427.397 1577.15 c 4,4,5
 644.901 1577.15 644.901 1577.15 775.659 1536.57 c 4,6,7
 792.363 1531.39 792.363 1531.39 792.363 1509.51 c 4,8,9
 792.363 1477.05 792.363 1477.05 755.641 1407.87 c 4,10,11
 750.063 1395.56 750.063 1395.56 611.947 1395.56 c 4,12,13
 482.104 1395.56 482.104 1395.56 235.119 1406.44 c 4,14,-1
 246.561 -7.83203 l 28,15,-1
 792.105 -27.8506 l 20,16,17
 817.053 -31.9248 817.053 -31.9248 817.053 -63.6445 c 4,18,19
 817.053 -78.7285 817.053 -78.7285 811.41 -100.067 c 12,20,21
 795.812 -159.051 795.812 -159.051 757.069 -160.337 c 20,22,23
 703.335 -162.12 703.335 -162.12 650.451 -162.12 c 4,24,25
 398.093 -162.12 398.093 -162.12 165.051 -121.517 c 12,26,27
 114.377 -112.688 114.377 -112.688 111.583 -47.8711 c 20,28,29
 86.1406 542.36 86.1406 542.36 86.1406 951.163 c 4,30,31
 86.1406 1233 86.1406 1233 98.2334 1428.61 c 12,0,1
EndSplineSet
EndChar

StartChar: backslash
Encoding: 320 92 64
Width: 640
VWidth: 2893
GlyphClass: 2
Flags: HW
VStem: 494.654 150.173<-12.6158 206.141>
LayerCount: 2
Fore
SplineSet
494.654 0.155273 m 5,0,1
 491.794 64.5049 491.794 64.5049 468.914 123.135 c 4,2,3
 431.734 224.665 431.734 224.665 331.634 526.395 c 4,4,5
 257.273 746.614 257.273 746.614 178.624 962.545 c 4,6,7
 -11.5664 1485.93 -11.5664 1485.93 -12.9961 1487.36 c 5,8,9
 -13.1045 1487.63 -13.1045 1487.63 -13.1045 1487.97 c 4,10,11
 -13.1045 1496.51 -13.1045 1496.51 57.0742 1547.42 c 5,12,13
 67.083 1560.29 67.083 1560.29 72.8037 1564.58 c 5,14,15
 73.6621 1565 73.6621 1565 74.6309 1565 c 4,16,17
 93.0391 1565 93.0391 1565 151.454 1410.14 c 4,18,19
 182.914 1327.2 182.914 1327.2 234.394 1191.34 c 4,20,21
 365.954 848.145 365.954 848.145 437.454 625.064 c 4,22,23
 444.604 602.185 444.604 602.185 497.514 459.185 c 4,24,25
 547.563 324.765 547.563 324.765 587.604 204.645 c 4,26,27
 644.827 41.1484 644.827 41.1484 644.827 -0.271484 c 4,28,29
 644.827 -9.56934 644.827 -9.56934 641.944 -12.7158 c 4,30,31
 633.852 -23.6982 633.852 -23.6982 608.23 -23.6982 c 4,32,33
 570.475 -23.6982 570.475 -23.6982 494.654 0.155273 c 5,0,1
EndSplineSet
EndChar

StartChar: bracketright
Encoding: 321 93 65
Width: 835
VWidth: 2901
GlyphClass: 2
Flags: HW
HStem: -175.77 134.269<130.786 656.967> 1381.91 181.584<185.766 704.314>
VStem: 694.639 134.978<-21.4817 514.402> 706.081 148.979<355.644 1392.79>
LayerCount: 2
Fore
SplineSet
842.967 1414.96 m 20,0,1
 855.06 1219.36 855.06 1219.36 855.06 937.522 c 4,2,3
 855.06 528.718 855.06 528.718 829.617 -61.5215 c 12,4,5
 826.824 -126.337 826.824 -126.337 776.149 -135.168 c 20,6,7
 543.112 -175.771 543.112 -175.771 290.76 -175.771 c 4,8,9
 237.869 -175.771 237.869 -175.771 184.131 -173.986 c 12,10,11
 145.388 -172.701 145.388 -172.701 129.789 -113.717 c 20,12,13
 124.147 -92.3799 124.147 -92.3799 124.147 -77.2949 c 4,14,15
 124.147 -45.5762 124.147 -45.5762 149.095 -41.501 c 12,16,-1
 694.64 -21.4814 l 28,17,-1
 706.081 1392.79 l 4,18,19
 459.095 1381.91 459.095 1381.91 329.251 1381.91 c 4,20,21
 191.137 1381.91 191.137 1381.91 185.56 1394.22 c 4,22,23
 148.837 1463.4 148.837 1463.4 148.837 1495.86 c 4,24,25
 148.837 1517.74 148.837 1517.74 165.541 1522.92 c 4,26,27
 296.299 1563.5 296.299 1563.5 513.805 1563.5 c 4,28,29
 612.762 1563.5 612.762 1563.5 729.675 1555.1 c 12,30,31
 835.344 1538.25 835.344 1538.25 842.967 1414.96 c 20,0,1
EndSplineSet
EndChar

StartChar: asciicircum
Encoding: 322 94 66
Width: 542
VWidth: 2839
GlyphClass: 2
Flags: HW
HStem: 1113.41 27.3G<411.913 427.882> 1393.69 135.265<267.804 331.322>
VStem: 121.145 146.654<1214.32 1348> 396.5 75.1517<1119.39 1270.36>
LayerCount: 2
Fore
SplineSet
359.32 1463.76 m 0,0,1
 360.75 1460.9 360.75 1460.9 395.07 1393.69 c 0,2,3
 412.23 1357.94 412.23 1357.94 442.26 1282.15 c 0,4,5
 471.651 1205.28 471.651 1205.28 471.651 1164.15 c 0,6,7
 471.651 1127.25 471.651 1127.25 447.98 1119.13 c 0,8,9
 433.204 1113.41 433.204 1113.41 422.559 1113.41 c 0,10,11
 401.268 1113.41 401.268 1113.41 396.5 1136.29 c 0,12,13
 370.76 1247.83 370.76 1247.83 366.47 1256.41 c 0,14,15
 352.17 1286.44 352.17 1286.44 339.3 1317.9 c 0,16,17
 307.84 1392.26 307.84 1392.26 306.41 1393.69 c 0,18,19
 299.26 1397.98 299.26 1397.98 286.39 1382.25 c 0,20,21
 267.8 1357.94 267.8 1357.94 267.8 1355.08 c 256,22,23
 267.8 1352.22 267.8 1352.22 192.01 1172.04 c 0,24,25
 174.201 1128.79 174.201 1128.79 155.388 1128.79 c 0,26,27
 142.477 1128.79 142.477 1128.79 129.09 1149.16 c 0,28,29
 121.146 1160.68 121.146 1160.68 121.146 1180.7 c 0,30,31
 121.146 1232.74 121.146 1232.74 174.85 1342.21 c 0,32,33
 267.578 1528.96 267.578 1528.96 305.791 1528.96 c 0,34,35
 310.007 1528.96 310.007 1528.96 313.56 1526.68 c 0,36,37
 339.3 1509.52 339.3 1509.52 359.32 1463.76 c 0,0,1
EndSplineSet
EndChar

StartChar: underscore
Encoding: 323 95 67
Width: 1199
VWidth: 2995
GlyphClass: 2
Flags: HW
HStem: -308.75 125.775<309.045 1138.93> -304.525 97.24<56.4205 886.306>
LayerCount: 2
Fore
SplineSet
53.5605 -304.525 m 1,0,-1
 20.6709 -268.775 l 1,1,-1
 56.4209 -207.285 l 1,2,-1
 1138.93 -182.975 l 1,3,-1
 1153.75 -308.75 l 5,4,-1
 53.5605 -304.525 l 1,0,-1
EndSplineSet
EndChar

StartChar: grave
Encoding: 324 96 68
Width: 406
VWidth: 2830
GlyphClass: 2
Flags: HW
HStem: 1242.88 341.335
VStem: 86.0748 341.55
LayerCount: 2
Fore
SplineSet
427.625 1242.88 m 1,0,1
 277.475 1245.75 277.475 1245.75 273.186 1252.9 c 0,2,3
 236.005 1325.83 236.005 1325.83 165.936 1418.78 c 0,4,5
 86.0752 1520.42 86.0752 1520.42 86.0752 1542.2 c 0,6,7
 86.0752 1546.16 86.0752 1546.16 88.7148 1547.48 c 0,8,9
 154.623 1584.22 154.623 1584.22 224.611 1584.22 c 0,10,11
 247.255 1584.22 247.255 1584.22 270.324 1580.37 c 0,12,13
 294.636 1577.51 294.636 1577.51 321.805 1503.15 c 2,14,15
 420.475 1367.3 420.475 1367.3 420.475 1312.96 c 0,16,17
 420.475 1242.88 420.475 1242.88 427.625 1242.88 c 1,0,1
EndSplineSet
EndChar

StartChar: a
Encoding: 325 97 69
Width: 1010
VWidth: 2923
GlyphClass: 2
Flags: HW
HStem: -4.50303 200.979<251.399 387.1> 6.63458 253.341<799.366 958.975> 704.647 234.902<616.667 783.472>
VStem: 31.0045 217.273<196.5 300.113> 675.315 215.12<561.798 827.336>
LayerCount: 2
Fore
SplineSet
91.0645 1.86719 m 4,0,1
 31.0049 46.1982 31.0049 46.1982 31.0049 184.907 c 4,2,3
 31.0049 232.098 31.0049 232.098 68.1855 274.998 c 132,-1,4
 105.364 317.898 105.364 317.898 171.86 419.428 c 132,-1,5
 238.355 520.957 238.355 520.957 467.155 754.048 c 4,6,7
 649.546 939.549 649.546 939.549 762.094 939.549 c 4,8,9
 804.85 939.549 804.85 939.549 837.525 912.778 c 4,10,11
 890.435 868.448 890.435 868.448 890.435 786.223 c 132,-1,12
 890.435 703.998 890.435 703.998 830.375 556.707 c 4,13,14
 790.335 458.516 790.335 458.516 790.335 376.846 c 4,15,16
 790.335 336.011 790.335 336.011 800.345 299.307 c 4,17,18
 811.73 259.977 811.73 259.977 856.454 259.977 c 4,19,20
 873.52 259.977 873.52 259.977 895.439 265.703 c 4,21,22
 945.472 278.774 945.472 278.774 970.499 278.774 c 4,23,24
 985.173 278.774 985.173 278.774 991.25 274.282 c 4,25,26
 1007.7 262.128 1007.7 262.128 1007.7 199.207 c 4,27,28
 1007.7 30.4678 1007.7 30.4678 823.225 7.58789 c 4,29,30
 815.598 6.63477 815.598 6.63477 808.16 6.63477 c 4,31,32
 726.343 6.63477 726.343 6.63477 667.354 121.988 c 4,33,34
 630.175 193.488 630.175 193.488 605.865 197.778 c 4,35,36
 605.799 197.8 605.799 197.8 605.701 197.8 c 4,37,38
 599.526 197.8 599.526 197.8 469.3 108.402 c 4,39,40
 337.025 17.5986 337.025 17.5986 322.01 10.4482 c 132,-1,41
 306.995 3.29785 306.995 3.29785 206.18 -2.42188 c 4,42,43
 169.519 -4.50293 169.519 -4.50293 144.298 -4.50293 c 4,44,45
 100.165 -4.50293 100.165 -4.50293 91.0645 1.86719 c 4,0,1
248.3 296.4 m 4,46,47
 250.131 196.476 250.131 196.476 286.904 196.476 c 4,48,49
 290.806 196.476 290.806 196.476 295.1 197.6 c 4,50,51
 358.556 217.401 358.556 217.401 461.5 278.2 c 4,52,53
 565.826 338.297 565.826 338.297 622.7 514.8 c 4,54,55
 675.314 678.085 675.314 678.085 675.314 696.998 c 4,56,57
 675.314 699.042 675.314 699.042 674.7 699.4 c 4,58,59
 662.372 704.646 662.372 704.646 648.137 704.646 c 4,60,61
 577.982 704.646 577.982 704.646 461.5 577.2 c 4,62,63
 384.551 492.788 384.551 492.788 315.804 423.725 c 4,64,65
 248.278 355.884 248.278 355.884 248.278 298.471 c 4,66,67
 248.278 297.434 248.278 297.434 248.3 296.4 c 4,46,47
EndSplineSet
EndChar

StartChar: b
Encoding: 326 98 70
Width: 1032
VWidth: 2897
GlyphClass: 2
Flags: HW
VStem: 9.37422 193.426<746.209 1451.67> 65.8594 185.184<451.083 1172.01>
LayerCount: 2
Fore
SplineSet
111.8 31.8496 m 28,0,1
 126.61 -26.168 126.61 -26.168 534.185 -17.3955 c 4,2,3
 601.393 -15.9648 601.393 -15.9648 772.279 61.9697 c 132,-1,4
 943.163 139.904 943.163 139.904 977.484 187.811 c 132,-1,5
 1011.8 235.715 1011.8 235.715 1006.08 320.801 c 132,-1,6
 1000.36 405.886 1000.36 405.886 953.89 454.505 c 132,-1,7
 907.414 503.125 907.414 503.125 700.064 533.154 c 4,8,9
 488.406 563.808 488.406 563.808 416.924 524.576 c 4,10,11
 250.823 434.08 250.823 434.08 251.043 444.495 c 4,12,13
 257.734 550.833 257.734 550.833 252.85 582.4 c 4,14,15
 201.975 911.201 201.975 911.201 202.8 937.3 c 4,16,17
 218.535 1433.98 218.535 1433.98 119.484 1471.24 c 4,18,19
 60.8262 1492.66 60.8262 1492.66 38.6885 1474.1 c 132,-1,20
 16.5244 1455.51 16.5244 1455.51 9.37402 1380.43 c 4,21,22
 -0.516602 1276.58 -0.516602 1276.58 15.0938 1105.15 c 4,23,24
 65.4492 552.142 65.4492 552.142 65.8594 546.739 c 4,25,26
 82.6016 146.229 82.6016 146.229 111.8 31.8496 c 28,0,1
299.689 206.514 m 5,27,28
 549.831 350.857 549.831 350.857 614.265 345.826 c 4,29,30
 757.029 334.679 757.029 334.679 772.993 311.505 c 4,31,32
 808.44 259.777 808.44 259.777 771.55 227.5 c 4,33,34
 669.598 138.297 669.598 138.297 648.7 136.5 c 4,35,36
 534.296 130.703 534.296 130.703 531.05 128.245 c 4,37,38
 482.035 97.7256 482.035 97.7256 418.795 120.381 c 4,39,40
 348.4 145.6 348.4 145.6 299.689 206.514 c 5,27,28
EndSplineSet
EndChar

StartChar: c
Encoding: 327 99 71
Width: 841
VWidth: 2918
GlyphClass: 2
Flags: HW
HStem: 13.1396 280.688<645.047 841.448> 784.562 276.566<381.008 598.439>
VStem: 32.2816 186.779<202.431 622.916>
LayerCount: 2
Fore
SplineSet
107.858 116.099 m 6,0,1
 32.2812 217.253 32.2812 217.253 32.2812 359.395 c 4,2,3
 32.2812 488.867 32.2812 488.867 94.9873 652.349 c 4,4,5
 175.068 861.129 175.068 861.129 358.108 987.684 c 4,6,7
 464.331 1061.13 464.331 1061.13 539.25 1061.13 c 4,8,9
 593.43 1061.13 593.43 1061.13 631.237 1022.72 c 4,10,11
 680.075 971.846 680.075 971.846 685.578 832.529 c 4,12,13
 685.607 831.545 685.607 831.545 685.607 830.568 c 4,14,15
 685.607 797.009 685.607 797.009 651.95 773.5 c 4,16,17
 605.09 740.769 605.09 740.769 567.733 740.769 c 4,18,19
 538.728 740.769 538.728 740.769 515.45 760.5 c 4,20,21
 485.689 784.562 485.689 784.562 452.138 784.562 c 4,22,23
 409.921 784.562 409.921 784.562 361.704 746.464 c 4,24,25
 275.168 678.089 275.168 678.089 237.987 492.189 c 4,26,27
 219.061 395.035 219.061 395.035 219.061 329.33 c 4,28,29
 219.061 246.103 219.061 246.103 249.429 213.339 c 4,30,31
 304.139 152.55 304.139 152.55 388.395 152.55 c 4,32,33
 446.919 152.55 446.919 152.55 519.698 181.879 c 4,34,35
 615.509 220.489 615.509 220.489 725.618 273.399 c 4,36,37
 766.985 293.827 766.985 293.827 793.58 293.827 c 4,38,39
 841.448 293.827 841.448 293.827 841.448 227.639 c 4,40,41
 841.448 43.3545 841.448 43.3545 466.787 13.1396 c 6,42,-1
 200.809 -8.31055 l 5,43,-1
 107.858 116.099 l 6,0,1
EndSplineSet
EndChar

StartChar: d
Encoding: 328 100 72
Width: 880
VWidth: 2896
GlyphClass: 2
Flags: HW
VStem: 609.679 199.182<640.763 808.369>
LayerCount: 2
Fore
SplineSet
587.524 716.1 m 4,0,1
 609.68 727.695 609.68 727.695 609.68 808.368 c 4,2,3
 609.68 955.184 609.68 955.184 536.301 1330.78 c 4,4,5
 531.948 1350.56 531.948 1350.56 520.347 1497.89 c 4,6,7
 519.748 1501.41 519.748 1501.41 519.748 1504.83 c 4,8,9
 519.748 1551.68 519.748 1551.68 631.8 1581.45 c 4,10,11
 636.424 1582.72 636.424 1582.72 641.005 1582.72 c 4,12,13
 681.519 1582.72 681.519 1582.72 718.604 1483.35 c 4,14,15
 734.752 1440.8 734.752 1440.8 777.4 989.95 c 6,16,-1
 809.25 653.25 l 5,17,18
 808.861 647.562 808.861 647.562 808.861 640.764 c 4,19,20
 808.861 589.277 808.861 589.277 831.129 474.007 c 6,21,-1
 888.23 178.424 l 5,22,-1
 900.91 53.0527 l 5,23,-1
 856.32 25.5938 l 6,24,25
 833.725 11.6797 833.725 11.6797 804.383 11.6797 c 4,26,27
 800.639 11.6797 800.639 11.6797 796.784 11.9053 c 4,28,29
 728.263 15.9365 728.263 15.9365 723.141 74.9688 c 4,30,31
 714.322 168.599 714.322 168.599 702.945 182.16 c 4,32,33
 698.919 186.958 698.919 186.958 691.115 186.958 c 4,34,35
 676.86 186.958 676.86 186.958 650 170.95 c 4,36,37
 608.433 146.177 608.433 146.177 449.389 96.8018 c 4,38,39
 309.077 53.2412 309.077 53.2412 205.332 53.2412 c 4,40,41
 191.482 53.2412 191.482 53.2412 178.284 54.0176 c 4,42,43
 66.2236 60.6104 66.2236 60.6104 44.5596 130.644 c 4,44,45
 41.1582 142.28 41.1582 142.28 41.1582 172.12 c 4,46,47
 41.1582 194.604 41.1582 194.604 43.0889 227.421 c 4,48,49
 47.582 303.794 47.582 303.794 60.5127 304.465 c 5,50,51
 56.3428 313.334 56.3428 313.334 56.3428 323.484 c 4,52,53
 56.3428 438.068 56.3428 438.068 587.524 716.1 c 4,0,1
454.35 257.4 m 4,54,55
 562.207 287.409 562.207 287.409 639.678 351.785 c 6,56,-1
 686.365 390.58 l 5,57,-1
 680.992 445.331 l 6,58,59
 672.084 536.1 672.084 536.1 614.905 539.462 c 4,60,61
 613.054 539.571 613.054 539.571 611.133 539.571 c 4,62,63
 577.514 539.571 577.514 539.571 522.704 506.211 c 6,64,-1
 445.447 459.186 l 6,65,66
 387.505 423.917 387.505 423.917 337.208 384.618 c 4,67,68
 287.335 345.653 287.335 345.653 281.299 345.653 c 4,69,-1
 281.199 345.655 l 4,70,71
 280.528 345.694 280.528 345.694 279.873 345.694 c 4,72,73
 255.416 345.694 255.416 345.694 252.186 290.778 c 4,74,75
 251.868 285.393 251.868 285.393 251.868 280.505 c 4,76,77
 251.868 234.215 251.868 234.215 280.274 232.544 c 4,78,79
 288.976 232.032 288.976 232.032 298.206 232.032 c 4,80,81
 363.175 232.032 363.175 232.032 454.35 257.4 c 4,54,55
EndSplineSet
EndChar

StartChar: e
Encoding: 329 101 73
Width: 984
VWidth: 2919
GlyphClass: 2
Flags: HW
HStem: 26.7605 190.464<395.18 821.168> 62.2058 151.587<658.836 980.543> 874.25 168.828<504.254 705.565>
VStem: 84.5749 206.721<461.365 696.381> 705.835 194.8<766.095 868.702>
LayerCount: 2
Fore
SplineSet
478.594 574.186 m 4,0,1
 559.856 610.507 559.856 610.507 639.6 695.5 c 6,2,-1
 705.835 766.096 l 5,3,-1
 705.835 818.096 l 6,4,5
 705.835 874.25 705.835 874.25 609.568 874.25 c 4,6,7
 577.292 874.25 577.292 874.25 529.49 837.07 c 6,8,-1
 465.14 787.02 l 6,9,10
 421.275 782.43 421.275 782.43 361.335 727.096 c 4,11,12
 307.903 677.77 307.903 677.77 302.835 675.096 c 4,13,14
 291.296 670.646 291.296 670.646 291.296 625.734 c 4,15,16
 291.296 608.052 291.296 608.052 293.085 584.095 c 4,17,18
 298.961 508.854 298.961 508.854 316.22 508.854 c 4,19,20
 317.616 508.854 317.616 508.854 319.085 509.345 c 4,21,22
 359.67 521.033 359.67 521.033 478.594 574.186 c 4,0,1
755.755 42.7656 m 4,23,24
 719.58 26.7607 719.58 26.7607 656.884 26.7607 c 4,25,26
 552.061 26.7607 552.061 26.7607 373.1 71.5 c 4,27,28
 210.091 113.535 210.091 113.535 119.6 334.75 c 4,29,30
 84.5752 421.366 84.5752 421.366 84.5752 501.362 c 4,31,32
 84.5752 644.445 84.5752 644.445 196.625 766.345 c 4,33,34
 326.755 907.915 326.755 907.915 511.94 992.285 c 4,35,36
 623.43 1043.08 623.43 1043.08 690.602 1043.08 c 4,37,38
 735.004 1043.08 735.004 1043.08 760.044 1020.88 c 4,39,40
 900.635 897.868 900.635 897.868 900.635 796.389 c 4,41,42
 900.635 740.976 900.635 740.976 858.715 691.984 c 4,43,44
 635.634 436.015 635.634 436.015 581.294 436.015 c 4,45,46
 546.975 436.015 546.975 436.015 526.955 396.689 c 132,-1,47
 506.934 357.365 506.934 357.365 442.584 350.93 c 132,-1,48
 378.233 344.495 378.233 344.495 373.943 311.604 c 4,49,50
 373.661 309.437 373.661 309.437 373.661 307.297 c 4,51,52
 373.661 276.972 373.661 276.972 430.43 252.26 c 4,53,54
 491.205 225.805 491.205 225.805 636.35 217.225 c 4,55,56
 694.408 213.793 694.408 213.793 737.593 213.793 c 4,57,58
 802.372 213.793 802.372 213.793 833.689 221.515 c 4,59,60
 850.173 225.578 850.173 225.578 866.797 225.578 c 4,61,62
 902.817 225.578 902.817 225.578 939.509 206.5 c 4,63,64
 993.134 178.615 993.134 178.615 993.134 145.725 c 4,65,66
 993.134 118.556 993.134 118.556 927.354 83.5195 c 4,67,68
 878.52 57.5098 878.52 57.5098 849.388 57.5098 c 4,69,70
 839.278 57.5098 839.278 57.5098 831.544 60.6406 c 4,71,72
 827.678 62.2061 827.678 62.2061 821.819 62.2061 c 4,73,74
 801.168 62.2061 801.168 62.2061 755.755 42.7656 c 4,23,24
EndSplineSet
EndChar

StartChar: f
Encoding: 330 102 74
Width: 664
VWidth: 2911
GlyphClass: 2
Flags: HW
HStem: 639.712 198.383<51.1174 188.79> 656.855 201.614<475.513 622.523> 1168.72 172.921<348.78 545.776>
VStem: 202.466 182.017<894.247 1146.13> 238.352 179.284<-15.2247 634.595> 273.387 178.408<-131.721 531.261>
LayerCount: 2
Fore
SplineSet
465.907 656.854 m 4,0,-1
 427.308 635.422 l 5,1,-1
 420.157 582.513 l 6,2,3
 417.637 563.862 417.637 563.862 417.637 533.397 c 4,4,5
 417.637 465.474 417.637 465.474 430.167 338.828 c 4,6,7
 450.188 136.481 450.188 136.481 451.617 13.5029 c 4,8,9
 451.796 -1.87012 451.796 -1.87012 451.796 -15.6562 c 4,10,11
 451.796 -112.159 451.796 -112.159 443.037 -130.928 c 4,12,13
 433.027 -152.378 433.027 -152.378 402.997 -152.378 c 4,14,15
 307.707 -152.378 307.707 -152.378 291.263 -132.356 c 132,-1,16
 274.817 -112.337 274.817 -112.337 273.388 -50.8477 c 132,-1,17
 271.957 10.6426 271.957 10.6426 257.657 111.457 c 132,-1,18
 243.357 212.271 243.357 212.271 238.353 420.271 c 132,-1,19
 233.348 628.271 233.348 628.271 220.478 652.582 c 4,20,21
 208.963 674.333 208.963 674.333 188.864 674.333 c 4,22,23
 186.498 674.333 186.498 674.333 184.013 674.032 c 4,24,25
 160.417 671.172 160.417 671.172 141.112 651.153 c 4,26,27
 130.081 639.712 130.081 639.712 113.679 639.712 c 4,28,29
 101.379 639.712 101.379 639.712 86.0576 646.146 c 4,30,31
 56.1943 659.149 56.1943 659.149 28.8574 768.023 c 4,32,33
 26.7969 776.267 26.7969 776.267 26.7969 783.45 c 4,34,35
 26.7969 811.154 26.7969 811.154 57.458 823.078 c 4,36,37
 94.6377 838.095 94.6377 838.095 96.0684 838.095 c 4,38,39
 177.577 843.813 177.577 843.813 191.162 869.553 c 4,40,41
 202.895 891.784 202.895 891.784 202.895 1015.53 c 4,42,43
 202.895 1035.07 202.895 1035.07 202.603 1057.14 c 4,44,45
 202.466 1067.48 202.466 1067.48 202.466 1077.3 c 4,46,47
 202.466 1221.37 202.466 1221.37 231.917 1256.17 c 4,48,49
 303.45 1341.64 303.45 1341.64 394.108 1341.64 c 4,50,51
 461.234 1341.64 461.234 1341.64 538.848 1294.78 c 4,52,53
 659.655 1221.84 659.655 1221.84 659.655 1173.43 c 4,54,55
 659.655 1161.09 659.655 1161.09 651.817 1150.35 c 4,56,57
 612.492 1096.73 612.492 1096.73 596.007 1096.73 c 4,58,59
 592.71 1096.73 592.71 1096.73 590.327 1098.87 c 4,60,61
 542.533 1139.64 542.533 1139.64 535.502 1139.64 c 4,62,-1
 535.272 1139.63 l 4,63,64
 535.042 1139.6 535.042 1139.6 534.787 1139.6 c 4,65,66
 527.893 1139.6 527.893 1139.6 502.383 1158.22 c 4,67,68
 487.994 1168.72 487.994 1168.72 475.619 1168.72 c 4,69,70
 466.666 1168.72 466.666 1168.72 458.768 1163.22 c 4,71,72
 413.1 1131.45 413.1 1131.45 395.133 1033.09 c 4,73,74
 384.482 974.792 384.482 974.792 384.482 939.777 c 4,75,76
 384.482 905.958 384.482 905.958 394.417 893.863 c 4,77,78
 425.115 856.49 425.115 856.49 468.271 856.49 c 4,79,80
 471.353 856.49 471.353 856.49 474.497 856.682 c 4,81,82
 507.03 858.47 507.03 858.47 533.262 858.47 c 4,83,84
 611.957 858.47 611.957 858.47 633.942 842.382 c 4,85,86
 653.906 827.776 653.906 827.776 656.107 798.053 c 4,87,88
 656.433 793.543 656.433 793.543 656.433 789.168 c 4,89,90
 656.433 683.23 656.433 683.23 465.907 656.854 c 4,0,-1
EndSplineSet
EndChar

StartChar: g
Encoding: 331 103 75
Width: 926
VWidth: 2974
GlyphClass: 2
Flags: HW
HStem: 69.338 178.446<140.772 303.553> 930.931 26G<698.89 716.215>
VStem: 35.8478 197.652<230.481 463.291> 742.761 201.367<-986.376 386.377>
LayerCount: 2
Fore
SplineSet
774.681 -991.454 m 4,0,1
 742.762 -851.013 742.762 -851.013 742.762 -498.546 c 4,2,3
 742.762 -456.237 742.762 -456.237 743.222 -410.874 c 6,4,-1
 748.94 156.837 l 6,5,6
 749.073 165.887 749.073 165.887 749.073 174.602 c 4,7,8
 749.073 353.179 749.073 353.179 693.172 391.355 c 4,9,10
 682.522 398.561 682.522 398.561 668.612 398.561 c 4,11,12
 619.022 398.561 619.022 398.561 528.006 306.987 c 4,13,14
 411.462 189.726 411.462 189.726 294.915 121.802 c 4,15,16
 204.9 69.3379 204.9 69.3379 149.009 69.3379 c 4,17,18
 132.535 69.3379 132.535 69.3379 119.026 73.8955 c 4,19,20
 59.6807 93.916 59.6807 93.916 41.8057 184.006 c 4,21,22
 35.8477 214.036 35.8477 214.036 35.8477 246.926 c 4,23,24
 35.8477 312.706 35.8477 312.706 59.6807 389.926 c 4,25,26
 95.4307 505.756 95.4307 505.756 267.03 680.216 c 132,-1,27
 438.631 854.676 438.631 854.676 552.315 905.44 c 132,-1,28
 666.002 956.206 666.002 956.206 698.891 956.921 c 4,29,-1
 699.85 956.932 l 4,30,31
 732.58 956.932 732.58 956.932 786.837 909.016 c 4,32,33
 841.891 860.396 841.891 860.396 876.212 670.206 c 4,34,35
 913.391 468.576 913.391 468.576 931.98 55.3057 c 4,36,37
 944.129 -229.545 944.129 -229.545 944.129 -438.192 c 4,38,39
 944.129 -941.81 944.129 -941.81 873.352 -1001.46 c 4,40,41
 836.032 -1033.45 836.032 -1033.45 812.068 -1033.45 c 4,42,43
 784.607 -1033.45 784.607 -1033.45 774.681 -991.454 c 4,0,1
454.361 368.476 m 4,44,45
 539.591 494.252 539.591 494.252 539.591 565.921 c 4,46,47
 539.591 618.108 539.591 618.108 494.401 641.605 c 4,48,49
 487.515 645.05 487.515 645.05 479.306 645.05 c 4,50,51
 429.573 645.05 429.573 645.05 331.381 518.626 c 4,52,53
 233.499 392.605 233.499 392.605 233.499 324.159 c 4,54,55
 233.499 312.607 233.499 312.607 236.287 302.696 c 4,56,57
 251.729 247.784 251.729 247.784 296.919 247.784 c 4,58,59
 308.216 247.784 308.216 247.784 321.372 251.216 c 4,60,61
 387.151 268.376 387.151 268.376 454.361 368.476 c 4,44,45
EndSplineSet
EndChar

StartChar: h
Encoding: 332 104 76
Width: 981
VWidth: 2895
GlyphClass: 2
Flags: HW
HStem: 538.806 153.029<455.459 682.948>
VStem: 31.2064 214.626<1044.28 1571.83> 54.0719 203.06<522.163 1225.4> 55.5026 181.61<1104.88 1393.82> 126.233 209.813<31.8997 417.876> 747.011 199.204<2.83417 455.073>
LayerCount: 2
Fore
SplineSet
290.023 512.939 m 4,0,1
 289.454 520.281 289.454 520.281 289.454 527.32 c 4,2,3
 289.454 684.231 289.454 684.231 572.65 691.6 c 4,4,5
 581.902 691.835 581.902 691.835 590.782 691.835 c 4,6,7
 695.987 691.835 695.987 691.835 749.052 658.801 c 4,8,9
 890.273 571.611 890.273 571.611 939.242 287.001 c 4,10,11
 946.215 246.47 946.215 246.47 946.215 207.931 c 4,12,13
 946.215 120.017 946.215 120.017 909.927 42.4697 c 4,14,15
 857.732 -69.0703 857.732 -69.0703 788.377 -69.0703 c 4,16,17
 732.769 -69.0703 732.769 -69.0703 732.769 31.9316 c 4,18,19
 732.769 69.5283 732.769 69.5283 740.474 121.119 c 4,20,21
 747.012 164.897 747.012 164.897 747.012 213.785 c 4,22,23
 747.012 316.324 747.012 316.324 718.25 441.35 c 4,24,25
 712.382 466.857 712.382 466.857 626.146 519.025 c 4,26,27
 593.448 538.806 593.448 538.806 563.248 538.806 c 4,28,29
 538.444 538.806 538.444 538.806 515.321 525.461 c 4,30,31
 336.047 422.338 336.047 422.338 336.047 228.56 c 4,32,33
 336.047 166.603 336.047 166.603 354.373 95.3799 c 4,34,35
 365.245 52.4072 365.245 52.4072 365.245 24.2432 c 4,36,37
 365.245 -25.3809 365.245 -25.3809 331.492 -29.0303 c 4,38,39
 314.391 -30.8789 314.391 -30.8789 299.156 -30.8789 c 4,40,41
 220.126 -30.8789 220.126 -30.8789 191.353 18.875 c 4,42,43
 157.032 78.2197 157.032 78.2197 134.152 141.14 c 5,44,45
 126.233 180.74 126.233 180.74 126.233 297.718 c 4,46,47
 126.233 307.463 126.233 307.463 126.288 317.745 c 4,48,49
 126.297 319.395 126.297 319.395 126.297 321.086 c 4,50,51
 126.297 456.428 126.297 456.428 69.8027 854.711 c 6,52,-1
 55.5029 1056.34 l 5,53,54
 54.0723 1060.63 54.0723 1060.63 54.0723 1103.53 c 132,-1,55
 54.0723 1146.43 54.0723 1146.43 55.5029 1227.94 c 6,56,-1
 38.3428 1393.82 l 6,57,58
 31.2061 1462.8 31.2061 1462.8 31.2061 1506.32 c 4,59,60
 31.2061 1554.01 31.2061 1554.01 39.7734 1571.14 c 4,61,62
 50.9365 1593.46 50.9365 1593.46 88.0264 1593.46 c 4,63,64
 103.2 1593.46 103.2 1593.46 122.713 1589.73 c 4,65,66
 245.833 1564.84 245.833 1564.84 245.833 1518.52 c 4,67,68
 245.833 1516.96 245.833 1516.96 245.692 1515.37 c 4,69,70
 237.112 1411.7 237.112 1411.7 237.112 1320.53 c 132,-1,71
 237.112 1229.37 237.112 1229.37 245.692 1150.72 c 4,72,73
 257.132 1045.85 257.132 1045.85 257.132 981.656 c 4,74,75
 257.132 949.564 257.132 949.564 254.273 927.64 c 5,76,77
 292.893 460.605 292.893 460.605 293.712 460.605 c 4,78,79
 293.729 460.605 293.729 460.605 293.729 460.825 c 4,80,81
 293.729 463.992 293.729 463.992 290.023 512.939 c 4,0,1
EndSplineSet
EndChar

StartChar: i
Encoding: 333 105 77
Width: 351
VWidth: 2901
GlyphClass: 2
Flags: HW
HStem: 1113.01 27.3G<154.989 203.771>
VStem: 86.9133 189.565<112.898 767.435> 116.886 190.255<1132.32 1367.3>
LayerCount: 2
Fore
SplineSet
245.7 1372.8 m 0,0,1
 307.141 1284.48 307.141 1284.48 307.141 1223.57 c 0,2,3
 307.141 1160.76 307.141 1160.76 241.8 1127.1 c 0,4,5
 214.452 1113.01 214.452 1113.01 193.09 1113.01 c 0,6,7
 116.886 1113.01 116.886 1113.01 116.886 1292.32 c 0,8,9
 116.886 1299.27 116.886 1299.27 117 1306.5 c 0,10,11
 119.255 1448.51 119.255 1448.51 161.896 1448.51 c 0,12,13
 193.032 1448.51 193.032 1448.51 245.7 1372.8 c 0,0,1
140.001 142.541 m 0,14,15
 89.9512 449.991 89.9512 449.991 87.0928 574.402 c 0,16,17
 86.9131 582.179 86.9131 582.179 86.9131 589.664 c 0,18,19
 86.9131 701.94 86.9131 701.94 127.132 748.862 c 0,20,21
 168.125 796.529 168.125 796.529 202.445 796.529 c 0,22,23
 219.605 796.529 219.605 796.529 235.098 784.612 c 0,24,25
 276.478 752.78 276.478 752.78 276.478 658.597 c 0,26,27
 276.478 647.002 276.478 647.002 275.851 634.463 c 0,28,29
 274.527 610.364 274.527 610.364 274.527 581.951 c 0,30,31
 274.527 456.931 274.527 456.931 300.162 248.362 c 0,32,33
 316.25 111.083 316.25 111.083 316.25 55.8477 c 0,34,35
 316.25 37.4375 316.25 37.4375 314.462 28.1416 c 0,36,37
 307.312 -9.03809 307.312 -9.03809 247.251 -9.03809 c 0,38,39
 197.201 -9.03809 197.201 -9.03809 175.751 20.9922 c 128,-1,40
 154.301 51.0225 154.301 51.0225 140.001 142.541 c 0,14,15
EndSplineSet
EndChar

StartChar: j
Encoding: 334 106 78
Width: 521
VWidth: 2924
GlyphClass: 2
Flags: HW
HStem: -513.245 153.339<47.3171 293.432> 882.263 26G<250.627 305.241>
VStem: 209.186 190.255<624.729 887.424 1179.12 1414.1> 341.9 157.901<-326.084 -144.3>
LayerCount: 2
Fore
SplineSet
338 1419.6 m 4,0,1
 399.44 1331.28 399.44 1331.28 399.44 1270.37 c 4,2,3
 399.44 1207.56 399.44 1207.56 334.1 1173.9 c 4,4,5
 306.751 1159.81 306.751 1159.81 285.391 1159.81 c 4,6,7
 209.186 1159.81 209.186 1159.81 209.186 1339.12 c 4,8,9
 209.186 1346.07 209.186 1346.07 209.3 1353.3 c 4,10,11
 211.554 1495.31 211.554 1495.31 254.197 1495.31 c 4,12,13
 285.332 1495.31 285.332 1495.31 338 1419.6 c 4,0,1
193.7 842.4 m 20,14,15
 224.436 908.264 224.436 908.264 276.819 908.264 c 4,16,17
 333.663 908.264 333.663 908.264 416 830.7 c 12,18,19
 430.496 817.043 430.496 817.043 462.8 588.9 c 28,20,21
 467.526 555.52 467.526 555.52 478.4 390 c 28,22,23
 497.12 105.04 497.12 105.04 497.9 54.5996 c 20,24,25
 499.801 -68.2744 499.801 -68.2744 499.801 -155.398 c 4,26,27
 499.801 -352.252 499.801 -352.252 490.1 -366.6 c 4,28,29
 389.542 -513.245 389.542 -513.245 218.878 -513.245 c 4,30,31
 78.0557 -513.245 78.0557 -513.245 -110.5 -413.4 c 4,32,33
 -140.202 -397.671 -140.202 -397.671 -153.4 -370.5 c 20,34,35
 -180.772 -314.144 -180.772 -314.144 -180.772 -290.325 c 4,36,37
 -180.772 -281.251 -180.772 -281.251 -176.8 -276.9 c 4,38,39
 -168.133 -267.407 -168.133 -267.407 -145.39 -267.407 c 4,40,41
 -118.374 -267.407 -118.374 -267.407 -71.5 -280.8 c 12,42,43
 81.7949 -324.599 81.7949 -324.599 96.2002 -354.9 c 20,44,45
 134.211 -359.906 134.211 -359.906 165.683 -359.906 c 4,46,47
 245.702 -359.906 245.702 -359.906 283.457 -327.545 c 12,48,49
 337.183 -281.494 337.183 -281.494 341.9 -144.3 c 28,50,51
 332.6 -144.087 332.6 -144.087 302.9 237.9 c 28,52,53
 279.577 537.778 279.577 537.778 279.5 538.2 c 28,54,55
 230.29 810.598 230.29 810.598 193.7 842.4 c 20,14,15
EndSplineSet
EndChar

StartChar: k
Encoding: 335 107 79
Width: 852
VWidth: 2895
GlyphClass: 2
Flags: HW
HStem: 1081.26 26G<688.566 711.854>
VStem: 113.582 182.975<684.871 1504.2> 120.25 195.198<33.8924 364.65> 665.6 128.894<1008.86 1094.73>
LayerCount: 2
Fore
SplineSet
279.5 1436.5 m 4,0,1
 296.558 1231.71 296.558 1231.71 296.558 1043.99 c 4,2,3
 296.558 855.856 296.558 855.856 279.426 684.871 c 5,4,-1
 480.738 866.58 l 6,5,6
 659.461 1027.9 659.461 1027.9 665.6 1060.15 c 4,7,8
 674.438 1107.26 674.438 1107.26 702.693 1107.26 c 4,9,10
 721.015 1107.26 721.015 1107.26 747.5 1087.45 c 4,11,12
 792.869 1053.52 792.869 1053.52 794.494 1011.38 c 4,13,14
 794.544 1010.11 794.544 1010.11 794.544 1008.82 c 4,15,16
 794.544 949.757 794.544 949.757 692.928 830.001 c 4,17,18
 605.443 726.898 605.443 726.898 536.176 671.871 c 4,19,20
 447.092 601.101 447.092 601.101 447.092 538.931 c 4,21,22
 447.092 507.081 447.092 507.081 470.472 477.49 c 4,23,24
 524.601 408.978 524.601 408.978 524.601 405.125 c 4,25,26
 524.601 405.007 524.601 405.007 524.55 404.95 c 6,27,-1
 719.55 188.76 l 6,28,29
 771.561 131.099 771.561 131.099 771.561 80.6602 c 4,30,31
 771.561 37.7119 771.561 37.7119 733.85 0 c 4,32,33
 722.943 -10.9062 722.943 -10.9062 702.239 -10.9062 c 4,34,35
 682.225 -10.9062 682.225 -10.9062 653.054 -0.714844 c 4,36,37
 593.709 20.0205 593.709 20.0205 576.55 41.4707 c 4,38,39
 328.127 352.024 328.127 352.024 326.3 364.65 c 4,40,-1
 315.25 118.3 l 4,41,42
 315.447 113.712 315.447 113.712 315.447 109.344 c 4,43,44
 315.447 38.584 315.447 38.584 263.769 25.3496 c 6,45,-1
 226.2 15.7295 l 5,46,47
 123.171 30.0293 123.171 30.0293 120.25 188.76 c 4,48,49
 113.582 555.385 113.582 555.385 113.582 827.977 c 4,50,51
 113.582 1281.31 113.582 1281.31 132.024 1474.56 c 4,52,53
 133.92 1494.43 133.92 1494.43 172.062 1504.59 c 4,54,55
 194.307 1510.74 194.307 1510.74 211.976 1510.74 c 4,56,57
 273.339 1510.74 273.339 1510.74 279.5 1436.5 c 4,0,1
EndSplineSet
EndChar

StartChar: l
Encoding: 336 108 80
Width: 451
VWidth: 2896
GlyphClass: 2
Flags: HW
HStem: 0.27041 27.3G<208.88 251.013> 1452.57 26G<205.891 227.302>
VStem: 125.755 210.644<23.1819 290.156 414.116 1430.68>
LayerCount: 2
Fore
SplineSet
182.924 3.96387 m 4,0,1
 133.92 20.3682 133.92 20.3682 126.175 213.028 c 4,2,3
 125.693 231.017 125.693 231.017 125.693 256.16 c 4,4,5
 125.693 353.493 125.693 353.493 132.899 558.057 c 4,6,7
 137.115 677.691 137.115 677.691 137.115 790.35 c 4,8,9
 137.115 920.088 137.115 920.088 131.524 1040.57 c 4,10,11
 125.755 1164.96 125.755 1164.96 125.755 1256.77 c 4,12,13
 125.755 1331.1 125.755 1331.1 129.538 1384.07 c 4,14,15
 132.695 1448.37 132.695 1448.37 183.078 1471.29 c 4,16,17
 199.087 1478.57 199.087 1478.57 212.695 1478.57 c 4,18,19
 241.909 1478.57 241.909 1478.57 260.051 1445 c 6,20,21
 304.37 1423.2 304.37 1423.2 325.052 1301.3 c 4,22,23
 336.398 1234.42 336.398 1234.42 336.398 1165.75 c 4,24,25
 336.398 1109.27 336.398 1109.27 328.72 1051.58 c 4,26,27
 321.84 999.897 321.84 999.897 321.84 918.189 c 4,28,29
 321.84 797.828 321.84 797.828 336.769 612.309 c 4,30,31
 336.87 593.664 336.87 593.664 339.52 470.182 c 4,32,33
 340.884 406.616 340.884 406.616 340.884 350.556 c 4,34,35
 340.884 297.713 340.884 297.713 339.672 251.54 c 4,36,37
 337.176 156.382 337.176 156.382 306.713 71.1055 c 4,38,39
 285.313 0.270508 285.313 0.270508 216.713 0.270508 c 4,40,41
 201.049 0.270508 201.049 0.270508 182.924 3.96387 c 4,0,1
EndSplineSet
EndChar

StartChar: m
Encoding: 337 109 81
Width: 1511
VWidth: 2924
GlyphClass: 2
Flags: HW
HStem: -1.38633 27.3G<1272.63 1301.03> 710.544 217.34<505.401 635.99> 711.586 195.445<1070.34 1270.57>
VStem: 721.642 167.631<76.4679 509.233> 1346.63 158.119<190.902 625.696>
LayerCount: 2
Fore
SplineSet
707.923 -5.31055 m 4,0,1
 689.001 -0.405273 689.001 -0.405273 689.001 74.2109 c 4,2,3
 689.001 145.947 689.001 145.947 706.491 282.121 c 4,4,5
 721.642 400.076 721.642 400.076 721.642 458.25 c 4,6,7
 721.642 476.948 721.642 476.948 720.076 489.471 c 4,8,9
 713.642 540.949 713.642 540.949 666.451 612.449 c 4,10,11
 601.055 710.544 601.055 710.544 551.81 710.544 c 4,12,13
 547.213 710.544 547.213 710.544 542.758 709.689 c 4,14,15
 487.167 699.029 487.167 699.029 410.482 566.689 c 4,16,17
 321.823 413.681 321.823 413.681 321.823 230.64 c 4,18,19
 321.823 59.6309 321.823 59.6309 291.791 37.5898 c 4,20,21
 249.261 4.83398 249.261 4.83398 223.287 4.83398 c 4,22,23
 190.316 4.83398 190.316 4.83398 184.022 57.6104 c 4,24,25
 161.422 245.297 161.422 245.297 123.962 375.07 c 4,26,27
 32.1035 698.236 32.1035 698.236 32.1035 798.988 c 4,28,29
 32.1035 827.754 32.1035 827.754 39.5918 838.39 c 4,30,31
 91.7842 914.514 91.7842 914.514 127.498 914.514 c 4,32,33
 155.289 914.514 155.289 914.514 173.102 868.421 c 4,34,35
 234.592 711.121 234.592 711.121 241.741 593.859 c 5,36,37
 241.197 602.919 241.197 602.919 241.197 611.796 c 4,38,39
 241.197 750.025 241.197 750.025 373.302 843.59 c 4,40,41
 490.849 927.884 490.849 927.884 582.678 927.884 c 4,42,43
 699.836 927.884 699.836 927.884 775.133 790.681 c 4,44,45
 851.199 652.076 851.199 652.076 861.721 652.076 c 4,46,47
 863.409 652.076 863.409 652.076 863.409 655.647 c 4,48,49
 863.409 660.253 863.409 660.253 860.6 670.8 c 4,50,51
 860.001 673.051 860.001 673.051 860.001 675.631 c 4,52,53
 860.001 716.94 860.001 716.94 1013.68 842.681 c 4,54,55
 1092.33 907.031 1092.33 907.031 1219.6 907.031 c 4,56,57
 1291.1 907.031 1291.1 907.031 1369.76 821.23 c 4,58,59
 1482.73 698.249 1482.73 698.249 1499.89 519.499 c 4,60,61
 1504.75 467.653 1504.75 467.653 1504.75 417.413 c 4,62,63
 1504.75 285.604 1504.75 285.604 1471.29 164.859 c 4,64,65
 1438.4 46.1699 1438.4 46.1699 1348.31 11.8496 c 4,66,67
 1314.86 -1.38672 1314.86 -1.38672 1287.19 -1.38672 c 4,68,69
 1258.07 -1.38672 1258.07 -1.38672 1235.33 13.2803 c 4,70,71
 1198.78 36.8633 1198.78 36.8633 1198.78 74.1152 c 4,72,73
 1198.78 83.3203 1198.78 83.3203 1201.01 93.3604 c 4,74,75
 1203.06 102.568 1203.06 102.568 1278.23 177.73 c 4,76,77
 1310.58 210.071 1310.58 210.071 1329.72 294.989 c 4,78,79
 1346.63 363.742 1346.63 363.742 1346.63 423.932 c 4,80,81
 1346.63 492.469 1346.63 492.469 1324.7 549.9 c 4,82,83
 1268.69 697.238 1268.69 697.238 1191 711.121 c 4,84,85
 1188.4 711.586 1188.4 711.586 1185.4 711.586 c 4,86,87
 1150.49 711.586 1150.49 711.586 1061.97 648.568 c 4,88,89
 980.766 590.758 980.766 590.758 963.3 549.9 c 4,90,91
 889.389 376.992 889.389 376.992 889.272 367.921 c 4,92,93
 884.526 -9.91602 884.526 -9.91602 741.25 -9.91602 c 4,94,95
 725.43 -9.91602 725.43 -9.91602 707.923 -5.31055 c 4,0,1
EndSplineSet
EndChar

StartChar: n
Encoding: 338 110 82
Width: 999
VWidth: 2923
GlyphClass: 2
Flags: HW
HStem: -1.17051 27.3G<868.353 906.045> 712.146 234.454<617.562 733.742> 930.114 26G<105.64 183.583>
VStem: 70.2812 169.081<415.363 949.055> 797.044 132.99<6.71884 641.203>
LayerCount: 2
Fore
SplineSet
210.744 60.9326 m 4,0,1
 129.234 266.853 129.234 266.853 77.7549 784.514 c 4,2,3
 70.2812 850.107 70.2812 850.107 70.2812 887.5 c 4,4,5
 70.2812 914.505 70.2812 914.505 74.1797 926.799 c 4,6,7
 83.4746 956.113 83.4746 956.113 127.805 956.113 c 4,8,9
 239.362 956.113 239.362 956.113 239.362 866.866 c 4,10,11
 239.362 865.736 239.362 865.736 239.345 864.592 c 4,12,13
 239.146 836.749 239.146 836.749 239.146 810.597 c 4,14,15
 239.146 406.571 239.146 406.571 286.38 406.571 c 4,16,17
 302.348 406.571 302.348 406.571 323.716 452.752 c 4,18,19
 332.294 472.773 332.294 472.773 368.044 555.714 c 4,20,21
 536.514 946.601 536.514 946.601 699.347 946.601 c 4,22,23
 782.536 946.601 782.536 946.601 864.256 844.573 c 4,24,25
 918.595 777.363 918.595 777.363 948.624 558.573 c 5,26,27
 941.475 547.132 941.475 547.132 930.034 83.8135 c 4,28,29
 927.582 -1.1709 927.582 -1.1709 884.507 -1.1709 c 4,30,31
 852.201 -1.1709 852.201 -1.1709 797.044 46.6328 c 5,32,33
 791.324 53.7822 791.324 53.7822 781.315 345.502 c 4,34,35
 758.802 712.146 758.802 712.146 683.847 712.146 c 4,36,37
 625.492 712.146 625.492 712.146 535.355 489.933 c 4,38,39
 340.874 9.45312 340.874 9.45312 328.006 8.02344 c 4,40,41
 314.19 6.29688 314.19 6.29688 301.873 6.29688 c 4,42,43
 232.599 6.29688 232.599 6.29688 210.744 60.9326 c 4,0,1
EndSplineSet
EndChar

StartChar: o
Encoding: 339 111 83
Width: 793
VWidth: 2917
GlyphClass: 2
Flags: HW
HStem: 4.02315 199.675<232.589 390.27> 813.075 205.751<493.618 593.807>
VStem: 37.5197 185.147<212.155 488.598> 607.499 162.831<441.343 798.071>
LayerCount: 2
Fore
SplineSet
237.25 5.2002 m 4,0,1
 103.023 26.5957 103.023 26.5957 42.9023 207.11 c 4,2,3
 37.5195 223.841 37.5195 223.841 37.5195 250.749 c 4,4,5
 37.5195 335.68 37.5195 335.68 91.1396 522.013 c 4,6,7
 161.749 767.381 161.749 767.381 207.889 822.206 c 4,8,9
 316.946 946.562 316.946 946.562 465.155 996.036 c 4,10,11
 533.666 1018.83 533.666 1018.83 588.447 1018.83 c 4,12,13
 713.666 1018.83 713.666 1018.83 767.162 899.76 c 4,14,15
 784.874 861.43 784.874 861.43 784.874 837.656 c 4,16,17
 784.874 825.771 784.874 825.771 780.446 817.524 c 4,18,19
 769.473 797.09 769.473 797.09 769.473 720.534 c 4,20,21
 769.473 704.418 769.473 704.418 769.959 685.814 c 4,22,23
 770.33 674.493 770.33 674.493 770.33 663.281 c 4,24,25
 770.33 338.107 770.33 338.107 456.764 104.149 c 4,26,27
 325.578 4.02344 325.578 4.02344 252.43 4.02344 c 4,28,29
 244.499 4.02344 244.499 4.02344 237.25 5.2002 c 4,0,1
240.045 216.472 m 4,30,31
 249.76 203.698 249.76 203.698 268.671 203.698 c 4,32,33
 315.089 203.698 315.089 203.698 416.916 280.655 c 4,34,35
 560.231 388.965 560.231 388.965 594.487 566.139 c 4,36,37
 607.499 633.437 607.499 633.437 607.499 680.959 c 4,38,39
 607.499 758.55 607.499 758.55 572.815 783.428 c 4,40,41
 531.306 813.074 531.306 813.074 511.32 813.074 c 4,42,43
 492.759 813.074 492.759 813.074 492.759 787.508 c 4,44,45
 492.759 767.345 492.759 767.345 504.304 731.277 c 4,46,47
 504.412 730.917 504.412 730.917 504.412 730.535 c 4,48,49
 504.412 720.967 504.412 720.967 437.191 697.181 c 4,50,51
 368.68 672.443 368.68 672.443 367.281 672.443 c 4,52,53
 367.151 672.479 367.151 672.479 367.006 672.479 c 4,54,55
 356.394 672.479 356.394 672.479 275.001 477.217 c 4,56,57
 222.667 351.667 222.667 351.667 222.667 280.473 c 4,58,59
 222.667 239.447 222.667 239.447 240.045 216.472 c 4,30,31
EndSplineSet
EndChar

StartChar: p
Encoding: 340 112 84
Width: 916
VWidth: 2895
GlyphClass: 2
Flags: HW
HStem: -1001.47 27.3G<113.233 139.623> 910 26G<530.803 755.955>
VStem: 87.2308 185.32<-112.219 1102.93> 106.6 169.65<-915.681 -350.237 821.989 1111.66> 709.9 198.15<567.198 720.604>
LayerCount: 2
Fore
SplineSet
317.2 620.1 m 16,0,1
 272.552 539.174 272.552 539.174 272.552 470.831 c 0,2,3
 272.552 412.122 272.552 412.122 305.5 362.7 c 0,4,5
 307.204 360.143 307.204 360.143 312.105 360.143 c 0,6,7
 337.177 360.143 337.177 360.143 445.9 427.05 c 8,8,9
 655.79 556.213 655.79 556.213 685.75 596.7 c 16,10,11
 709.9 629.335 709.9 629.335 709.9 656.083 c 0,12,13
 709.9 693.613 709.9 693.613 662.35 719.55 c 0,14,15
 649.188 726.728 649.188 726.728 624.446 726.728 c 0,16,17
 578.522 726.728 578.522 726.728 492.7 702 c 8,18,19
 337.754 657.354 337.754 657.354 317.2 620.1 c 16,0,1
106.6 1105.65 m 0,20,21
 136.565 1122.3 136.565 1122.3 167.59 1122.3 c 0,22,23
 203.654 1122.3 203.654 1122.3 241.15 1099.8 c 0,24,25
 275.562 1079.15 275.562 1079.15 275.562 983.609 c 0,26,27
 275.562 916.73 275.562 916.73 258.7 813.15 c 8,28,-1
 603.85 936 l 16,29,30
 908.059 883.927 908.059 883.927 908.059 704.019 c 0,31,-1
 908.05 702 l 8,32,33
 905.772 460.614 905.772 460.614 598 315.9 c 0,34,35
 372.921 214.804 372.921 214.804 258.7 81.9004 c 24,36,-1
 276.25 -842.4 l 0,37,38
 157.873 -1001.47 157.873 -1001.47 121.371 -1001.47 c 0,39,40
 105.096 -1001.47 105.096 -1001.47 105.096 -969.85 c 0,41,42
 105.096 -960.236 105.096 -960.236 106.6 -947.7 c 0,43,44
 87.2305 -4.83789 87.2305 -4.83789 87.2305 508.5 c 128,-1,45
 87.2305 1021.84 87.2305 1021.84 106.6 1105.65 c 0,20,21
EndSplineSet
EndChar

StartChar: q
Encoding: 341 113 85
Width: 955
VWidth: 2895
GlyphClass: 2
Flags: HW
HStem: 910 26G<175.496 400.647>
VStem: 23.3912 198.159<566.05 720.606> 655.888 168.962<-620.1 -13.272 815.5 1099.14> 658.898 193.684<-600.959 1024.3>
LayerCount: 2
Fore
SplineSet
824.85 1105.65 m 5,0,1
 852.583 1026.36 852.583 1026.36 852.583 391.123 c 4,2,3
 852.583 -5.90332 852.583 -5.90332 841.75 -620.1 c 5,4,5
 924.937 -547.947 924.937 -547.947 992.048 -547.947 c 4,6,7
 1006.3 -547.947 1006.3 -547.947 1019.83 -551.201 c 4,8,9
 1124.2 -576.309 1124.2 -576.309 1124.2 -617.199 c 4,10,11
 1124.2 -637.231 1124.2 -637.231 1099.15 -661.05 c 4,12,13
 1009.1 -746.687 1009.1 -746.687 1005.55 -748.8 c 4,14,15
 940.12 -787.701 940.12 -787.701 905.771 -853.054 c 4,16,17
 893.667 -876.083 893.667 -876.083 853.45 -918.45 c 5,18,-1
 824.85 -947.7 l 6,19,20
 811.846 -960.999 811.846 -960.999 794.691 -960.999 c 4,21,22
 743.46 -960.999 743.46 -960.999 655.2 -842.4 c 5,23,-1
 672.75 81.9004 l 5,24,25
 562.426 210.271 562.426 210.271 333.45 315.9 c 4,26,27
 25.7031 457.866 25.7031 457.866 23.4004 702 c 4,28,29
 23.3916 703.012 23.3916 703.012 23.3916 704.021 c 4,30,31
 23.3916 883.929 23.3916 883.929 327.6 936 c 5,32,-1
 672.75 813.15 l 5,33,34
 655.888 916.729 655.888 916.729 655.888 983.609 c 4,35,36
 655.888 1079.15 655.888 1079.15 690.3 1099.8 c 4,37,38
 727.796 1122.3 727.796 1122.3 763.86 1122.3 c 4,39,40
 794.885 1122.3 794.885 1122.3 824.85 1105.65 c 5,0,1
614.25 620.1 m 4,41,42
 593.695 657.354 593.695 657.354 438.75 702 c 4,43,44
 352.928 726.728 352.928 726.728 307.004 726.728 c 4,45,46
 282.261 726.728 282.261 726.728 269.1 719.55 c 4,47,48
 221.55 693.613 221.55 693.613 221.55 656.083 c 4,49,50
 221.55 629.335 221.55 629.335 245.7 596.7 c 4,51,52
 275.66 556.214 275.66 556.214 485.55 427.05 c 4,53,54
 594.272 360.143 594.272 360.143 619.345 360.143 c 4,55,56
 624.246 360.143 624.246 360.143 625.95 362.7 c 4,57,58
 658.898 412.122 658.898 412.122 658.898 470.831 c 4,59,60
 658.898 539.174 658.898 539.174 614.25 620.1 c 4,41,42
EndSplineSet
EndChar

StartChar: r
Encoding: 342 114 86
Width: 798
VWidth: 2919
GlyphClass: 2
Flags: HW
HStem: 913.709 26G<138.482 173.772 755.585 795.228>
VStem: 86.891 233.993<667.102 905.048>
LayerCount: 2
Fore
SplineSet
435.199 -7.89648 m 0,0,1
 404.898 -28.0967 404.898 -28.0967 376.054 -28.0967 c 0,2,3
 347.724 -28.0967 347.724 -28.0967 320.8 -8.61133 c 0,4,5
 266.458 30.7139 266.458 30.7139 230.708 225.195 c 128,-1,6
 194.958 419.674 194.958 419.674 132.753 589.129 c 0,7,8
 86.8906 714.065 86.8906 714.065 86.8906 801.69 c 0,9,10
 86.8906 832.914 86.8906 832.914 92.7139 859.398 c 0,11,12
 110.37 939.709 110.37 939.709 166.594 939.709 c 0,13,14
 180.949 939.709 180.949 939.709 197.818 934.474 c 0,15,16
 320.884 896.099 320.884 896.099 320.884 802.008 c 0,17,18
 320.884 794.421 320.884 794.421 320.083 786.47 c 0,19,20
 316.93 755.138 316.93 755.138 316.93 731.906 c 0,21,22
 316.93 676.148 316.93 676.148 335.1 667.063 c 0,23,24
 335.719 666.832 335.719 666.832 336.395 666.832 c 0,25,26
 348.239 666.832 348.239 666.832 378 737.849 c 0,27,28
 409.458 812.924 409.458 812.924 485.25 878.704 c 0,29,30
 500.979 891.574 500.979 891.574 581.774 966.648 c 128,-1,31
 662.568 1041.72 662.568 1041.72 746.938 1043.87 c 0,32,33
 752.821 1044.02 752.821 1044.02 758.35 1044.02 c 0,34,35
 832.106 1044.02 832.106 1044.02 842.75 1017.41 c 0,36,37
 847.336 1005.44 847.336 1005.44 847.336 992.868 c 0,38,39
 847.336 934.913 847.336 934.913 749.8 864.404 c 0,40,41
 500.979 685.654 500.979 685.654 392.3 418.245 c 0,42,43
 389.549 411.094 389.549 411.094 389.549 384.902 c 0,44,45
 389.549 343 389.549 343 396.588 252.364 c 0,46,47
 408.028 105.074 408.028 105.074 410.889 92.2031 c 1,48,49
 437.973 22.8691 437.973 22.8691 437.973 1.13672 c 0,50,51
 437.973 -5.81641 437.973 -5.81641 435.199 -7.89648 c 0,0,1
EndSplineSet
EndChar

StartChar: s
Encoding: 343 115 87
Width: 777
VWidth: 2915
GlyphClass: 2
Flags: HW
HStem: 1091.37 26G<608.478 646.295>
VStem: 16.0059 266.246<544.695 667.181> 516.542 262.008<210.073 383.131>
LayerCount: 2
Fore
SplineSet
359.242 6.71582 m 128,-1,1
 319.335 35.3154 319.335 35.3154 319.335 65.4629 c 0,2,3
 319.335 100.131 319.335 100.131 372.112 136.846 c 0,4,5
 516.542 235.516 516.542 235.516 516.542 324.176 c 0,6,7
 516.542 397.105 516.542 397.105 348.517 397.105 c 128,-1,8
 180.492 397.105 180.492 397.105 60.3721 491.485 c 0,9,10
 16.0059 525.366 16.0059 525.366 16.0059 564.023 c 0,11,12
 16.0059 593.896 16.0059 593.896 42.4971 626.621 c 0,13,14
 103.272 701.695 103.272 701.695 139.737 773.195 c 128,-1,15
 176.202 844.695 176.202 844.695 550.862 1090.66 c 0,16,17
 591.252 1117.37 591.252 1117.37 625.705 1117.37 c 0,18,19
 666.883 1117.37 666.883 1117.37 699.583 1079.22 c 0,20,21
 722.104 1053.48 722.104 1053.48 722.104 1033.37 c 0,22,23
 722.104 1026.66 722.104 1026.66 719.602 1020.59 c 0,24,25
 709.592 996.275 709.592 996.275 609.492 929.065 c 128,-1,26
 509.392 861.855 509.392 861.855 469.352 851.846 c 1,27,28
 469.863 851.335 469.863 851.335 469.863 850.471 c 0,29,30
 469.863 839.23 469.863 839.23 383.552 768.19 c 0,31,32
 290.602 691.686 290.602 691.686 289.172 691.686 c 1,33,34
 282.252 674.879 282.252 674.879 282.252 660.978 c 0,35,36
 282.252 634.662 282.252 634.662 307.047 618.756 c 0,37,38
 344.942 594.445 344.942 594.445 480.077 573.711 c 128,-1,39
 615.212 552.976 615.212 552.976 663.833 527.235 c 0,40,41
 778.551 463.839 778.551 463.839 778.551 355.831 c 0,42,43
 778.551 310.353 778.551 310.353 758.212 256.966 c 0,44,45
 743.912 219.786 743.912 219.786 591.617 98.9512 c 128,-1,46
 439.322 -21.8838 439.322 -21.8838 407.862 -21.8838 c 0,47,0
 399.283 -21.8838 399.283 -21.8838 359.242 6.71582 c 128,-1,1
EndSplineSet
EndChar

StartChar: t
Encoding: 344 116 88
Width: 759
VWidth: 2893
GlyphClass: 2
Flags: HW
HStem: 681.16 166.292<62.9869 187.102> 761.281 132.439<415.752 684.155>
VStem: 230.175 155.546<162.989 691.673> 257.859 197.311<2.99571 426.492>
LayerCount: 2
Fore
SplineSet
361.604 1089.63 m 0,0,1
 373.044 989.529 373.044 989.529 374.476 979.521 c 0,2,3
 378.616 920.166 378.616 920.166 413.084 916.599 c 0,4,5
 524.54 902.942 524.54 902.942 611.854 893.72 c 0,6,7
 715.004 881.548 715.004 881.548 715.004 875.625 c 0,8,9
 715.004 875.37 715.004 875.37 714.814 875.129 c 0,10,11
 710.225 869.257 710.225 869.257 669.11 787.02 c 0,12,13
 657.67 764.14 657.67 764.14 623.35 761.281 c 0,14,15
 467.691 745.931 467.691 745.931 414.05 709.8 c 0,16,17
 385.722 690.494 385.722 690.494 385.722 595.581 c 0,18,19
 385.722 476.593 385.722 476.593 430.244 238.778 c 0,20,21
 455.17 103.833 455.17 103.833 455.17 45.8086 c 0,22,23
 455.17 7.92285 455.17 7.92285 444.544 2.82812 c 0,24,25
 384.987 -27.5449 384.987 -27.5449 345.467 -27.5449 c 0,26,27
 318.025 -27.5449 318.025 -27.5449 300.244 -12.9014 c 0,28,29
 257.859 22.0049 257.859 22.0049 257.859 44.957 c 0,30,31
 257.859 48.332 257.859 48.332 258.775 51.4492 c 1,32,33
 258.905 51.5791 258.905 51.5791 258.905 52.6055 c 0,34,35
 258.905 62.8799 258.905 62.8799 245.904 162.989 c 2,36,-1
 230.176 577.688 l 2,37,38
 226.439 676.186 226.439 676.186 180.125 690.659 c 0,39,40
 171.876 693.408 171.876 693.408 164.26 693.408 c 0,41,42
 152.075 693.408 152.075 693.408 141.514 686.369 c 0,43,44
 133.7 681.16 133.7 681.16 121.545 681.16 c 128,-1,45
 109.39 681.16 109.39 681.16 92.8945 686.369 c 0,46,47
 60.418 696.624 60.418 696.624 60.418 753.608 c 0,48,49
 60.418 784.585 60.418 784.585 70.0146 829.37 c 0,50,51
 73.8896 847.452 73.8896 847.452 105.767 847.452 c 0,52,53
 109.18 847.452 109.18 847.452 112.915 847.245 c 0,54,55
 115.144 847.121 115.144 847.121 117.322 847.121 c 0,56,57
 152.888 847.121 152.888 847.121 175.119 880.134 c 0,58,59
 192.422 905.827 192.422 905.827 192.422 941.133 c 0,60,61
 192.422 953.97 192.422 953.97 190.134 968.079 c 0,62,63
 117.258 1375.46 117.258 1375.46 117.258 1505.87 c 0,64,65
 117.258 1566.36 117.258 1566.36 132.935 1567.25 c 0,66,67
 134.485 1567.34 134.485 1567.34 205.864 1574.4 c 0,68,69
 208.115 1574.66 208.115 1574.66 210.344 1574.66 c 0,70,71
 306.602 1574.66 306.602 1574.66 361.604 1089.63 c 0,0,1
EndSplineSet
EndChar

StartChar: u
Encoding: 345 117 89
Width: 1127
VWidth: 2927
GlyphClass: 2
Flags: HW
HStem: -18.1428 208.436<237.867 453.549> 34.6804 155.613<302.321 569.735> 450.694 342.603<315.986 406.71> 876.856 26G<974.394 1003.87>
VStem: 59.7457 183.889<249.434 425.785> 874.996 210.547<522.417 870.15> 935.771 166.063<-8.44155 252.472>
LayerCount: 2
Fore
SplineSet
362.341 204.135 m 4,0,1
 379.96 190.293 379.96 190.293 422.497 190.293 c 4,2,3
 428.294 190.293 428.294 190.293 434.555 190.55 c 4,4,5
 486.751 192.696 486.751 192.696 546.096 229.16 c 132,-1,6
 605.441 265.625 605.441 265.625 714.121 362.865 c 132,-1,7
 822.801 460.106 822.801 460.106 827.091 462.965 c 5,8,9
 874.28 538.757 874.28 538.757 874.996 668.172 c 132,-1,10
 875.711 797.585 875.711 797.585 918.611 853.356 c 4,11,12
 957.387 902.856 957.387 902.856 991.4 902.856 c 4,13,14
 1016.34 902.856 1016.34 902.856 1038.73 876.235 c 4,15,16
 1077.34 830.475 1077.34 830.475 1084.49 691.05 c 4,17,18
 1085.54 670.547 1085.54 670.547 1085.54 652.409 c 4,19,20
 1085.54 547.209 1085.54 547.209 1050.17 521.597 c 5,21,22
 1028.72 521.597 1028.72 521.597 1028.72 492.281 c 132,-1,23
 1028.72 462.965 1028.72 462.965 1035.87 462.965 c 132,-1,24
 1043.02 462.965 1043.02 462.965 1050.17 395.04 c 132,-1,25
 1057.32 327.115 1057.32 327.115 1063.04 304.235 c 4,26,27
 1101.83 171.129 1101.83 171.129 1101.83 94.0264 c 4,28,29
 1101.83 6.28809 1101.83 6.28809 1051.6 -8.93457 c 4,30,31
 960.497 -37.7646 960.497 -37.7646 941.004 -37.7646 c 4,32,33
 936.325 -37.7646 936.325 -37.7646 935.771 -36.1045 c 5,34,35
 922.901 -16.085 922.901 -16.085 895.729 164.097 c 4,36,37
 874.533 309.451 874.533 309.451 841.224 309.451 c 4,38,39
 827.344 309.451 827.344 309.451 811.361 284.215 c 4,40,41
 784.191 244.175 784.191 244.175 721.271 198.415 c 132,-1,42
 658.352 152.656 658.352 152.656 628.321 152.656 c 132,-1,43
 598.291 152.656 598.291 152.656 598.291 134.065 c 132,-1,44
 598.291 115.476 598.291 115.476 547.526 72.5752 c 4,45,46
 501.376 33.5752 501.376 33.5752 482.408 33.5752 c 4,47,48
 480.511 33.5752 480.511 33.5752 478.886 33.9648 c 4,49,50
 475.906 34.6807 475.906 34.6807 473.165 34.6807 c 4,51,52
 459.462 34.6807 459.462 34.6807 451.716 16.8057 c 4,53,54
 442.421 -4.64355 442.421 -4.64355 325.876 -15.3691 c 4,55,56
 295.734 -18.1426 295.734 -18.1426 271.953 -18.1426 c 4,57,58
 203.783 -18.1426 203.783 -18.1426 187.88 4.65039 c 4,59,60
 166.43 35.3955 166.43 35.3955 142.121 35.3955 c 4,61,62
 94.9307 35.3955 94.9307 35.3955 70.6211 159.807 c 4,63,64
 59.7461 215.463 59.7461 215.463 59.7461 263.107 c 4,65,66
 59.7461 321.961 59.7461 321.961 76.3408 368.585 c 6,67,-1
 117.812 482.985 l 6,68,69
 176.441 646.007 176.441 646.007 262.241 686.047 c 4,70,71
 290.841 698.915 290.841 698.915 323.729 746.106 c 132,-1,72
 356.621 793.298 356.621 793.298 377.354 793.298 c 132,-1,73
 398.091 793.298 398.091 793.298 398.091 812.6 c 132,-1,74
 398.091 831.906 398.091 831.906 454.576 840.485 c 4,75,76
 471.109 842.997 471.109 842.997 484.273 842.997 c 4,77,78
 516.084 842.997 516.084 842.997 528.221 828.331 c 4,79,80
 545.38 807.598 545.38 807.598 545.38 736.098 c 4,81,82
 545.38 607.396 545.38 607.396 471.021 573.075 c 4,83,84
 443.852 560.206 443.852 560.206 400.236 500.146 c 4,85,86
 362.468 448.136 362.468 448.136 344.536 448.136 c 4,87,88
 341.761 448.136 341.761 448.136 339.461 449.382 c 132,-1,89
 337.037 450.694 337.037 450.694 334.185 450.694 c 4,90,91
 316.847 450.694 316.847 450.694 283.691 402.19 c 4,92,93
 245.08 345.706 245.08 345.706 243.651 314.246 c 4,94,95
 243.635 313.91 243.635 313.91 243.635 313.566 c 4,96,97
 243.635 284.688 243.635 284.688 362.341 204.135 c 4,0,1
EndSplineSet
EndChar

StartChar: v
Encoding: 346 118 90
Width: 925
VWidth: 2919
GlyphClass: 2
Flags: HW
HStem: -19.8111 272.146<529.526 634.046> 909.151 26G<113.599 143.543 837.465 874.862>
VStem: 761.751 177.618<489.085 973.099>
LayerCount: 2
Fore
SplineSet
495.056 39.9043 m 128,-1,1
 415.69 94.958 415.69 94.958 377.081 176.469 c 128,-1,2
 338.471 257.979 338.471 257.979 196.9 528.25 c 0,3,4
 70.4219 768.75 70.4219 768.75 70.4219 868.006 c 0,5,6
 70.4219 916.882 70.4219 916.882 101.09 931.509 c 0,7,8
 108.831 935.151 108.831 935.151 118.366 935.151 c 0,9,10
 168.721 935.151 168.721 935.151 269.115 833.554 c 0,11,12
 388.521 712.719 388.521 712.719 388.521 641.219 c 0,13,14
 388.521 574.009 388.521 574.009 463.596 424.575 c 128,-1,15
 538.671 275.14 538.671 275.14 583.001 253.689 c 0,16,17
 585.71 252.335 585.71 252.335 588.599 252.335 c 0,18,19
 603.999 252.335 603.999 252.335 624.471 290.868 c 0,20,21
 643.061 326.618 643.061 326.618 660.221 365.229 c 0,22,23
 744.591 551.129 744.591 551.129 761.751 674.108 c 0,24,25
 809.239 1037.83 809.239 1037.83 865.69 1037.83 c 0,26,27
 884.032 1037.83 884.032 1037.83 903.32 999.434 c 0,28,29
 939.368 927.666 939.368 927.666 939.368 817.897 c 0,30,31
 939.368 688.171 939.368 688.171 889.021 505.368 c 0,32,33
 742.75 -19.8115 742.75 -19.8115 618.193 -19.8115 c 0,34,35
 614.89 -19.8115 614.89 -19.8115 611.601 -19.4414 c 0,36,0
 574.421 -15.1504 574.421 -15.1504 495.056 39.9043 c 128,-1,1
EndSplineSet
EndChar

StartChar: w
Encoding: 347 119 91
Width: 1498
VWidth: 2917
GlyphClass: 2
Flags: HW
HStem: -5.33879 201.695<217.403 435.184> 104.608 202.119<887.459 1152.73> 1092.24 26G<621.289 663.139 1197.29 1353.48>
VStem: 49.4816 158.335<201.561 440.315> 1327.94 155.09<448.232 696.827>
LayerCount: 2
Fore
SplineSet
58.5 187.2 m 0,0,1
 49.4814 211.479 49.4814 211.479 49.4814 243.349 c 0,2,3
 49.4814 402.01 49.4814 402.01 273 748.8 c 0,4,5
 435.335 1000.66 435.335 1000.66 572.182 1093.52 c 0,6,7
 608.602 1118.24 608.602 1118.24 633.978 1118.24 c 0,8,9
 692.301 1118.24 692.301 1118.24 692.301 987.705 c 0,10,11
 692.301 945.855 692.301 945.855 643.5 897 c 0,12,13
 517.516 770.345 517.516 770.345 513.551 770.345 c 0,14,15
 474.942 770.345 474.942 770.345 359.11 594.455 c 0,16,17
 207.816 365.54 207.816 365.54 207.816 292.762 c 0,18,19
 207.816 286.433 207.816 286.433 208.961 281.285 c 0,20,21
 226.999 196.355 226.999 196.355 295.994 196.355 c 0,22,23
 358.273 196.355 358.273 196.355 462.07 265.555 c 0,24,25
 552.161 325.616 552.161 325.616 682.292 484.345 c 0,26,27
 757.854 578.042 757.854 578.042 801.475 578.042 c 0,28,29
 819.767 578.042 819.767 578.042 832.442 561.566 c 0,30,31
 875.342 505.795 875.342 505.795 875.342 421.425 c 0,32,33
 875.342 315.997 875.342 315.997 989.742 307.025 c 0,34,35
 993.53 306.728 993.53 306.728 997.543 306.728 c 0,36,37
 1070.77 306.728 1070.77 306.728 1218.54 405.695 c 0,38,39
 1327.94 479.698 1327.94 479.698 1327.94 563.353 c 0,40,41
 1327.94 591.237 1327.94 591.237 1315.78 620.195 c 0,42,43
 1274.85 718.03 1274.85 718.03 1228.32 718.03 c 0,44,45
 1204.84 718.03 1204.84 718.03 1179.93 693.125 c 0,46,47
 1175.1 688.291 1175.1 688.291 1170.36 688.291 c 0,48,49
 1156.88 688.291 1156.88 688.291 1144.18 727.445 c 0,50,51
 1134.57 758.136 1134.57 758.136 1134.57 785.197 c 0,52,53
 1134.57 882.967 1134.57 882.967 1260.01 933.366 c 1,54,55
 1446.95 859.68 1446.95 859.68 1470.3 709.8 c 0,56,57
 1483.03 628.124 1483.03 628.124 1483.03 560.138 c 0,58,59
 1483.03 353.057 1483.03 353.057 1365 273 c 0,60,61
 1315.72 239.572 1315.72 239.572 1251.9 195 c 0,62,63
 1120.61 104.607 1120.61 104.607 1007.45 104.607 c 0,64,65
 896.756 104.607 896.756 104.607 803.4 191.1 c 2,66,-1
 706.16 281.191 l 1,67,-1
 611.781 191.1 l 2,68,69
 405.991 -5.33887 405.991 -5.33887 267.312 -5.33887 c 0,70,71
 130.017 -5.33887 130.017 -5.33887 58.5 187.2 c 0,0,1
EndSplineSet
EndChar

StartChar: x
Encoding: 348 120 92
Width: 1115
VWidth: 2918
GlyphClass: 2
Flags: HW
HStem: -30.6922 254.634<896.806 1127.17> 312.135 124.316<159.21 223.686> 644.362 226.13<238.592 480.984> 1049.16 26G<1030.46 1085.84>
VStem: 26.7794 132.385<404.069 562.658> 584.616 124.563<420.547 625.889>
LayerCount: 2
Fore
SplineSet
260.007 46.6221 m 0,0,1
 259.917 46.8896 259.917 46.8896 259.917 47.2666 c 0,2,3
 259.917 66.9756 259.917 66.9756 503.106 386.962 c 0,4,5
 584.616 494.212 584.616 494.212 584.616 604.322 c 0,6,7
 584.616 644.362 584.616 644.362 374.406 644.362 c 0,8,9
 277.79 644.362 277.79 644.362 207.097 551.412 c 0,10,11
 159.165 488.391 159.165 488.391 159.165 459.313 c 0,12,13
 159.165 441.545 159.165 441.545 177.062 436.451 c 0,14,15
 224.25 423.021 224.25 423.021 224.25 367.25 c 0,16,17
 224.25 312.135 224.25 312.135 179.326 312.135 c 0,18,19
 153.92 312.135 153.92 312.135 114.146 329.762 c 0,20,21
 26.7793 367.646 26.7793 367.646 26.7793 459.456 c 0,22,23
 26.7793 537.454 26.7793 537.454 89.8359 654.372 c 0,24,25
 206.579 870.492 206.579 870.492 338.946 870.492 c 0,26,27
 402.765 870.492 402.765 870.492 470.217 820.252 c 0,28,29
 528.909 776.608 528.909 776.608 593.938 776.608 c 0,30,31
 714.278 776.608 714.278 776.608 856.316 926.072 c 0,32,33
 999.253 1075.16 999.253 1075.16 1061.66 1075.16 c 0,34,35
 1110.02 1075.16 1110.02 1075.16 1110.02 985.627 c 0,36,37
 1110.02 975.703 1110.02 975.703 1109.42 964.681 c 0,38,39
 1108 936.08 1108 936.08 810.557 672.962 c 0,40,41
 709.18 583.202 709.18 583.202 709.18 458.352 c 0,42,43
 709.18 414.132 709.18 414.132 721.896 365.512 c 0,44,45
 743.347 281.142 743.347 281.142 996.456 223.941 c 0,46,47
 1150.9 189.622 1150.9 189.622 1150.9 112.401 c 0,48,49
 1150.9 -30.6924 1150.9 -30.6924 1056 -30.6924 c 0,50,51
 965.974 -30.6924 965.974 -30.6924 790.535 98.1016 c 0,52,53
 706.156 160.235 706.156 160.235 642.351 160.235 c 0,54,55
 587.21 160.235 587.21 160.235 547.436 113.831 c 0,56,57
 419.137 -35.1611 419.137 -35.1611 343.394 -35.1611 c 0,58,59
 287.275 -35.1611 287.275 -35.1611 260.007 46.6221 c 0,0,1
EndSplineSet
EndChar

StartChar: y
Encoding: 349 121 93
Width: 1077
VWidth: 2967
GlyphClass: 2
Flags: HW
HStem: 213.712 194.611<219.978 477.649> 888.542 26G<334.729 378.345>
VStem: 37.6399 180.901<418.431 613.176>
LayerCount: 2
Fore
SplineSet
982.163 -820.048 m 1,0,1
 894.932 -778.576 894.932 -778.576 883.492 -609.837 c 0,2,3
 872.053 -439.666 872.053 -439.666 840.592 -241.611 c 0,4,5
 818.266 -101.062 818.266 -101.062 818.266 102.505 c 0,6,7
 818.266 185.789 818.266 185.789 822.003 279.623 c 0,8,9
 822.183 284.539 822.183 284.539 822.183 289.482 c 0,10,11
 822.183 363.636 822.183 363.636 781.963 444.073 c 0,12,13
 766.176 474.331 766.176 474.331 762.491 474.331 c 0,14,15
 762.17 474.331 762.17 474.331 761.941 474.103 c 0,16,-1
 647.542 359.702 l 0,17,18
 530.731 294.686 530.731 294.686 411.592 239.584 c 0,19,20
 373.445 221.941 373.445 221.941 237.132 213.842 c 0,21,22
 234.858 213.712 234.858 213.712 232.532 213.712 c 0,23,24
 183.671 213.712 183.671 213.712 112.007 271.042 c 0,25,26
 37.6396 330.535 37.6396 330.535 37.6396 472.816 c 0,27,28
 37.6396 474.171 37.6396 474.171 37.6465 475.533 c 0,29,30
 38.3623 619.964 38.3623 619.964 204.241 797.283 c 0,31,32
 312.922 914.542 312.922 914.542 356.538 914.542 c 128,-1,33
 400.153 914.542 400.153 914.542 414.453 881.652 c 0,34,35
 419.773 869.047 419.773 869.047 419.773 853.837 c 0,36,37
 419.773 791.394 419.773 791.394 330.082 685.027 c 0,38,39
 218.542 552.752 218.542 552.752 218.542 480.538 c 128,-1,40
 218.542 408.323 218.542 408.323 338.663 408.323 c 0,41,42
 420.172 408.323 420.172 408.323 515.981 459.802 c 128,-1,43
 611.792 511.283 611.792 511.283 673.997 572.773 c 128,-1,44
 736.203 634.264 736.203 634.264 751.932 721.492 c 0,45,46
 781.842 887.373 781.842 887.373 842.021 887.373 c 0,47,48
 904.941 887.373 904.941 887.373 930.682 827.313 c 0,49,50
 937.832 810.152 937.832 810.152 959.472 577.196 c 128,-1,51
 981.11 344.24 981.11 344.24 985.4 332.8 c 1,52,-1
 990.6 302.25 l 0,53,54
 996.066 272.867 996.066 272.867 1035.53 -89.6182 c 128,-1,55
 1074.98 -452.104 1074.98 -452.104 1078.69 -470.411 c 0,56,57
 1139.5 -770.922 1139.5 -770.922 1139.5 -781.111 c 0,58,59
 1139.5 -781.361 1139.5 -781.361 1139.46 -781.437 c 0,60,61
 1107.83 -844.43 1107.83 -844.43 1099.21 -844.43 c 0,62,63
 1097.35 -844.43 1097.35 -844.43 1096.56 -841.498 c 0,64,65
 1093.87 -831.503 1093.87 -831.503 982.163 -820.048 c 1,0,1
EndSplineSet
EndChar

StartChar: z
Encoding: 350 122 94
Width: 1154
VWidth: 2952
GlyphClass: 2
Flags: HW
HStem: -632.531 174.838<485.012 744.168> 809.89 200.127<207.289 517.016>
VStem: 264.715 218.566<262.402 413.786> 334.606 153.912<-434.611 -72.1887> 523.817 142.878<619.342 799.629> 833.687 165.645<-382.567 -103.213>
LayerCount: 2
Fore
SplineSet
655.105 69.0713 m 0,0,1
 518.463 -88.5195 518.463 -88.5195 501.552 -166.163 c 16,2,3
 488.518 -226 488.518 -226 488.518 -275.462 c 0,4,5
 488.518 -378.425 488.518 -378.425 544.995 -436.435 c 0,6,7
 565.691 -457.692 565.691 -457.692 604.04 -457.692 c 0,8,9
 657.479 -457.692 657.479 -457.692 745.195 -416.413 c 8,10,11
 775.995 -401.92 775.995 -401.92 800.25 -316.313 c 16,12,13
 833.688 -198.301 833.688 -198.301 833.688 -144.166 c 0,14,15
 833.688 -126.886 833.688 -126.886 830.28 -116.114 c 8,16,-1
 655.105 69.0713 l 0,0,1
34.5947 826.255 m 8,17,18
 44.7256 869.148 44.7256 869.148 151.03 924.926 c 24,19,20
 256.608 980.321 256.608 980.321 369.82 1002.15 c 16,21,22
 410.639 1010.02 410.639 1010.02 441.029 1010.02 c 0,23,24
 484.966 1010.02 484.966 1010.02 507.1 993.565 c 8,25,26
 637.675 896.525 637.675 896.525 664.216 783.355 c 16,27,28
 666.694 772.782 666.694 772.782 666.694 759.018 c 0,29,30
 666.694 693.234 666.694 693.234 610.061 554.556 c 8,31,32
 485.845 374.487 485.845 374.487 483.76 341.486 c 16,33,34
 483.281 333.905 483.281 333.905 483.281 327.038 c 0,35,36
 483.281 261.06 483.281 261.06 527.485 261.06 c 0,37,38
 552.892 261.06 552.892 261.06 592.9 282.855 c 8,39,-1
 846.01 538.825 l 24,40,41
 1066.04 745.917 1066.04 745.917 1111.99 771.424 c 16,42,43
 1128.3 780.479 1128.3 780.479 1141.17 780.479 c 0,44,45
 1172.67 780.479 1172.67 780.479 1183.49 726.155 c 0,46,47
 1188.09 703.074 1188.09 703.074 1188.09 679.997 c 0,48,49
 1188.09 617.979 1188.09 617.979 1154.89 555.986 c 0,50,51
 1125.86 501.78 1125.86 501.78 1084.15 501.78 c 0,52,53
 1074.79 501.78 1074.79 501.78 1064.8 504.505 c 8,54,55
 940.382 405.537 940.382 405.537 901.408 354.355 c 16,56,57
 826.395 255.841 826.395 255.841 826.395 204.204 c 0,58,59
 826.395 198.164 826.395 198.164 827.42 192.766 c 8,60,-1
 985.428 -87.5137 l 16,61,62
 999.332 -166.369 999.332 -166.369 999.332 -229.989 c 0,63,64
 999.332 -364.298 999.332 -364.298 937.362 -430.713 c 0,65,66
 749.056 -632.53 749.056 -632.53 492.709 -632.53 c 0,67,68
 484.921 -632.53 484.921 -632.53 477.07 -632.345 c 8,69,70
 337.238 -629.024 337.238 -629.024 334.785 -416.413 c 16,71,72
 334.605 -400.913 334.605 -400.913 334.605 -385.852 c 0,73,74
 334.605 26.2334 334.605 26.2334 468.49 111.256 c 8,75,-1
 318.34 208.497 l 24,76,77
 265.056 273.372 265.056 273.372 264.715 359.361 c 16,78,-1
 264.715 359.544 l 0,79,80
 264.715 394.407 264.715 394.407 317.525 414.415 c 8,81,82
 478.334 629.947 478.334 629.947 504.24 680.396 c 16,83,84
 523.816 718.517 523.816 718.517 523.816 748.756 c 0,85,86
 523.816 772.848 523.816 772.848 511.39 791.937 c 0,87,88
 499.703 809.89 499.703 809.89 455.315 809.89 c 0,89,90
 440.203 809.89 440.203 809.89 421.3 807.809 c 8,91,92
 265.023 790.601 265.023 790.601 198.22 757.453 c 24,93,-1
 83.8193 640.355 l 16,94,95
 24.1152 665.46 24.1152 665.46 24.1152 747.511 c 0,96,97
 24.1152 781.885 24.1152 781.885 34.5947 826.255 c 8,17,18
EndSplineSet
EndChar

StartChar: braceleft
Encoding: 351 123 95
Width: 620
VWidth: 2918
GlyphClass: 2
Flags: HW
HStem: -297.976 164.687<451.796 512.226>
VStem: 311.732 208.62<-220.697 210.983>
LayerCount: 2
Fore
SplineSet
453.514 -274.084 m 4,0,1
 435.348 -249.237 435.348 -249.237 409.975 -249.237 c 132,-1,2
 384.561 -249.237 384.561 -249.237 344.167 -182.969 c 132,-1,3
 303.729 -116.695 303.729 -116.695 311.732 -13.1895 c 132,-1,4
 319.733 90.2881 319.733 90.2881 348.138 156.573 c 4,5,6
 409.579 299.86 409.579 299.86 377.199 382.985 c 4,7,8
 358.92 429.879 358.92 429.879 344.254 429.941 c 4,9,10
 324.163 430.056 324.163 430.056 278.345 485.715 c 132,-1,11
 232.524 541.375 232.524 541.375 224.422 575.521 c 4,12,13
 190.623 717.914 190.623 717.914 267.38 888.988 c 4,14,15
 321.041 1008.54 321.041 1008.54 315.006 1062.68 c 132,-1,16
 308.969 1116.79 308.969 1116.79 297.407 1121.21 c 4,17,18
 132.032 1184.21 132.032 1184.21 130.15 1339.04 c 4,19,20
 129.298 1409.43 129.298 1409.43 174.66 1459.82 c 4,21,22
 306.207 1605.9 306.207 1605.9 402.644 1605.9 c 4,23,24
 422.933 1605.9 422.933 1605.9 436.8 1634.1 c 132,-1,25
 450.698 1662.31 450.698 1662.31 470.331 1643.79 c 132,-1,26
 489.981 1625.29 489.981 1625.29 504.546 1623.88 c 4,27,28
 520.535 1622.35 520.535 1622.35 514.271 1541.38 c 4,29,30
 511.849 1509.96 511.849 1509.96 449.873 1473.37 c 6,31,-1
 357.822 1418.85 l 6,32,33
 278.129 1371.49 278.129 1371.49 301.536 1302.18 c 4,34,35
 308.185 1282.49 308.185 1282.49 352.551 1260.17 c 4,36,37
 462.827 1204.72 462.827 1204.72 477.635 1052.12 c 4,38,39
 482.307 1004.01 482.307 1004.01 454.227 913.026 c 132,-1,40
 426.153 822.053 426.153 822.053 399.483 798.891 c 4,41,42
 376.19 778.672 376.19 778.672 373.44 699.508 c 4,43,44
 369.228 578.954 369.228 578.954 402.486 578.954 c 4,45,46
 421.236 578.954 421.236 578.954 429.994 553.055 c 132,-1,47
 438.738 527.156 438.738 527.156 452.477 536.799 c 132,-1,48
 466.23 546.458 466.23 546.458 499.961 507.99 c 4,49,50
 605.124 388.179 605.124 388.179 511.623 154.294 c 4,51,52
 396.689 -133.289 396.689 -133.289 500.744 -133.289 c 4,53,54
 529.734 -133.289 529.734 -133.289 520.353 -187.123 c 132,-1,55
 510.969 -240.907 510.969 -240.907 510.497 -269.942 c 4,56,57
 510.072 -296.583 510.072 -296.583 491.021 -297.976 c 132,-1,58
 471.981 -299.35 471.981 -299.35 453.514 -274.084 c 4,0,1
EndSplineSet
EndChar

StartChar: bar
Encoding: 352 124 96
Width: 375
VWidth: 2910
GlyphClass: 2
Flags: HW
VStem: 101.911 166.626<557.977 1421.07> 129.167 175.38<-284.757 1172.15> 132.687 147.29<-287.175 -61.1923>
LayerCount: 2
Fore
SplineSet
214.197 -297.533 m 1,0,1
 136.978 -274.652 136.978 -274.652 132.688 -167.402 c 0,2,3
 129.167 -94.3633 129.167 -94.3633 129.167 66.1357 c 0,4,5
 129.167 166.447 129.167 166.447 130.542 300.923 c 0,6,7
 131.084 353.896 131.084 353.896 131.084 407.46 c 0,8,9
 131.084 707.43 131.084 707.43 114.097 1025.93 c 0,10,11
 101.911 1254.42 101.911 1254.42 101.911 1351.25 c 0,12,13
 101.911 1413.49 101.911 1413.49 106.946 1421.33 c 1,14,15
 112.667 1422.76 112.667 1422.76 171.297 1468.52 c 0,16,17
 219.403 1506.06 219.403 1506.06 229.964 1506.06 c 0,18,19
 232.273 1506.06 232.273 1506.06 232.787 1504.27 c 0,20,21
 264.247 1414.18 264.247 1414.18 268.537 1316.94 c 2,22,-1
 279.978 1059.54 l 2,23,24
 297.494 702.93 297.494 702.93 297.494 553.249 c 0,25,26
 297.494 531.866 297.494 531.866 297.137 514.706 c 0,27,28
 295.421 458.078 295.421 458.078 295.421 397.332 c 0,29,30
 295.421 306.213 295.421 306.213 299.282 205.826 c 0,31,32
 304.547 68.9365 304.547 68.9365 304.547 -60.2949 c 0,33,34
 304.547 -89.0127 304.547 -89.0127 304.287 -117.353 c 0,35,36
 304.287 -188.853 304.287 -188.853 279.978 -247.483 c 0,37,38
 256.029 -302.997 256.029 -302.997 230.427 -302.997 c 0,39,40
 222.393 -302.997 222.393 -302.997 214.197 -297.533 c 1,0,1
EndSplineSet
EndChar

StartChar: braceright
Encoding: 353 125 97
Width: 620
VWidth: 2918
GlyphClass: 2
Flags: HW
HStem: -300.358 115.948<110.243 178.122>
VStem: 109.383 208.62<-271.82 -184.424>
LayerCount: 2
Fore
SplineSet
176.22 -325.205 m 4,0,1
 194.387 -300.358 194.387 -300.358 219.76 -300.358 c 132,-1,2
 245.174 -300.358 245.174 -300.358 285.567 -234.09 c 132,-1,3
 326.005 -167.817 326.005 -167.817 318.002 -64.3105 c 132,-1,4
 310.001 39.166 310.001 39.166 281.597 105.452 c 4,5,6
 220.156 248.739 220.156 248.739 252.535 331.864 c 4,7,8
 270.814 378.758 270.814 378.758 285.481 378.818 c 4,9,10
 305.571 378.935 305.571 378.935 351.39 434.594 c 132,-1,11
 397.21 490.253 397.21 490.253 405.312 524.4 c 4,12,13
 439.111 666.793 439.111 666.793 362.354 837.867 c 4,14,15
 308.692 957.423 308.692 957.423 314.729 1011.56 c 132,-1,16
 320.766 1065.67 320.766 1065.67 332.327 1070.09 c 4,17,18
 497.702 1133.09 497.702 1133.09 499.584 1287.92 c 4,19,20
 500.437 1358.32 500.437 1358.32 455.075 1408.71 c 4,21,22
 323.527 1554.79 323.527 1554.79 227.092 1554.79 c 4,23,24
 206.802 1554.79 206.802 1554.79 192.935 1582.98 c 132,-1,25
 179.036 1611.19 179.036 1611.19 159.403 1592.67 c 132,-1,26
 139.753 1574.17 139.753 1574.17 125.188 1572.75 c 4,27,28
 109.198 1571.22 109.198 1571.22 115.464 1490.25 c 4,29,30
 117.885 1458.85 117.885 1458.85 179.861 1422.24 c 6,31,-1
 271.912 1367.73 l 6,32,33
 351.605 1320.37 351.605 1320.37 328.198 1251.06 c 4,34,35
 321.55 1231.37 321.55 1231.37 277.184 1209.05 c 4,36,37
 166.908 1153.6 166.908 1153.6 152.1 1001 c 4,38,39
 147.428 952.893 147.428 952.893 175.508 861.905 c 132,-1,40
 203.583 770.93 203.583 770.93 230.251 747.77 c 4,41,42
 253.544 727.549 253.544 727.549 256.294 648.387 c 4,43,44
 260.508 527.831 260.508 527.831 227.248 527.831 c 4,45,46
 208.498 527.831 208.498 527.831 199.74 501.934 c 132,-1,47
 190.996 476.035 190.996 476.035 177.259 485.678 c 132,-1,48
 163.504 495.335 163.504 495.335 129.774 456.869 c 4,49,50
 24.6104 337.057 24.6104 337.057 118.112 103.174 c 4,51,52
 233.045 -184.41 233.045 -184.41 128.99 -184.41 c 4,53,54
 100 -184.41 100 -184.41 109.383 -238.246 c 132,-1,55
 118.766 -292.029 118.766 -292.029 119.237 -321.064 c 4,56,57
 119.662 -347.704 119.662 -347.704 138.714 -349.097 c 132,-1,58
 157.752 -350.471 157.752 -350.471 176.22 -325.205 c 4,0,1
EndSplineSet
EndChar

StartChar: asciitilde
Encoding: 354 126 98
Width: 1066
VWidth: 2866
GlyphClass: 2
Flags: HW
HStem: 871.078 196.646<699.783 894.338> 1020.89 205.562<213.018 473.383>
VStem: 118.754 87.2305<927.583 1013.68> 900.965 122.98<1072.76 1164.96>
LayerCount: 2
Fore
SplineSet
812.305 871.813 m 0,0,1
 643.564 887.544 643.564 887.544 629.265 896.124 c 0,2,3
 546.325 944.744 546.325 944.744 440.505 971.914 c 0,4,5
 420.485 977.633 420.485 977.633 328.965 1010.52 c 0,6,7
 301.08 1020.89 301.08 1020.89 279.452 1020.89 c 0,8,9
 214.565 1020.89 214.565 1020.89 205.985 927.582 c 1,10,-1
 118.755 927.582 l 1,11,12
 138.775 1226.45 138.775 1226.45 337.545 1226.45 c 0,13,14
 390.455 1226.45 390.455 1226.45 446.225 1192.13 c 2,15,-1
 697.905 1036.26 l 1,16,17
 757.965 1067.72 757.965 1067.72 822.314 1067.72 c 0,18,19
 899.535 1067.72 899.535 1067.72 900.965 1174.97 c 1,20,-1
 1023.95 1164.96 l 1,21,-1
 1023.95 1144.94 l 2,22,23
 1023.95 1027.68 1023.95 1027.68 973.895 954.754 c 0,24,25
 915.061 871.078 915.061 871.078 828.734 871.078 c 0,26,27
 820.641 871.078 820.641 871.078 812.305 871.813 c 0,0,1
EndSplineSet
EndChar
